<?xml version="1.0" encoding="UTF-8"?><svg id="Layer_1" xmlns="http://www.w3.org/2000/svg" viewBox="0 0 500 59.27"><defs><style>.cls-1{fill:#8a3d7a;}</style></defs><path class="cls-1" d="M0,59.27H0v-13.24c-.22,.02,3.92-.16,5.66-1.07,1.74-.9,3.53-1.74,5.25-2.71,1.09-.61,2.35-.97,3.49-1.5,1.61-.74,3.2-1.26,4.97-1.16,1.56,.09,3.09-.22,4.54-.66,2.87-.86,5.69-1.92,8.51-2.94,1.84-.67,3.61-1.52,5.56-1.85,1.79,.61,3.59,1.19,5.48,1.48,1.42,.22,2.82-.06,4.23,0,2.14,.11,4.22-.2,6.26-.81,2.48-.74,4.94-.25,7.31,.38,1.16,.31,2.31,.84,3.49,1.2,1.07,.33,2.24,.52,3.19,.11,1.77-.77,3.69-1.12,5.43-1.96,.68-.33,1.49-.57,2.11,.24,.07,.09,.21,.15,.33,.2,2.93,1.24,5.78,2.67,8.68,3.97,1.66,.75,3.39,1.35,5.29,1.47,4.85,.32,9.68,.74,14.55,.24,4.44-.45,8.88-.79,13.22-1.89,.8-.2,1.49-.19,2.34,.16,1.81,.75,3.76,1.17,5.63,1.77,1.13,.36,2.11,.97,2.95,1.84,.96,.98,2.05,1.72,3.51,1.76,.57,.02,1.16,.12,1.68,.35,.89,.38,1.93,.54,2.56,1.37,1.16,1.53,2.67,2.51,4.49,3.1,.65,.21,1.3,.33,1.95,.5,2.1,.55,4.21,.89,6.38,.81,1-.04,1.99-.24,2.8-.85,1.71-1.29,3.65-1.59,5.73-1.57,2.96,.03,5.92-.04,8.88-.04,2.15,0,4.26,.16,6.27,1.08,1.97,.9,4.09,1.4,6.17,1.99,2.58,.74,5.1,1.59,7.53,2.72,.9,.42,1.89,.72,2.66,1.3,.55,.41,1.09,.83,1.68,1.17,2.06,1.21,4.36,1.45,6.67,1.61,1.13,.08,2.26,.08,3.27,.7,1.4,.86,2.94,.81,4.42,.5,3.6-.74,7.13-1.73,10.66-2.77,.84-.25,1.68-.43,2.5-.88,1.81-1.01,3.41-2.28,5.11-3.42,1.61-1.09,3.42-1.73,5.29-2.27,2.47-.7,4.92-1.21,7.51-1.18,2.6,.02,5.25,.26,7.75-.79,1.48-.62,3.07-.63,4.64-.81,2.51-.29,5.04-.55,7.11-2.29,1.98-1.67,4.16-3.02,6.5-4.13,1.29-.61,2.4-1.49,2.93-2.91,.21-.57,.63-.93,1.12-1.25,1.11-.73,2.4-.95,3.64-1.29,1.89-.51,3.83-.56,5.77-.69,2.73-.18,5.46-.41,8.19-.6,.65-.05,1.28-.02,1.85,.47,.96,.85,2.13,1.07,3.39,1.1,1.54,.04,3.03,0,4.56-.44,2.58-.74,4.85-2.01,7-3.54,1.01-.72,1.99-1.53,2.58-2.63,.73-1.37,1.65-2.58,2.72-3.69,.55-.57,1.05-1.18,1.51-1.84,.93-1.35,2.13-2.44,3.55-3.27,1.77-1.04,3.33-2.36,4.59-3.95,1.47-1.86,3.22-3.35,5.22-4.55,1.33-.8,2.72-1.51,4.12-2.2,1.27-.63,2.34-.7,3.61-.4,2.08,.49,4.17,.14,6.12-.47,2.46-.77,4.89-1.68,7.22-2.81,2.01-.97,4.03-1.94,6.05-2.91,1.72-.82,3.5-1.44,5.27-2.12,1.74-.66,3.56-.62,5.36-.44,.79,.08,1.65,.35,2.14,1.01,.57,.76,1.34,1.04,2.16,1.35,.91,.34,1.86,.6,2.65,1.22,1.53,1.22,3.24,2.14,5.04,2.89,.33,.14,.61,.34,.86,.58,.57,.56,1.25,.96,2,1.22,1.82,.63,3.54,1.41,4.69,3.07,.09,.13,.29,.19,.44,.27,1.33,.77,2.78,.92,4.19,.47,.89-.28,1.81-.52,2.7-.83,.89-.31,1.78-.24,2.75,.25,2.09,1.05,4.31,1.86,6.48,2.77,.2,.08,.45,.17,.55,.33,.46,.73,1.24,1.06,1.87,1.58,1.15,.96,2.4,1.47,3.88,1.54,.48,.02,1,.04,1.43,.22,.35,.15,.57,.07,.91,.02,1.71-.23,3.37-.68,5.06-1,1.39-.27,2.6,0,3.59,1.14,1.43,1.64,3.32,2.6,5.33,3.34,1.08,.39,2.17,.74,3.25,1.12,.62,.22,1.25,.44,1.78,.86,1.13,.89,2.43,1.41,3.8,1.8,1.74,.49,3.51,.89,5.21,1.48,2.37,.83,4.77,1.25,7.28,1.12,1.37-.07,2.73-.02,4.08,.28,2.15,.47,4.31,.92,6.55,.53,.51-.09,1.06,.04,1.58,.09,1.1,.12,2.19,.28,3.29,.37,.71,.06,1.4,.19,2.05,.47,1.55,.65,3.18,1.05,4.81,1.44,1.11,.26,2.26,.48,3.31,.91,4.02,1.63,8.19,2.07,12.47,1.76,1.67-.12,3.34-.31,5.02-.4,2.87-.17,5.76-.29,8.6,.17,1.48,.24,2.8,.04,4.1-.57,.68-.32,1.35-.65,2.02-.98,1.12-.55,2.25-1.05,3.51-1.18v28.47"/></svg>