<?xml version="1.0" encoding="UTF-8"?><svg id="Layer_1" xmlns="http://www.w3.org/2000/svg" viewBox="0 0 500 98.87"><defs><style>.cls-1,.cls-2{fill:#fff;}.cls-3{fill:#d99596;}.cls-4{fill:#b22a2d;}.cls-2{opacity:.5;}</style></defs><path class="cls-4" d="M500,98.87v-23.91c-.28-.05-.56-.1-.84-.17-3.44-.89-6.85-.43-10.24,.26-2.61,.53-5.16,1.36-7.81,1.77-3.03,.47-6.05,.39-9.05-.17-2.33-.43-4.66-.78-7.03-.86-1.82-.06-3.56-.42-5.12-1.44-.92-.6-1.95-.88-3.03-1.04-2.74-.42-5.48-.85-8.2-1.41-3.91-.81-7.88-.6-11.83-.27-2.77,.23-5.53,.44-8.3,.64-2.62,.06-5.28-.87-6.78-1.37-1.26-.42-2.59-.63-3.9-.88-1.83-.35-3.65-.39-5.51-.09-2,.33-3.17,.47-5.18,.7-1.25,.16-2.3,.1-3.29,.04-.75-.04-1.47-.09-2.21-.03-1.32,.12-2.64,.25-3.95,.11-.42,0-.59-.06-1.1-.2-.19-.05-.38-.09-.56-.16-1.22-.41-2.5-.33-3.76-.39-2.03-.09-4.07-.16-5.83-1.44-.35-.26-.71-.49-1.07-.72-.34-.21-.68-.38-1.08-.65-1.05-.6-2.15-1.12-3.29-1.57-.84-.33-2.46-1.18-3-1.91,0,0-1.19-1.53-2.61-1.87-.96-.28-1.08-.34-2.73-.36-.93-.04-1.86-.03-2.8-.02-1.19,0-2.38,0-3.57-.01-1.01,0-2.02-.01-3.02-.01-.52,0-3.1,.14-4.11,.24-1.23,.12-2.43,.17-3.68-.1-2.11-.45-4.25-1.23-6.06-2.34-.85-.52-2.05-1.2-2.59-2.05-.67-1.06-3.3-2.38-3.7-2.88-.82-1.03-1.59-1.94-2.78-2.52-1.48-.73-2.8-1.7-3.9-2.91-1.28-1.41-2.77-2.5-4.44-3.36-1.11-.57-1.89-.97-3.05-1.45-1.05-.43-1.91-.43-2.92-.12-1.64,.51-3.33,.35-4.93-.03-2.01-.48-4.01-1.08-5.94-1.85-1.67-.67-3.34-1.33-5.01-1.99-1.42-.56-2.89-.96-4.34-1.4-1.43-.44-2.55-.3-3.99-.05-.63,.11-1.3,.37-1.66,.93-.41,.64-1.02,.91-1.66,1.2-.71,.32-1.46,.58-2.05,1.12-1.16,1.06-2.48,1.9-3.88,2.6-.25,.13-.47,.3-.66,.51-.43,.48-.95,.84-1.53,1.09-1.42,.61-2.76,1.33-3.59,2.72-.06,.11-.22,.17-.34,.24-1.02,.69-2.51,.89-3.66,.61-.73-.18-1.48-.32-2.21-.51-.73-.2-1.44-.09-2.19,.35-1.62,.96-3.35,1.73-5.03,2.58-.15,.08-.35,.16-.42,.29-.33,.61-.94,.92-1.41,1.37-.87,.83-1.84,1.31-3.02,1.45-.39,.04-.8,.08-1.14,.26-.27,.14-.46,.09-.73,.07-1.38-.09-2.22-.26-3.59-.42-1.13-.14-2.08,.15-2.81,1.11-1.06,1.39-3.03,2.18-4.6,2.88-.84,.38-1.7,.72-2.54,1.08-.49,.21-.98,.42-1.38,.79-.86,.78-1.87,1.27-2.95,1.66-1.37,.49-2.76,.91-4.09,1.48-1.85,.79-3.75,1.27-5.77,1.31-.79,.01-2.87,.53-4.37,.93-.21-.05-2.09,.75-3.71,1.45-2.1,.84-5.02,2.31-6.94,2.61-1.65,.26-3.14,.7-5.13,.53-2.78-.17-4.7-.75-7.08-1.45-2.88-.86-5.74-.29-8.51,.45-1.35,.36-2.68,.97-4.06,1.4-1.25,.38-2.6,.61-3.71,.12-2.06-.9-4.29-1.3-6.32-2.28-.79-.38-1.28-.45-2.46,.28-.09,.11-.25,.17-.38,.23-3.41,1.44-6.72,3.1-10.09,4.61-1.93,.87-3.95,1.57-6.16,1.71-5.64,.37-11.25,.86-16.92,.28-5.16-.53-10.33-.92-15.38-2.19-.93-.23-1.73-.22-2.72,.19-2.11,.87-4.37,1.37-6.55,2.06-1.32,.42-2.45,1.13-3.43,2.14-1.11,1.13-2.39,1.99-4.08,2.05-.66,.02-1.35,.15-1.95,.4-1.04,.44-2.25,.64-2.98,1.6-1.35,1.78-3.11,2.92-5.22,3.61-.75,.24-1.51,.39-2.27,.58-2.44,.64-4.9,1.03-7.42,.94-1.16-.04-2.32-.28-3.25-.99-1.99-1.51-4.25-1.85-6.66-1.82-2,.02-4,0-6-.02-1.44-.01-2.89-.03-4.33-.03-2.5,0-4.96,.18-7.29,1.25-2.29,1.05-4.76,1.63-7.18,2.32-3,.86-5.94,1.84-8.76,3.16-1.04,.49-2.19,.83-3.09,1.51-.64,.48-1.27,.96-1.95,1.37-2.39,1.41-5.07,1.68-7.76,1.87-1.31,.09-2.63,.09-3.8,.81-1.63,1-3.42,.94-5.15,.58-4.18-.86-8.3-2.02-12.4-3.22-.98-.29-1.96-.5-2.91-1.02-2.1-1.17-3.97-2.65-5.94-3.98-1.88-1.27-3.98-2.01-6.16-2.64-2.8-.8-5.58-1.37-8.51-1.37v13.46H500"/><path class="cls-2" d="M159.31,75.66c-1.53,0-3.06-.04-4.59-.15-.83-.72-1.88-1.06-2.88-1.44-2.48-.94-4.98-1.84-7.55-2.56-1.79-.5-2.67-1.21-4.11-3.04,1.14,.45,2.08,.91,3.07,1.19,3.36,.95,6.76,1.75,10.09,2.79,2.27,.71,4.55,1.51,6.31,3.2-.11,0-.23,0-.34,0m1.72-.02c-.09-.19-.23-.36-.42-.53-1.62-1.47-3.52-2.46-5.57-3.18-3.01-1.06-6.13-1.72-9.21-2.51-1.61-.42-3.1-1.12-4.63-1.72-.14-.05-.27-.15-.41-.17-2-.25-3.2-1.76-4.58-2.96-2.11-1.84-4.55-3.16-6.97-4.5-2.47-1.37-4.99-2.64-7.46-4.01-1.57-.87-3.04-1.9-4.44-3.25,.15-.06,.28-.08,.4-.08,.23,0,.43,.09,.63,.16,3.92,1.26,7.22,3.64,10.59,5.9,2.12,1.42,4.32,2.7,6.55,3.95,1.92,1.08,4.05,1.69,5.9,2.88,1.43,.91,2.99,1.57,4.55,2.11,1.84,.63,3.7,1.24,5.56,1.83,2.55,.81,5.08,1.73,7.56,2.69,1.91,.74,3.89,1.5,5.59,2.77,.2,.15,.41,.32,.63,.46-1.42,.08-2.85,.14-4.27,.17m5.91-.27c-.48-.94-1.56-1.15-2.33-1.64-2.9-1.83-6.16-2.87-9.38-3.99-3.34-1.17-6.78-2.12-10-3.57-5.35-2.39-10.78-4.68-15.61-8.11-3.31-2.35-6.65-4.65-10.58-5.9-.54-.17-1.07-.48-1.61-.49-1.63-.03-2.59-1.03-3.51-2.17-.58-.72-1.19-1.41-1.65-2.2,.13-.24,.29-.3,.47-.3,.16,0,.33,.05,.5,.06,1.15,.07,2.26,.41,3.18,1.06,4.27,3.04,8.85,5.61,13.04,8.78,2.09,1.59,4.32,2.95,6.62,4.22,2.32,1.28,4.76,2.29,7.31,3.03,.77,.22,1.47,.63,2.19,.95,4.21,1.89,8.74,2.55,13.15,3.67,3.59,.91,7.31,1.12,10.87,2.14,2.07,.59,4.12,1.28,5.9,2.54-.94,.37-1.89,.71-2.84,1.05-1.07,.38-2.17,.62-3.31,.71-.81,.06-1.61,.12-2.42,.17m-14.84-.1c-.2-.02-.39-.04-.59-.07-1.88-.24-3.77-.39-5.65-.61-.75-.56-1.27-1.34-1.82-2.18,1.47,.45,3.01,.75,4.39,1.38,1.19,.55,2.48,.91,3.68,1.47m-7.86-.88c-2.19-.31-4.35-.77-6.45-1.61-.09-.04-.19-.05-.3-.05s-.21,.01-.31,.03c-.12,.02-.25,.03-.37,.03-.44,0-.87-.11-1.3-.2-4.59-.87-9.14-1.93-13.85-2.07-2.2-.06-4.39-.48-6.59-.71-.64-.07-1.14-.33-1.61-.77-1.44-1.32-2.94-2.58-4.37-3.9-1.66-1.53-3.55-2.56-5.72-3.21-4.38-1.31-8.7-2.77-12.92-4.54-1.33-.56-2.72-.86-4.16-1.08-3.68-.56-7.15-1.78-10.42-3.57-2.59-1.41-4.71-3.38-6.73-5.44,.07-.17,.18-.2,.29-.2,.04,0,.07,0,.1,0,.41,.03,.82,.04,1.23,.04,2.63,0,5.2-.56,7.79-.96,2.24-.35,4.45-.8,6.37-2.12,.41-.28,.94-.41,1.42-.57,1.27-.41,2.57-.73,3.82-1.2,2.3-.86,4.64-1.3,7.01-1.3,1.29,0,2.59,.13,3.9,.4,.51,.11,1.01,.15,1.5,.15,.27,0,.53-.01,.79-.04l.23,.02c.27-.03,.53-.05,.79-.05,2.75,0,4.47,1.74,5.72,4.09,1.57,2.93,3.65,5.4,6.1,7.62,1.66,1.51,3.43,3.01,5.37,3.97,1.95,.96,3.78,2.14,5.78,3.04,4.03,1.81,7.57,4.42,10.64,7.61,2.09,2.18,4.15,4.39,6.22,6.58m32.38-1.4c-1.32-.95-2.75-1.72-4.28-2.28-2.78-1.02-5.69-1.48-8.6-1.96-3.21-.52-6.37-1.27-9.53-2.08-2.25-.57-4.55-.98-6.69-1.91-3.65-1.58-7.49-2.68-11-4.63-2.53-1.4-4.92-3.01-7.24-4.71-2.62-1.92-5.36-3.64-8.05-5.44-1.26-.85-2.54-1.67-3.78-2.55-1.37-.97-3.03-1.24-4.68-1.47-.05,0-.1-.01-.16-.01-.07,0-.15,0-.23,.01-.08,0-.15,.01-.23,.01-.24,0-.47-.05-.65-.31-.5-.75-1.02-1.48-1.47-2.26-.17-.29,.12-.45,.39-.49,.39-.05,.78-.08,1.16-.08,1.3,0,2.54,.33,3.62,1.12,1.28,.93,2.63,1.74,3.99,2.5,1.59,.88,2.98,2,4.23,3.25,1.39,1.39,3.04,2.39,4.58,3.55,.34,.26,.75,.47,1.17,.57,2.46,.6,4.39,2.13,6.34,3.59,1.48,1.11,2.98,2.29,4.72,2.82,2.06,.62,4.03,1.46,6.14,1.97,4.18,1,8.36,2,12.45,3.35,2.61,.86,5.31,1.48,7.95,2.26,1.95,.58,3.97,1.05,5.79,1.92,1.84,.89,3.86,1.42,5.57,2.58-.5,.23-1.01,.46-1.53,.67m2.78-1.29c-4.45-2.26-9.1-3.98-13.89-5.34-5.02-1.43-10.06-2.79-15.09-4.18-2.71-.75-5.45-1.38-8.1-2.34-2.34-.85-4.49-1.96-6.42-3.55-2.02-1.67-4.39-2.74-6.73-3.86-1.7-.81-3.28-1.79-4.56-3.16-1.8-1.92-3.99-3.28-6.26-4.51-.94-.51-1.81-1.11-2.7-1.67-1.23-.78-2.5-1.08-3.82-1.08-.5,0-1.01,.04-1.53,.12-.22,.03-.42,.05-.62,.05-.51,0-.97-.14-1.48-.51-.67-.49-1.39-.78-2.15-.94,.12-.05,.24-.11,.36-.17,1.28-.64,2.56-.98,3.82-.98,1.47,0,2.92,.46,4.32,1.45,1.1,.78,2.22,1.47,3.55,1.79,.49,.12,.94,.4,1.41,.6,3.23,1.41,5.92,3.66,8.76,5.66,.35,.24,.66,.4,1.08,.51,1.66,.41,3.18,1,4.25,2.51,1.34,1.9,3.21,3.15,5.44,3.83,1.13,.34,2.23,.77,3.36,1.11,6.61,2.04,13.34,3.71,19.71,6.5,2.68,1.18,5.49,1.99,8.38,2.54,2.57,.49,5.16,.89,7.63,1.8,1.98,.73,3.98,1.34,6.3,1.4-.39,.6-.88,.64-1.29,.8-1.1,.42-2.21,.81-3.26,1.37-.16,.09-.32,.17-.48,.25m-93.19-.81c-.6,0-1.2,0-1.8,0-2.86-.01-5.72-.08-8.58-.22-.16-.2-.36-.4-.47-.6-1.04-1.91-2.31-3.67-3.69-5.35-2.99-3.65-6.35-6.95-9.86-10.1-1.71-1.53-3.36-3.17-4.88-4.9-3.01-3.44-6.11-6.79-9.43-9.92-1.38-1.3-2.91-2.45-4.68-3.11-1.3-.49-1.93-1.74-3.13-2.28-.12-.05-.13-.37-.29-.9,2.84,1.91,5.78,2.96,8.59,4.26,1.52,.7,2.91,1.66,4.21,2.7,5.02,4,9.78,8.27,14.21,12.93,1.9,2,4.12,3.63,6.52,5.06,2.97,1.76,5.82,3.73,8.67,5.67,2.92,1.98,6.1,3.49,9.19,5.17,.86,.47,1.68,1.04,2.56,1.47l.07,.03c-2.41,.06-4.82,.09-7.23,.09m10.1-.19c-4.22-1.72-8.19-3.97-12.1-6.29-3.03-1.8-5.92-3.83-8.86-5.77-1.55-1.02-3.27-1.79-4.68-3.03-1.05-.92-2.2-1.74-3.2-2.71-2.45-2.4-5.06-4.65-7.29-7.27-.47-.55-1.07-.92-1.64-1.3-3.15-2.11-5.71-5-9.07-6.84-1.81-.99-3.66-1.86-5.57-2.6-1.74-.68-3.3-1.65-4.83-2.68-.25-.17-.51-.37-.68-.61-.78-1.12-1.52-2.26-2.42-3.59,2.39,.94,4.58,1.77,6.51,3.16,.96,.69,1.93,1.37,2.95,1.96,1.75,1.01,3.37,2.18,4.86,3.53,1.64,1.48,3.33,2.91,5.02,4.33,1.26,1.06,2.49,2.11,3.96,2.9,1.08,.58,1.99,1.43,2.81,2.36,2.05,2.31,4.19,4.58,6.83,6.17,2.14,1.28,4.03,3.05,6.55,3.67,.74,.18,1.38,.59,2.02,.99,1.91,1.19,3.95,2.1,6.09,2.77,2.18,.68,4.3,1.55,6.48,2.27,2.21,.73,4.42,1.7,6.22,3.28,.41,.37,.9,.33,1.33,.61,1.81,1.17,3.68,2.23,5.66,3.1,.5,.22,1.01,.48,1.39,.92l.14,.14c-.47,.06-.95,.11-1.42,.15-2.35,.19-4.7,.32-7.05,.42m300.94-.11c.57-.83,.93-1.82,1.56-2.6,2.42-3.04,4.88-6.04,7.75-8.7,3.54-3.28,7.13-6.52,10.3-10.18,2.89-3.34,5.89-6.58,9.27-9.45,.7-.6,1.42-1.21,2.29-1.5,1.08-.36,2.02-.93,3.12-1.83-.47,1.39-.83,2.57-1.56,3.45-1.73,2.07-3.38,4.21-5.2,6.21-1.74,1.91-3.95,3.22-5.88,4.88-2.26,1.94-4.38,4.01-6.32,6.23-3.79,4.33-7.23,8.98-11.33,13.05l-.17,.19c-1.27,.1-2.55,.18-3.82,.26m-322.79,0c-1.28-.07-2.55-.16-3.82-.26l-.17-.19c-4.1-4.07-7.54-8.71-11.33-13.05-1.94-2.22-4.06-4.29-6.32-6.23-1.93-1.66-4.15-2.96-5.88-4.88-1.82-2-3.46-4.14-5.2-6.21-.73-.88-1.09-2.07-1.56-3.45,1.1,.9,2.04,1.47,3.12,1.83,.87,.29,1.59,.9,2.29,1.5,3.37,2.87,6.37,6.11,9.27,9.45,3.17,3.66,6.76,6.9,10.3,10.18,2.87,2.66,5.33,5.66,7.75,8.7,.62,.78,.99,1.77,1.56,2.6m321.66-.21s-.05-.02-.07-.02c-1.22-.41-2.5-.33-3.76-.39-2.03-.09-4.07-.16-5.83-1.44-.35-.26-.71-.49-1.07-.72-.26-.16-.51-.3-.8-.47,1.88-.99,3.73-2.02,5.5-3.21,2.86-1.94,5.71-3.91,8.67-5.67,2.4-1.43,4.61-3.06,6.52-5.06,4.43-4.66,9.19-8.93,14.21-12.93,1.31-1.04,2.69-2,4.21-2.7,2.82-1.3,5.75-2.34,8.59-4.26-.16,.53-.16,.85-.28,.9-1.2,.54-1.83,1.8-3.13,2.28-1.77,.66-3.3,1.81-4.68,3.11-3.33,3.13-6.42,6.48-9.43,9.92-1.52,1.73-3.16,3.36-4.88,4.9-3.52,3.15-6.87,6.45-9.86,10.1-1.38,1.68-2.64,3.43-3.69,5.35-.06,.1-.14,.21-.23,.31m27.22-.14c-.51,0-1.04-.09-1.58-.27-1.26-.42-2.59-.63-3.9-.88-1-.19-2-.29-3.01-.29-.83,0-1.66,.07-2.5,.2-3.13,.51-6.28,.89-9.43,1.18,.44-.51,.86-1.03,1.32-1.52,2.8-2.92,5.26-6.14,7.85-9.25,2.87-3.44,5.95-6.66,9.54-9.33,1.78-1.33,3.41-2.78,4.92-4.4,1.26-1.35,2.28-2.89,3.48-4.28,1.3-1.52,2.09-3.21,2.52-5.14,.92-4.12,3.39-7.31,6.27-10.24,.48-.49,1.22-.69,1.58-1.38,.4,0,.8,0,1.19,.03,1.53,.06,2.93,.45,4.12,1.47,1.84,1.56,4,2.45,6.35,2.98,5.36,1.19,10.71,2.44,16.07,3.65,1.3,.29,2.61,.55,3.92,.82,.88,.18,1.64,.55,2.2,1.3,.52,.71,1.23,1.24,1.96,1.73,3.72,2.5,7.18,5.33,10.48,8.36,1.71,1.56,3.59,2.91,5.79,3.74,.82,.31,1.64,.58,2.52,.68,1.71,.18,3.36,.58,5,1.03v1.39s-.08,0-.12,0c-1.36,0-2.71,.27-4.03,.93-.82,.41-1.74,.62-2.61,.92-.34,.11-.68,.17-1.02,.17-.26,0-.53-.03-.8-.1-.57-.15-1.13-.22-1.69-.22-.96,0-1.91,.21-2.85,.57-1.43,.56-2.87,1.11-4.28,1.73-1.58,.69-3.17,1.26-4.91,1.26-.24,0-.49-.01-.74-.03-.64-.06-1.28-.07-1.92-.07-.12,0-.24,0-.36,0h-.37c-.4,0-.8,0-1.2-.02-.06,0-.11,0-.17,0-.83,0-1.48,.28-1.91,1.04-.8,1.44-2.1,2.21-3.59,2.74-2.13,.77-4.27,1.47-6.5,1.89-.51,.1-1.02,.18-1.53,.18-.25,0-.51-.02-.77-.07-.18-.03-.36-.05-.54-.05-.59,0-1.17,.16-1.74,.31-.69,.18-1.38,.41-2.07,.61-.92,.27-1.84,.41-2.75,.41-1.15,0-2.29-.23-3.42-.75-1.84-.84-3.75-1.35-5.79-1.35-.11,0-.21,0-.32,0-2.11,.06-4.12,.5-5.79,1.8-3.15,2.46-6.87,3.88-10.32,5.8-.82,.46-1.67,.72-2.57,.72m-374.97,0c-.9,0-1.75-.26-2.57-.72-3.45-1.92-7.16-3.34-10.32-5.8-1.67-1.3-3.68-1.74-5.79-1.8-.11,0-.22,0-.32,0-2.04,0-3.95,.52-5.79,1.35-1.13,.51-2.27,.75-3.42,.75-.91,0-1.82-.15-2.75-.41-.69-.2-1.37-.43-2.07-.61-.57-.15-1.15-.31-1.74-.31-.18,0-.36,.02-.54,.05-.26,.05-.51,.07-.77,.07-.51,0-1.02-.08-1.53-.18-2.23-.42-4.37-1.12-6.5-1.89-1.49-.54-2.79-1.31-3.59-2.74-.18-.33-.42-.55-.69-.71v-23.76c1.2-.24,2.39-.48,3.58-.74,5.36-1.21,10.71-2.46,16.07-3.65,2.35-.52,4.51-1.41,6.35-2.98,1.2-1.02,2.59-1.41,4.12-1.47,.4-.02,.8-.02,1.2-.03,.36,.7,1.1,.89,1.58,1.38,2.88,2.93,5.35,6.12,6.27,10.24,.43,1.93,1.23,3.62,2.52,5.14,1.19,1.4,2.22,2.94,3.47,4.28,1.51,1.61,3.14,3.07,4.92,4.4,3.59,2.68,6.67,5.89,9.54,9.33,2.59,3.1,5.05,6.33,7.85,9.25,.46,.48,.88,1.01,1.32,1.52-3.15-.29-6.3-.67-9.43-1.18-.84-.14-1.67-.2-2.5-.2-1.01,0-2.01,.1-3.01,.29-1.31,.25-2.65,.46-3.9,.88-.54,.18-1.07,.27-1.58,.27m58.79-.44h-.03c-2.32-.61-4.19-2.08-6.26-3.17-2.02-1.07-3.95-2.29-5.89-3.47-1.42-.86-2.93-1.58-4.52-2.04-5.99-1.72-11.62-4.32-17.07-7.28-3.88-2.11-7.5-4.68-10.28-8.22,1.21,.84,2.44,1.63,3.7,2.4,1.11,.67,2.1,1.45,3.02,2.36,4.33,4.27,9.73,6.41,15.56,7.54,1.72,.33,3.43,.64,5.04,1.33,3.02,1.29,6.14,2.33,9.26,3.35,6.99,2.29,5.1,1.15,11.12,6.22,.12,.1,.21,.22,.59,.61-1.49,.01-2.88,.18-4.24,.37m276.34-3.08c-.8-.42-1.63-.8-2.49-1.13-.23-.09-.52-.22-.83-.38-.71-.41-1.31-.97-1.68-1.77l-.04-.07c1.03-.52,2.12-.93,3.2-1.29,2.17-.72,4.29-1.58,6.48-2.27,2.14-.67,4.19-1.58,6.09-2.77,.64-.4,1.28-.8,2.02-.99,2.52-.62,4.41-2.39,6.55-3.67,2.64-1.59,4.78-3.86,6.83-6.17,.82-.93,1.73-1.78,2.81-2.36,1.47-.78,2.71-1.84,3.96-2.9,1.69-1.42,3.38-2.85,5.02-4.33,1.49-1.34,3.11-2.52,4.86-3.53,1.02-.59,1.99-1.27,2.95-1.96,1.93-1.39,4.12-2.21,6.51-3.16-.89,1.33-1.64,2.47-2.42,3.59-.17,.24-.43,.44-.68,.61-1.54,1.03-3.09,2.01-4.83,2.68-1.91,.75-3.77,1.61-5.57,2.6-3.36,1.84-5.92,4.73-9.07,6.84-.57,.38-1.18,.76-1.64,1.3-2.23,2.62-4.84,4.87-7.29,7.27-1,.98-2.15,1.79-3.2,2.71-1.41,1.24-3.13,2.01-4.68,3.03-2.94,1.94-5.83,3.97-8.86,5.77-1.32,.79-2.65,1.56-4,2.31m-5.79-4.12l-.17-.1c-.61-.34-1.27-.51-1.94-.64-.06-.02-.13-.04-.19-.05-.21-.06-.38-.11-.54-.16,2.16-.73,4.31-1.51,6.41-2.41,1.62-.69,3.32-1,5.04-1.33,5.84-1.13,11.23-3.27,15.56-7.54,.92-.91,1.92-1.69,3.02-2.36,1.26-.76,2.49-1.56,3.7-2.4-2.78,3.53-6.4,6.11-10.28,8.22-5.45,2.96-11.07,5.56-17.07,7.28-1.24,.36-2.42,.87-3.56,1.48m121.45-14.24c-.87-.19-1.76-.35-2.65-.49,.14-.17,.29-.35,.44-.52,.93-1.06,1.95-1.93,3.06-2.62v2.85c-.29,.25-.55,.53-.84,.78m-3.8-.67c-1.28-.22-2.51-.61-3.69-1.32,.86-.38,1.63-.8,2.45-1.06,2.15-.68,4.04-1.83,5.89-3.05v1.27c-.34,.18-.67,.36-1,.58-1.43,.97-2.74,2.09-3.65,3.59m-70.86-14.81c.29-.36,.56-.74,.82-1.13,2.53-3.92,6.27-5.95,10.75-6.76,1.14-.21,2.29-.3,3.45-.33-.33,.1-.63,.26-.94,.4-.8,.38-1.38,1.07-2.23,1.45-1.3,.57-2.63,1.08-3.94,1.64-2.76,1.19-5.09,3.09-7.66,4.59l-.25,.15m-377.28,0l-.25-.15c-2.57-1.5-4.9-3.4-7.66-4.59-1.31-.56-2.64-1.07-3.94-1.64-.84-.37-1.42-1.06-2.23-1.45-.31-.15-.62-.31-.94-.4,1.16,.03,2.31,.12,3.45,.33,4.48,.81,8.22,2.84,10.75,6.76,.26,.4,.53,.77,.82,1.13"/><path class="cls-3" d="M396.11,70.4l-.06-.02c-1.22-.41-2.5-.33-3.76-.39-2.03-.09-4.07-.16-5.83-1.44-.6-.44-1.23-.83-1.87-1.21,0,0,0,0,0,0,.28,.17,.54,.31,.8,.47,.36,.23,.72,.47,1.07,.72,1.75,1.28,3.8,1.35,5.83,1.44,1.27,.06,2.54-.03,3.76,.39,.02,0,.05,.02,.07,.02,0,0,0,0,0,.01m-12.62-3.66c-.8-.41-1.62-.79-2.47-1.12-.29-.11-.57-.24-.83-.39,.31,.16,.6,.29,.83,.38,.85,.33,1.68,.71,2.49,1.13,0,0,0,0-.01,0m-7.88-4.87c-.29-.06-.58-.1-.87-.16,.05-.02,.1-.03,.14-.05,.15,.04,.33,.09,.54,.16,.06,.02,.13,.03,.19,.05"/><path class="cls-1" d="M426.57,71.1c1.33-.82,2.54-1.47,3.84-1.97,2.03-.78,3.9-1.86,5.61-3.19,3.39-2.63,7.04-2.94,10.87-1.25,2.94,1.29,5.86,1.33,8.85,.33,1.18-.39,2.35-.66,3.62-.53,.7,.07,1.44-.04,2.14-.18,2.22-.45,4.38-1.12,6.49-1.91,1.71-.64,3.29-1.48,4.26-3.12,.3-.51,.72-.65,1.3-.57,1.64,.24,3.29,.07,4.93,.12,1.36,.04,2.61-.53,3.85-1.01,1.62-.63,3.22-1.35,4.84-1.98,1.25-.49,2.51-.79,3.9-.41,.99,.28,2.04,.18,3.03-.2,1.01-.38,2.06-.66,3.03-1.12,.93-.44,1.89-.63,2.85-.6v-1.7c-1.41-.02-2.79,.25-4.15,.93-.82,.41-1.74,.62-2.61,.92-.6,.2-1.2,.23-1.82,.07-1.55-.4-3.06-.22-4.54,.35-1.43,.56-2.87,1.12-4.28,1.73-1.8,.79-3.62,1.42-5.65,1.23-1.28-.12-2.57-.03-3.85-.09-.91-.04-1.63,.23-2.08,1.04-.8,1.44-2.1,2.21-3.59,2.74-2.13,.77-4.27,1.47-6.5,1.89-.77,.14-1.52,.25-2.29,.11-.78-.14-1.54,.07-2.28,.26-.69,.18-1.38,.41-2.07,.61-2.09,.61-4.14,.59-6.17-.33-1.94-.88-3.95-1.41-6.11-1.35-2.11,.06-4.12,.49-5.79,1.8-3.15,2.46-6.87,3.88-10.32,5.8-1.29,.72-2.65,.96-4.15,.45-1.26-.42-2.59-.63-3.9-.88-1.83-.36-3.65-.39-5.51-.09-2,.32-4.01,.59-6.01,.82-.97-.14-1.95-.21-2.94-.2,.28-.33,.55-.65,.85-.96,2.8-2.92,5.26-6.15,7.85-9.25,2.88-3.45,5.95-6.66,9.54-9.33,1.78-1.33,3.41-2.78,4.92-4.4,1.26-1.34,2.28-2.89,3.48-4.28,1.3-1.52,2.09-3.21,2.52-5.14,.92-4.12,3.39-7.31,6.27-10.24,.48-.49,1.22-.68,1.58-1.38,.4,0,.8,.01,1.19,.03,1.53,.06,2.92,.45,4.12,1.47,1.84,1.56,4,2.45,6.35,2.98,5.36,1.19,10.71,2.44,16.07,3.65,1.3,.29,2.61,.55,3.92,.82,.88,.18,1.64,.55,2.2,1.3,.52,.71,1.23,1.24,1.96,1.73,3.72,2.5,7.18,5.33,10.48,8.36,1.71,1.56,3.59,2.91,5.79,3.74,.82,.31,1.64,.58,2.52,.68,1.71,.18,3.36,.58,5,1.03v-2.84c-.29,.25-.55,.53-.84,.78-.87-.19-1.76-.35-2.65-.49,.14-.17,.29-.35,.44-.52,.93-1.06,1.95-1.93,3.06-2.62v-1.21c-.34,.18-.67,.36-1,.58-1.43,.97-2.74,2.09-3.65,3.59-1.28-.22-2.51-.61-3.69-1.32,.86-.38,1.63-.8,2.45-1.06,2.15-.68,4.04-1.83,5.89-3.05v-2.07c-.19,.13-.39,.25-.57,.38-1.49,1.09-3.1,1.97-4.78,2.69,.79-.77,1.66-1.46,2.56-2.12,.66-.48,1.36-.92,1.93-1.5,.28-.29,.57-.57,.86-.85v-1.64c-1.36,1.38-2.69,2.78-4.29,3.88-1.1,.76-2,1.71-2.89,2.68-.13,.14-.28,.26-.4,.41-.14,.05-.27,.09-.41,.14-1,.33-2.06,.42-3.04,.07,1.53-2.84,3.72-5.22,5.86-7.61,1.69-1.9,3.44-3.74,5.17-5.59v-1.58c-2.53,2.62-5.05,5.24-7.4,8.02-1.68,1.98-3.32,3.98-4.61,6.25-.17-.12-.34-.26-.51-.42-.73-.71-1.48-1.4-2.25-2.07,.38-.38,.75-.77,1.07-1.19,2.6-3.5,5.33-6.87,8.47-9.92,1.18-1.14,2.29-2.35,3.38-3.59,.6-.68,1.22-1.34,1.84-2v-1.68c-.45,.46-.91,.91-1.34,1.39-2.04,2.29-3.98,4.68-6.25,6.75-2.19,2-3.96,4.38-5.66,6.78-.7,.99-1.57,1.82-2.28,2.79-.79-.68-1.6-1.34-2.42-1.98,2.01-2.54,4.09-5.04,6.09-7.59,2.07-2.64,4.35-5.02,7.2-6.84,.98-.63,2.02-1.25,2.83-2.08,.62-.63,1.22-1.27,1.83-1.9v-1.56l-.12,.13c-1.52,1.84-3.32,3.31-5.31,4.61-1.54,1.01-3.05,2.09-4.31,3.46-3.24,3.52-6.04,7.41-9.09,11.09-.91-.68-1.83-1.35-2.77-1.98-.29-.2-.64-.35-.82-.8,1.5-.86,2.35-2.33,3.32-3.7,.71-1.01,1.47-1.98,2.25-2.93,1.3-1.6,2.57-3.2,3.65-4.97,1.2-1.96,2.83-3.52,4.67-4.86,1.21-.88,2.37-1.81,3.37-2.92,.65-.73,1.44-1.14,2.43-1.13,1.04,0,1.93-.26,2.72-.73v-2.46c-.86,.87-1.8,1.59-3.28,1.49-1.17-.08-2.21,.46-2.98,1.45-1.15,1.48-2.84,2.36-4.26,3.53-1.27,1.05-2.46,2.11-3.42,3.43-.83,1.14-1.61,2.32-2.44,3.47-1.76,2.43-3.85,4.6-5.42,7.17-.42,.68-1.09,1.15-1.79,1.59-.45,.28-.66,.32-1-.08-.75-.89-1.72-1.34-2.87-1.59-3.59-.77-7.14-1.68-10.73-2.43-2.35-.49-4.64-1.19-7-1.61-3.21-.57-6.31-1.43-8.86-3.72-.93-.84-2.23-1.14-3.54-1.22-2.58-.17-5.15-.11-7.68,.43-4.43,.95-8.2,3.05-10.78,6.87-.84,1.24-1.73,2.42-2.89,3.33-2.32,1.82-4.7,3.58-7.09,5.31-.46,.34-.64,1.12-1.17,1.24-5.1,4.98-8.68,5.53-10.22,7.12-2.02,2.06-4.14,4.02-6.73,5.44-3.27,1.79-6.75,3.01-10.42,3.57-1.44,.22-2.83,.52-4.16,1.08-2.82,1.18-5.68,2.22-8.58,3.17-.93-.04-1.86-.03-2.8-.03-2.2,0-4.4-.03-6.6-.02-.52,0-3.1,.14-4.11,.24-1.23,.12-2.43,.17-3.68-.1-2.11-.45-4-1.33-5.81-2.44-.85-.52-1.68-1.11-2.21-1.96-.67-1.06-3.3-2.38-3.7-2.88-.82-1.03-1.85-1.84-3.03-2.42-1.48-.73-2.8-1.7-3.9-2.91-1.28-1.41-2.77-2.5-4.44-3.36-1.11-.57-2.27-1.05-3.42-1.53-1.05-.44-1.91-.43-2.92-.12-1.64,.51-3.33,.35-4.93-.03-2.01-.48-4.01-1.08-5.94-1.85-1.67-.67-3.34-1.33-5.01-1.99-1.42-.56-2.89-.96-4.34-1.4-1.43-.44-2.88-.3-4.32-.05-.63,.11-1.3,.37-1.66,.93-.41,.64-1.02,.91-1.66,1.2-.71,.32-1.46,.58-2.05,1.12-1.16,1.06-2.48,1.89-3.88,2.6-.25,.13-.47,.3-.66,.51-.43,.48-.95,.84-1.53,1.09-1.42,.61-2.76,1.33-3.59,2.72-.06,.11-.22,.17-.34,.25-1.02,.69-2.18,.89-3.33,.61-.73-.18-1.48-.32-2.21-.51-.73-.2-1.44-.09-2.19,.35-1.62,.96-3.35,1.73-5.03,2.58-.15,.08-.35,.16-.43,.29-.33,.61-.94,.92-1.41,1.37-.87,.83-1.84,1.31-3.02,1.45-.39,.04-.8,.09-1.14,.26-.27,.14-.46,.09-.73,.07-1.38-.09-2.74-.35-4.11-.52-1.13-.14-2.08,.15-2.81,1.11-1.06,1.39-2.51,2.28-4.08,2.98-.84,.38-1.7,.72-2.54,1.08-.49,.21-.98,.42-1.38,.79-.86,.78-1.87,1.27-2.95,1.66-1.37,.49-2.76,.91-4.09,1.48-1.85,.79-3.75,1.27-5.77,1.3-.79,.01-2.87,.53-4.37,.93-.32-.08-.62-.16-.86-.21-.78-.16-2.97-.83-5.59-1.69-3.1-1.39-5.88-2.82-7.13-3.66-2.45-1.63-4.94-3.58-7.85-5.2-1.84-1-4.22-3.71-13.6-.9-2.39,.65-4.67,1.61-7.1,2.15-1.78,.4-3.41,.15-5.07-.57-2.51-1.09-5.04-2.11-7.72-2.72-2.14-.49-4.33-.7-6.41-.07-3.41,1.03-6.29,.12-9.02-1.85-1.4-1-2.85-1.94-4.21-2.99-.44-.34-.83-.77-1.07-1.41-.41-1.12-1.04-2.19-1.75-3.15-1.09-1.46-1.93-3.04-2.76-4.64-.34-.66-.77-1.27-1.35-1.64-.89-.56-1.61-1.26-2.15-2.09-1.83-2.83-4.59-4.29-7.62-5.38-1.78-.64-3.51-1.35-5.17-2.28-1.24-.7-1.97-1.72-2.29-2.99-.43-1.68-1.4-2.71-2.92-3.51-1.34-.7-2.68-1.47-4.04-2.1-1.37-.63-1.9-1.73-2.02-2.88-.23-2.17-1.36-3.69-2.82-5.11-2.06-2-4.55-2.85-7.38-2.82-1.2,.02-2.31,.42-3.36,.93-.88,.43-1.53,.41-2.31-.31-1.01-.93-2.22-1.63-3.32-2.47-1.17-.9-2.47-1.45-3.93-1.6-1.64-.16-2.82-.86-3.92-2.22-1.18-1.46-2.89-2.51-5.06-1.8-.66,.21-1.23,.5-1.66,1.03-1.38,1.72-2.76,3.43-4.32,5-.31,.31-.67,.74-.71,1.15-.23,2.15-2.02,2.88-3.43,3.98-1.08,.85-2.18,1.69-3.24,2.56-1.24,1.02-1.83,2.34-2.13,3.94-.75,4.02-2.21,7.79-4.69,11.1-.81,1.09-1.71,1.96-3.29,1.94-1.32-.01-2.61,.42-3.79,1.09-.99,.56-2.05,1.1-2.43,2.22-.67,1.99-2.25,3.09-3.78,4.27-.16,.12-.36,.2-.51,.32-.56,.44-.94,1.23-1.63,1.36-.75,.13-.9-.85-1.43-1.24-2.39-1.73-4.77-3.48-7.09-5.31-1.16-.91-2.05-2.08-2.89-3.33-2.59-3.82-6.36-5.92-10.79-6.87-2.52-.54-5.1-.59-7.68-.43-1.31,.08-2.61,.39-3.54,1.22-2.55,2.28-5.65,3.14-8.86,3.72-2.37,.42-4.66,1.12-7,1.61-3.32,.69-6.61,1.51-9.92,2.24v1.71c1.2-.24,2.39-.48,3.58-.74,5.36-1.21,10.71-2.46,16.07-3.65,2.35-.52,4.51-1.41,6.35-2.98,1.2-1.02,2.59-1.41,4.12-1.47,.4-.02,.8-.02,1.2-.03,.36,.7,1.1,.89,1.58,1.38,2.88,2.93,5.35,6.12,6.27,10.24,.43,1.93,1.23,3.62,2.52,5.14,1.19,1.4,2.22,2.94,3.47,4.28,1.51,1.61,3.14,3.07,4.92,4.4,3.59,2.68,6.67,5.89,9.54,9.33,2.59,3.1,5.05,6.32,7.85,9.25,.46,.48,.88,1.01,1.32,1.52-3.15-.28-6.3-.67-9.43-1.18-1.86-.3-3.68-.27-5.51,.09-1.31,.25-2.65,.46-3.9,.88-1.5,.5-2.86,.27-4.15-.45-3.45-1.92-7.16-3.34-10.32-5.8-1.67-1.3-3.68-1.74-5.79-1.8-2.16-.06-4.18,.47-6.11,1.35-2.02,.92-4.07,.94-6.17,.33-.69-.2-1.37-.43-2.07-.61-.74-.19-1.5-.4-2.28-.26-.78,.14-1.53,.04-2.29-.11-2.23-.42-4.37-1.12-6.5-1.89-1.49-.54-2.79-1.31-3.59-2.74-.18-.33-.42-.55-.69-.71v2.71c.97,1.17,2.29,1.88,3.72,2.41,2.12,.79,4.28,1.46,6.49,1.91,.7,.14,1.44,.26,2.14,.18,1.27-.14,2.44,.13,3.62,.53,2.99,1,5.92,.96,8.85-.33,3.83-1.69,7.48-1.38,10.87,1.25,1.71,1.33,3.58,2.41,5.61,3.19,1.3,.5,2.5,1.15,3.84,1.97-.75,.36-1.37,.29-1.97,.25-2.77-.2-5.54-.41-8.3-.64-3.96-.33-7.92-.53-11.83,.27-2.72,.56-5.46,.99-8.2,1.41-1.09,.17-2.12,.45-3.03,1.04-1.56,1.02-3.3,1.38-5.12,1.44-2.25,.08-4.47,.4-6.68,.8v1.77c2.97-.46,5.95-.83,8.95-1.05,.92-.07,1.84-.36,2.61-.88,1.87-1.25,4-1.52,6.14-1.82,1.42-.2,2.85-.41,4.25-.73,3.13-.71,6.3-.97,9.49-.77,3.08,.2,6.15,.44,9.22,.74,2.64,.25,5.22,.23,7.75-.72,1.05-.4,2.16-.65,3.26-.89,2.41-.52,4.81-1.04,7.32-.64,2.64,.42,5.28,.83,7.94,1.08,11.13,1.04,22.28,1.06,33.43,.48,1.28-.07,2.57-.09,3.84-.3,1.37-.23,2.75-.37,4.12-.58,1.43-.22,2.92-.37,4.29-.06,1.35,.31,2.69,.22,4.02,.44,1.42,.23,2.86,.34,4.29,.43,3.88,.22,7.73,.69,11.52,1.63-.11,.42-.46,.4-.74,.48-1.33,.4-2.66,.78-3.97,1.22-1.29,.42-2.46,1.06-3.38,2.08-1,1.11-2.24,1.77-3.69,2.09-.9,.2-1.81,.38-2.71,.58-1.14,.25-2.1,.77-2.8,1.76-.79,1.12-1.89,1.87-3.11,2.45-2.44,1.16-5.05,1.69-7.68,2.16-2.49,.44-4.79,.09-6.86-1.49-.91-.69-2.04-.94-3.19-1.02-4.36-.32-8.73-.23-13.1-.25-3.06-.02-6.03,.48-8.91,1.53-2.32,.85-4.69,1.51-7.05,2.2-4.15,1.2-8.22,2.63-11.85,5.06-2.59,1.73-5.41,2.66-8.53,2.75-1.43,.04-2.9,.1-4.21,.78-1.75,.9-3.53,.88-5.39,.39-3.22-.86-6.46-1.65-9.7-2.47-2.78-.7-5.36-1.83-7.56-3.67-4.06-3.4-8.91-4.76-13.96-5.66-1.34-.24-2.7-.27-4.06-.27v1.89c2.93,0,5.72,.57,8.51,1.37,2.18,.62,4.28,1.37,6.16,2.64,1.98,1.33,3.84,2.81,5.94,3.98,.95,.53,1.93,.73,2.91,1.02,4.1,1.2,8.21,2.36,12.4,3.22,1.73,.36,3.52,.41,5.15-.58,1.17-.72,2.49-.72,3.8-.81,2.68-.18,5.36-.46,7.76-1.87,.68-.4,1.32-.89,1.95-1.37,.9-.68,2.05-1.03,3.09-1.51,2.83-1.31,5.77-2.3,8.76-3.16,2.42-.69,4.88-1.27,7.18-2.32,2.34-1.07,4.8-1.25,7.29-1.25,3.44,0,6.89,.07,10.33,.04,2.41-.02,4.67,.32,6.66,1.82,.94,.71,2.09,.94,3.25,.98,2.52,.09,4.99-.3,7.42-.94,.75-.2,1.52-.34,2.27-.58,2.11-.68,3.87-1.83,5.22-3.61,.73-.96,1.94-1.15,2.98-1.6,.6-.26,1.29-.38,1.95-.4,1.69-.06,2.97-.92,4.08-2.05,.98-1,2.12-1.72,3.43-2.14,2.18-.69,4.44-1.18,6.55-2.06,.99-.41,1.79-.42,2.72-.19,5.05,1.27,10.22,1.67,15.38,2.19,5.67,.58,11.28,.09,16.92-.28,2.21-.15,4.22-.84,6.16-1.71,3.37-1.51,6.69-3.17,10.09-4.61,.14-.06,.3-.12,.38-.23,1.18-.73,1.67-.66,2.46-.28,2.03,.97,4.26,1.38,6.32,2.28,1.11,.48,2.46,.26,3.71-.12,1.37-.42,2.7-1.04,4.06-1.4,2.76-.74,5.63-1.3,8.51-.45,2.38,.71,4.3,1.28,7.08,1.45,1.98,.17,3.48-.27,5.13-.53,1.91-.3,4.84-1.77,6.94-2.61,1.62-.7,3.5-1.51,3.71-1.45,1.5-.4,3.58-.92,4.37-.93,2.02-.04,3.91-.51,5.77-1.3,1.33-.57,2.73-.99,4.09-1.48,1.07-.39,2.09-.88,2.95-1.66,.4-.36,.89-.58,1.38-.79,.85-.36,1.7-.7,2.54-1.08,1.57-.7,3.55-1.49,4.6-2.88,.73-.96,1.68-1.25,2.81-1.11,1.37,.17,2.21,.33,3.59,.42,.27,.02,.45,.07,.73-.07,.34-.17,.75-.21,1.14-.26,1.18-.13,2.15-.62,3.02-1.45,.47-.45,1.08-.76,1.41-1.37,.07-.14,.27-.22,.42-.29,1.68-.85,3.42-1.62,5.03-2.58,.75-.45,1.46-.55,2.19-.35,.73,.2,1.48,.34,2.21,.52,1.16,.28,2.64,.07,3.66-.62,.12-.08,.27-.13,.34-.25,.83-1.4,2.16-2.11,3.59-2.72,.58-.25,1.1-.61,1.53-1.09,.19-.21,.4-.39,.66-.51,1.4-.7,2.72-1.53,3.88-2.6,.59-.54,1.34-.8,2.05-1.12,.64-.29,1.24-.56,1.66-1.2,.36-.56,1.03-.82,1.66-.93,1.43-.25,2.56-.38,3.99,.05,1.45,.44,2.92,.84,4.34,1.4,1.67,.66,3.34,1.32,5.01,1.99,1.93,.77,3.93,1.37,5.94,1.85,1.6,.38,3.29,.54,4.93,.03,1-.32,1.86-.32,2.92,.12,1.16,.48,1.94,.88,3.05,1.45,1.67,.85,3.16,1.95,4.44,3.36,1.1,1.21,2.42,2.18,3.9,2.91,1.18,.58,1.95,1.49,2.78,2.52,.4,.5,3.04,1.82,3.7,2.88,.53,.85,1.74,1.53,2.59,2.05,1.81,1.11,3.95,1.89,6.06,2.34,1.25,.27,2.44,.22,3.68,.1,1.01-.1,3.58-.24,4.11-.24,2.2,0,4.4,.03,6.6,.02,.93,0,1.87-.02,2.8,.02,1.65,.03,1.77,.08,2.73,.36,1.42,.34,2.61,1.87,2.61,1.87,.53,.72,2.15,1.58,3,1.91,1.14,.45,2.24,.97,3.29,1.57,.4,.26,.74,.43,1.08,.65,.36,.23,.72,.47,1.07,.72,1.75,1.28,3.8,1.35,5.83,1.44,1.27,.05,2.54-.03,3.76,.39,.19,.06,.38,.11,.56,.16,.52,.14,.68,.19,1.1,.2,1.31,.15,2.64,.01,3.95-.11,1.7-.12,3.28,.27,5.49-.01,2.01-.23,3.18-.37,5.18-.7,1.86-.3,3.69-.26,5.51,.09,1.31,.25,2.65,.46,3.9,.88,1.5,.51,4.16,1.43,6.78,1.37,2.77-.2,5.54-.41,8.3-.64,3.96-.33,7.92-.54,11.83,.27,2.72,.56,5.46,.99,8.2,1.41,1.09,.17,2.12,.45,3.03,1.05,1.56,1.02,3.3,1.38,5.12,1.44,2.37,.08,4.7,.43,7.03,.86,3.01,.56,6.02,.64,9.05,.17,2.65-.41,5.2-1.23,7.81-1.77,3.39-.69,6.8-1.15,10.23-.26,.27,.07,.56,.12,.84,.17v-1.89c-.28-.05-.56-.1-.84-.17-3.44-.89-6.85-.43-10.23,.26-2.61,.53-5.16,1.36-7.81,1.77-3.03,.47-6.05,.39-9.05-.17-2.33-.43-4.66-.78-7.03-.86-1.82-.06-3.56-.42-5.12-1.44-.92-.6-1.95-.88-3.03-1.04-2.74-.42-5.48-.85-8.2-1.41-3.91-.81-7.88-.6-11.83-.27-2.77,.23-5.53,.44-8.3,.64-.6,.04-1.22,.11-1.97-.25h0Zm-247.17,.6c-4.45-2.26-9.1-3.98-13.89-5.34-5.02-1.43-10.06-2.79-15.09-4.18-2.71-.75-5.45-1.38-8.1-2.34-2.34-.85-4.49-1.96-6.41-3.55-2.02-1.67-4.39-2.74-6.73-3.86-1.7-.81-3.28-1.79-4.56-3.16-1.8-1.92-3.99-3.28-6.26-4.51-.94-.51-1.81-1.11-2.7-1.67-1.7-1.07-3.47-1.25-5.35-.96-.79,.12-1.4,.06-2.09-.46-.67-.49-1.39-.78-2.15-.94,.12-.05,.24-.11,.36-.17,2.76-1.38,5.53-1.37,8.13,.47,1.1,.78,2.22,1.47,3.55,1.79,.49,.12,.94,.4,1.41,.6,3.23,1.41,5.92,3.66,8.76,5.66,.35,.24,.66,.4,1.08,.51,1.66,.41,3.18,1,4.25,2.51,1.34,1.9,3.21,3.15,5.44,3.84,1.13,.34,2.23,.77,3.36,1.11,6.61,2.04,13.34,3.71,19.71,6.5,2.68,1.18,5.49,2,8.38,2.54,2.57,.49,5.16,.89,7.63,1.8,1.98,.73,3.98,1.34,6.3,1.4-.39,.6-.88,.64-1.29,.8-1.1,.42-2.21,.81-3.26,1.37-.16,.09-.32,.17-.48,.25h0Zm-30.85-27.63l-.14,.02c-2.13,.36-4.24,.83-6.25,1.62l-.11,.04c-4.18-2.93-8.37-5.82-12.49-8.84-1.19-.87-2.22-2.01-3.14-3.17-2-2.52-4.54-4.4-7.18-6.11-1.21-.79-2.72-1.12-4.08-1.7-2.73-1.15-5.24-2.71-7.73-4.31-1.43-.92-2.87-1.8-4.07-3.03-.99-1.02-1.92-2.06-2.34-3.75,1.4,.84,2.49,1.73,3.74,2.18,1.58,.57,3.18,1.15,4.86,1.46,1.75,.32,3.48,.75,5.2,1.21,1.08,.29,2.01,.93,2.87,1.64,.87,.72,1.7,1.48,2.54,2.23,1.75,1.57,3.88,2.65,6,3.39,4.1,1.42,7.1,4.08,9.78,7.27,1.58,1.88,3.02,3.89,5.1,5.3,.33,.22,.62,.4,1.01,.55,1.43,.55,2.6,1.54,3.83,2.44,.82,.6,1.62,1.26,2.6,1.54h0Zm-3.75-3.67c-.34-.19-.59-.48-.98-.65-2.38-1.04-4.28-2.69-5.78-4.8-2.94-4.13-6.72-7.19-11.44-9.11-1.76-.72-3.53-1.46-5.09-2.63-1-.75-1.87-1.65-2.82-2.45-1.71-1.44-3.66-2.13-5.75-2.57-2.08-.44-4.17-.87-6.2-1.52-1.85-.6-3.55-1.51-5.08-2.69-.74-.57-1.29-1.31-1.65-2.29-.5-1.35-.68-2.82-1.34-4.18,.48,.32,.99,.6,1.45,.95,1.39,1.08,3,1.68,4.62,2.34,2.73,1.12,5.42,2.35,7.75,4.29,1.8,1.5,3.94,2.5,6.27,3.06,1.45,.35,2.64,1.27,3.86,2.05,.67,.43,1.45,.65,2.06,1.13,.96,.76,2.01,1.41,2.8,2.39,.67,.84,1.47,1.58,2.42,2.11,2.9,1.63,5.47,3.73,8.18,5.62,1.58,1.1,3.13,2.26,4.86,3.16,2.31,1.2,4.14,2.94,5.66,5.05,1.08,1.51,2.51,2.74,3.59,4.26-.82-.08-1.65-.08-2.47-.01,.06-.27-.1-.53-.32-.6-1.77-.61-3.01-2.04-4.6-2.92h0Zm-3.96,5.8c-.79,.27-1.59,.49-2.41,.66-2.03-1.07-3.81-2.53-5.75-3.75-2.08-1.3-4.03-2.81-6.08-4.16-1.39-.91-2.86-1.72-4.3-2.54-.65-.37-1.23-.8-1.75-1.34-1.67-1.72-3.32-3.46-5.22-4.93-1.76-1.37-3.62-2.56-5.86-3.02-1.48-.31-2.57-1.38-3.84-2.08-.4-.22-.58-.72-.6-1.16-.03-.37-.27-.74-.25-.97,.05-.53-.72-.96-.25-1.35,.4-.34,.71,.34,1.13,.45,1.74,.48,2.96,1.9,4.55,2.64,1.51,.7,2.82,1.71,4.48,2.21,2.8,.83,5.36,2.25,7.52,4.28,1.12,1.05,2.23,2.13,3.29,3.26,2,2.14,4.12,4.15,6.63,5.7,3.03,1.87,5.69,4.26,8.73,6.11h0Zm-4.15,.93c-.46,.04-.94,.07-1.41,.07-1.02,0-2.08,.09-3.06,.36-1.65,.46-3.03,.01-4.35-.9-.55-.38-1.09-.77-1.6-1.2-1.17-.98-2.44-1.8-3.77-2.52-1.25-.97-2.34-2.12-3.54-3.15-1.63-1.4-3.38-2.62-5.03-3.99-.82-.68-1.53-1.47-2.17-2.35-.66-.92-1.47-1.69-2.68-2.08-1.28-.42-2.45-1.19-3.63-1.88-.76-.44-1.05-2.61-.48-3.19,.09-.09,.29-.15,.42-.12,.19,.04,.39,.13,.55,.25,1.56,1.25,3.51,1.62,5.3,2.34,1.28,.52,2.4,1.36,3.43,2.26,1.39,1.22,2.85,2.36,4.1,3.73,1,1.1,2.06,2.12,3.4,2.82,3.47,1.79,6.54,4.19,9.77,6.36,1.59,1.07,3.18,2.13,4.77,3.19h0Zm-30.32-15.95c.95,.39,1.75,1.09,2.79,1.34,.72,.18,1.24,.79,1.6,1.38,1.15,1.89,2.88,3.17,4.6,4.43,1.24,.91,2.4,1.92,3.54,2.94l-.11-.05c-1.26-.5-2.4-1.11-3.52-1.84-1.22-.79-2.47-1.28-3.74-1.48-2.59-1.85-4.01-4.72-6.15-6.98,.49-.32,.7,.13,.99,.25h0Zm65.97,39.52c-2.78-1.02-5.69-1.48-8.6-1.96-3.21-.52-6.37-1.27-9.53-2.08-2.25-.57-4.55-.98-6.69-1.91-3.65-1.58-7.49-2.68-11-4.63-2.53-1.4-4.92-3.01-7.24-4.71-2.62-1.92-5.36-3.64-8.05-5.44-1.26-.84-2.54-1.67-3.78-2.55-1.37-.97-3.03-1.24-4.68-1.47-.42-.06-.94,.18-1.26-.3-.5-.75-1.02-1.48-1.47-2.26-.17-.29,.12-.45,.39-.49,1.72-.23,3.38,.02,4.78,1.04,1.28,.93,2.62,1.74,3.99,2.5,1.59,.88,2.98,2,4.23,3.25,1.39,1.39,3.04,2.39,4.58,3.55,.34,.26,.75,.47,1.17,.57,2.46,.6,4.39,2.13,6.34,3.59,1.48,1.11,2.98,2.29,4.72,2.82,2.06,.62,4.03,1.46,6.14,1.97,4.18,1,8.36,2,12.45,3.35,2.61,.86,5.31,1.48,7.95,2.26,1.95,.58,3.97,1.05,5.79,1.92,1.84,.89,3.86,1.42,5.57,2.58-.5,.23-1.01,.46-1.53,.67-1.32-.95-2.75-1.72-4.28-2.28h0Zm-7.74,3.03c-2.9-1.83-6.16-2.87-9.38-3.99-3.34-1.17-6.78-2.12-10-3.57-5.35-2.39-10.78-4.68-15.61-8.11-3.31-2.35-6.65-4.65-10.58-5.9-.54-.17-1.07-.48-1.61-.49-1.63-.03-2.59-1.03-3.51-2.17-.58-.72-1.18-1.41-1.64-2.2,.25-.46,.62-.26,.97-.24,1.15,.07,2.26,.41,3.18,1.06,4.27,3.04,8.85,5.61,13.04,8.78,2.09,1.59,4.32,2.95,6.62,4.22,2.32,1.28,4.76,2.29,7.31,3.03,.77,.22,1.47,.63,2.19,.95,4.21,1.89,8.74,2.55,13.15,3.67,3.59,.91,7.31,1.12,10.87,2.14,2.07,.59,4.12,1.28,5.9,2.54-.94,.37-1.89,.71-2.84,1.05-1.07,.38-2.17,.62-3.31,.71-.81,.06-1.61,.12-2.42,.17-.48-.94-1.56-1.15-2.33-1.64h0Zm-4,1.37c-1.62-1.47-3.52-2.46-5.57-3.18-3.01-1.06-6.13-1.71-9.21-2.51-1.61-.42-3.1-1.12-4.63-1.72-.14-.05-.27-.15-.41-.17-2-.25-3.2-1.75-4.58-2.96-2.11-1.84-4.55-3.16-6.97-4.5-2.47-1.37-4.99-2.65-7.46-4.01-1.57-.87-3.04-1.9-4.44-3.25,.44-.18,.72-.03,1.03,.07,3.92,1.26,7.22,3.64,10.59,5.9,2.12,1.42,4.32,2.7,6.55,3.95,1.92,1.08,4.05,1.69,5.9,2.88,1.43,.91,2.99,1.57,4.55,2.11,1.84,.63,3.7,1.24,5.56,1.83,2.55,.81,5.08,1.73,7.56,2.69,1.91,.74,3.89,1.5,5.6,2.77,.2,.15,.41,.32,.63,.46-1.43,.08-2.85,.14-4.27,.17-.09-.19-.23-.36-.42-.54h0Zm-8.77-1.03c-2.48-.94-4.98-1.84-7.55-2.56-1.79-.5-2.67-1.21-4.11-3.04,1.14,.45,2.08,.91,3.07,1.19,3.36,.95,6.76,1.75,10.09,2.79,2.27,.71,4.55,1.51,6.31,3.2-1.64,0-3.28-.03-4.93-.15-.83-.73-1.88-1.06-2.88-1.44h0Zm-5.98,.52c-.75-.56-1.27-1.34-1.82-2.18,1.47,.45,3.01,.75,4.39,1.39,1.19,.55,2.48,.91,3.68,1.47-.2-.02-.39-.04-.59-.07-1.88-.24-3.77-.39-5.65-.61h0Zm-36.76-9.46c-1.66-1.53-3.55-2.57-5.72-3.21-4.38-1.31-8.7-2.77-12.92-4.54-1.33-.56-2.72-.86-4.16-1.08-3.68-.56-7.15-1.78-10.42-3.57-2.59-1.41-4.71-3.38-6.73-5.44,.09-.23,.26-.21,.4-.2,3.06,.22,6.03-.45,9.02-.92,2.24-.35,4.45-.8,6.37-2.12,.41-.28,.94-.41,1.42-.57,1.27-.41,2.57-.73,3.82-1.2,3.56-1.32,7.19-1.66,10.9-.9,.79,.16,1.55,.19,2.3,.11l.23,.02c3.22-.36,5.14,1.48,6.51,4.04,1.57,2.93,3.65,5.4,6.1,7.62,1.66,1.51,3.43,3.01,5.37,3.97,1.95,.96,3.78,2.14,5.78,3.04,4.03,1.81,7.57,4.42,10.64,7.62,2.09,2.18,4.15,4.39,6.22,6.58-2.19-.31-4.35-.77-6.45-1.61-.18-.07-.41-.05-.61-.02-.58,.1-1.12-.06-1.67-.17-4.59-.87-9.14-1.93-13.85-2.07-2.2-.06-4.39-.48-6.59-.72-.64-.07-1.14-.33-1.61-.77-1.44-1.32-2.94-2.58-4.37-3.9h0Zm-1.95,4.66c-2.32-.6-4.19-2.07-6.26-3.16-2.02-1.07-3.95-2.29-5.89-3.47-1.42-.87-2.93-1.58-4.52-2.04-5.99-1.72-11.62-4.32-17.07-7.28-3.88-2.11-7.5-4.68-10.28-8.22,1.21,.83,2.44,1.63,3.7,2.39,1.11,.67,2.1,1.45,3.02,2.36,4.33,4.27,9.73,6.41,15.56,7.54,1.72,.33,3.43,.64,5.04,1.33,3.02,1.29,6.14,2.33,9.26,3.35,6.99,2.29,5.1,1.16,11.12,6.22,.12,.1,.21,.22,.59,.61-1.49,.01-2.88,.18-4.24,.37h-.03ZM40.18,36.34c1.1,.9,2.04,1.47,3.12,1.83,.87,.29,1.59,.9,2.29,1.5,3.37,2.87,6.37,6.11,9.27,9.45,3.17,3.66,6.76,6.9,10.3,10.18,2.87,2.66,5.33,5.66,7.75,8.7,.62,.78,.99,1.77,1.56,2.6-1.28-.07-2.55-.16-3.82-.25l-.17-.19c-4.1-4.07-7.54-8.71-11.33-13.05-1.94-2.22-4.06-4.29-6.32-6.23-1.93-1.66-4.15-2.96-5.88-4.88-1.82-2-3.46-4.14-5.2-6.21-.73-.88-1.09-2.06-1.56-3.45h0Zm-.76-2.82c2.84,1.91,5.78,2.96,8.59,4.26,1.52,.7,2.91,1.66,4.21,2.7,5.02,4,9.78,8.27,14.21,12.93,1.91,2,4.12,3.64,6.52,5.06,2.97,1.76,5.82,3.73,8.67,5.67,2.92,1.98,6.1,3.49,9.19,5.17,.86,.47,1.68,1.04,2.56,1.47l.07,.03c-3.01,.08-6.02,.1-9.03,.09-2.86-.02-5.72-.08-8.58-.22-.16-.2-.36-.4-.47-.6-1.05-1.91-2.31-3.67-3.69-5.35-3-3.65-6.35-6.95-9.86-10.1-1.71-1.53-3.36-3.17-4.87-4.9-3.01-3.44-6.11-6.79-9.43-9.92-1.38-1.3-2.91-2.45-4.68-3.11-1.3-.49-1.93-1.74-3.13-2.28-.12-.05-.13-.37-.29-.9h0Zm7.8-.63l-.25-.15c-2.57-1.5-4.9-3.4-7.66-4.59-1.31-.56-2.64-1.07-3.94-1.64-.84-.37-1.42-1.06-2.23-1.45-.31-.15-.62-.31-.94-.4,1.16,.03,2.31,.12,3.45,.33,4.48,.81,8.22,2.84,10.75,6.76,.26,.4,.53,.77,.82,1.13h0Zm10.46,8.57c-.67-.54-1.31-1.1-1.96-1.65,.54,.44,1.08,.89,1.61,1.35,.12,.1,.23,.2,.35,.3h0Zm4.4,4.76c2.05,2.31,4.19,4.58,6.83,6.17,2.14,1.28,4.03,3.05,6.55,3.67,.74,.18,1.38,.59,2.02,.99,1.91,1.19,3.95,2.1,6.09,2.77,2.18,.68,4.3,1.55,6.48,2.27,2.21,.73,4.42,1.7,6.22,3.28,.41,.37,.9,.33,1.33,.61,1.81,1.16,3.68,2.23,5.66,3.1,.5,.22,1.01,.48,1.39,.92l.14,.14c-.47,.06-.95,.11-1.42,.15-2.35,.19-4.7,.32-7.05,.42-4.22-1.72-8.19-3.97-12.1-6.29-3.03-1.8-5.92-3.83-8.86-5.77-1.55-1.02-3.27-1.79-4.68-3.03-1.05-.92-2.2-1.74-3.2-2.71-2.45-2.4-5.06-4.65-7.29-7.27-.47-.55-1.07-.92-1.64-1.3-3.15-2.11-5.71-5-9.07-6.84-1.81-.99-3.66-1.86-5.57-2.6-1.74-.68-3.3-1.65-4.83-2.68-.25-.17-.51-.37-.68-.61-.78-1.12-1.52-2.26-2.42-3.59,2.39,.94,4.58,1.77,6.51,3.16,.96,.69,1.93,1.37,2.95,1.96,1.75,1.01,3.37,2.18,4.86,3.53,1.64,1.48,3.33,2.91,5.02,4.33,1.26,1.06,2.5,2.11,3.96,2.9,1.08,.58,1.99,1.43,2.81,2.36h0ZM99.48,13.57c.94,2.62,1.86,5.23,3.36,7.61,1.02,1.62,1.5,3.42,1.02,5.41-.46,1.92-.12,3.7,1.14,5.35,1.54,2.03,2.92,4.18,4.83,5.87-1.31,.06-2.62,.41-3.93,1.06-1.67,.83-3.29,1.06-5.06,.74-3.45-.63-6.85-.46-10.18,.71-1.21,.42-2.42,.87-3.66,1.18-1.41,.36-2.75,.8-3.97,1.61-.74,.49-1.58,.75-2.44,.9-3.89,.7-7.76,1.56-11.76,1.3-.61-.04-1.26-.1-1.78,.32-.38,.3-.67,.09-.96-.11-1.91-1.3-3.84-2.58-5.67-4.13,1.04-1.21,2.32-2.06,3.58-2.94,.95-.67,1.76-1.43,2.15-2.55,.47-1.38,1.5-2.16,2.8-2.67,.92-.36,1.86-.59,2.85-.62,1.55-.03,2.71-.74,3.68-1.93,2.95-3.64,4.58-7.88,5.53-12.39,.27-1.28,.72-2.32,1.71-3.16,1.49-1.26,2.98-2.53,4.64-3.57,1.05-.66,1.8-1.49,2.06-2.74,.11-.55,.35-1.08,.75-1.5,1.46-1.52,2.83-3.12,4.14-4.77,.29-.37,.59-.6,.9-.72,0,.15,.05,.32,.14,.5,.27,.54,.5,1.1,.75,1.66,1.4,3.09,2.26,6.38,3.39,9.57h0Zm25.26,1.29c-.97-.89-1.85-1.9-2.96-2.64-1.26-.84-2.72-1.18-4.15-1.6-.82-.24-1.66-.44-2.44-.81,4.01-1.11,8.27,1.08,9.54,5.05h0Zm31.02,30.06c-.86-.4-1.71-.67-2.57-.83v-.12c-.01-.36-.1-.66-.36-.97-1.62-1.9-3.22-3.82-4.79-5.75-1.26-1.55-2.89-2.63-4.58-3.58-2.57-1.44-4.92-3.21-7.27-4.95-1.9-1.4-3.9-2.65-5.88-3.94-.69-.45-1.36-.94-1.81-1.58-1.02-1.45-2.51-2.27-3.93-3.17-2.57-1.62-5.3-2.93-8.21-3.86-1.29-.41-2.39-1.22-3.39-2.03-2.44-1.99-5.24-3.24-8.12-4.35-2.61-1.01-4.88-2.53-6.77-4.55-.83-.89-1.33-2.1-1.66-3.3l-.02-.09c.17,.05,.34,.11,.53,.2,.92,.4,1.65,1.07,2.21,1.87,.8,1.14,1.88,1.75,3.22,1.85,1.87,.14,3.45,.89,4.89,2.04,.76,.61,1.61,1.12,2.32,1.78,1.24,1.16,2.51,1.33,3.98,.82,.16,.08,.36,.14,.5,.19,1.56,.51,3.14,.95,4.73,1.35,1.64,.42,2.86,1.48,4.08,2.55,.73,.64,1.34,1.41,2.2,1.9l.14,.08c.64,1.95,1.89,3.27,3.78,4.19,1.2,.58,2.37,1.22,3.56,1.83,.73,.37,1.25,.93,1.4,1.74,.49,2.59,2.23,4.04,4.48,5.11,1.58,.75,3.23,1.31,4.85,1.95,2.53,1.01,4.79,2.36,6.28,4.75,.47,.75,1.12,1.34,1.83,1.85,.85,.62,1.49,1.39,1.9,2.38,.48,1.14,1.11,2.2,1.86,3.19,.28,.37,.65,.74,.64,1.46h0Zm75.99,21.49c-1.25,.49-4.12,1.67-4.87,1.95-2.72,1.02-6.33,3.16-14.35,.26-1.55-.48-3.11-.52-4.72-.37-2.99,.28-5.87,.96-8.65,2.07-1.16,.47-2.28,.48-3.45,.06-1.98-.72-3.97-1.38-5.95-2.09-1.46-.53-2.94-.99-4.51-.84-1.79,.18-3.47-.18-5.14-.75-2.33-.81-4.68-1.55-7.13-1.92-3.93-.6-7.69-1.75-11.35-3.3-3.64-1.54-7.39-2.76-11.19-3.87-3.79-1.11-7.6-2.15-11.32-3.5-2.52-.91-3.97-2.88-5.58-4.8,.46-.39,.9-.3,1.29-.3,2.81-.06,5.5-.63,8.09-1.7,1.57-.64,3.25-.95,4.89-1.35,3.59-.86,6.82-.16,9.7,2.15,.56,.45,1.16,.85,1.72,1.3,1.42,1.11,2.92,2.1,4.4,3.11,2.91,1.99,6,2.77,9.49,1.8,2.54-.7,5.09-.42,7.59,.37,1.91,.61,3.78,1.32,5.6,2.15,2.67,1.22,5.32,1.3,8.08,.33,1.93-.68,3.9-1.27,5.88-1.82,1.76-.49,3.52-.86,5.3-1.06,1.78-.18,2.31-.18,3.95,.36,3.11,1.04,8.34,5.58,10.49,6.84,2.42,1.41,5.98,3.23,9.46,4.18l.04,.04c.38,.09,1.38,.43,2.23,.68h0Zm176.87-20.78c-2.78,3.53-6.4,6.11-10.28,8.22-5.45,2.96-11.07,5.56-17.07,7.28-1.01,.29-1.97,.69-2.91,1.15-.21-.29-.49-.5-.82-.68-.37-.21-.77-.34-1.17-.45,1.65-.58,3.3-1.2,4.91-1.89,1.62-.69,3.32-1,5.04-1.33,5.84-1.13,11.23-3.27,15.56-7.54,.92-.91,1.92-1.69,3.02-2.36,1.26-.76,2.49-1.56,3.7-2.39h0Zm27.73-19.12c-1.3,.57-2.63,1.08-3.94,1.64-2.76,1.19-5.09,3.09-7.66,4.59l-.25,.15c.29-.36,.56-.74,.82-1.13,2.53-3.92,6.27-5.95,10.75-6.76,1.14-.21,2.29-.3,3.45-.33-.33,.1-.63,.26-.94,.4-.8,.38-1.38,1.07-2.23,1.45h0Zm-8.52,8.37c-1.91,.75-3.77,1.61-5.57,2.6-3.36,1.84-5.92,4.73-9.07,6.84-.57,.38-1.18,.75-1.64,1.3-2.23,2.62-4.84,4.87-7.29,7.27-1,.98-2.15,1.79-3.2,2.71-1.41,1.24-3.13,2.01-4.68,3.03-2.94,1.94-5.83,3.97-8.86,5.77-1.06,.63-2.12,1.25-3.19,1.86-1.06-.6-2.15-1.12-3.29-1.57-.84-.33-1.59-.81-2.12-1.53,.9-.42,1.84-.78,2.77-1.09,2.17-.72,4.29-1.58,6.48-2.27,2.14-.67,4.19-1.58,6.09-2.77,.64-.4,1.28-.8,2.02-.99,2.52-.62,4.41-2.39,6.55-3.67,2.64-1.59,4.78-3.86,6.83-6.17,.83-.92,1.73-1.78,2.81-2.36,1.47-.78,2.71-1.84,3.96-2.89,1.69-1.42,3.38-2.85,5.02-4.33,1.49-1.34,3.11-2.52,4.86-3.53,1.02-.59,1.99-1.27,2.95-1.96,1.93-1.39,4.12-2.21,6.51-3.16-.89,1.33-1.64,2.47-2.42,3.59-.17,.24-.43,.44-.68,.61-1.54,1.03-3.09,2.01-4.83,2.68h0Zm4.2-.46c-1.2,.55-1.83,1.8-3.13,2.28-1.77,.66-3.3,1.81-4.68,3.11-3.33,3.13-6.42,6.48-9.43,9.92-1.51,1.73-3.16,3.36-4.88,4.9-3.52,3.15-6.87,6.45-9.86,10.1-1.27,1.55-2.43,3.16-3.43,4.9-.19-.05-.38-.09-.56-.16-1.22-.41-2.5-.33-3.76-.39-2.03-.09-4.07-.16-5.83-1.44-.35-.26-.71-.49-1.07-.72,1.6-.86,3.19-1.76,4.7-2.79,2.86-1.94,5.71-3.91,8.67-5.67,2.4-1.43,4.61-3.06,6.52-5.06,4.43-4.66,9.19-8.93,14.21-12.93,1.31-1.04,2.69-2,4.21-2.7,2.82-1.3,5.75-2.34,8.6-4.26-.16,.53-.16,.85-.28,.9h0Zm-30.35,35.3c-1.32,.12-2.64,.25-3.95,.11,.35-.63,.66-1.28,1.1-1.83,2.42-3.04,4.88-6.04,7.75-8.7,3.54-3.28,7.13-6.52,10.3-10.18,2.89-3.34,5.89-6.58,9.27-9.45,.7-.6,1.42-1.21,2.29-1.5,1.08-.36,2.02-.93,3.12-1.83-.47,1.39-.83,2.58-1.56,3.45-1.73,2.07-3.38,4.21-5.2,6.21-1.74,1.91-3.95,3.22-5.88,4.88-2.26,1.94-4.38,4.01-6.32,6.23-3.66,4.18-7,8.65-10.91,12.62h0Z"/></svg>