<?xml version="1.0" encoding="UTF-8"?><svg id="Layer_1" xmlns="http://www.w3.org/2000/svg" viewBox="0 0 841.89 128.48"><defs><style>.cls-1,.cls-2{fill:#fff;}.cls-2{opacity:.5;}</style></defs><path class="cls-2" d="M466.3,90.12c-1.53,0-3.06-.04-4.59-.15-.83-.73-1.89-1.06-2.88-1.44-2.48-.94-4.98-1.84-7.55-2.56-1.79-.5-2.67-1.21-4.1-3.04,1.14,.45,2.08,.9,3.07,1.19,3.36,.96,6.76,1.75,10.09,2.79,2.27,.71,4.55,1.51,6.31,3.2h-.34m-112.08-42.77l-.25-.15c-2.57-1.5-4.9-3.4-7.66-4.59-1.31-.56-2.63-1.07-3.94-1.64-.84-.37-1.42-1.06-2.23-1.45-.31-.15-.62-.31-.95-.4,1.16,.03,2.31,.12,3.45,.33,4.48,.81,8.22,2.84,10.75,6.76,.26,.4,.53,.77,.82,1.13m377.28,0c.29-.36,.56-.74,.82-1.13,2.53-3.92,6.26-5.95,10.75-6.76,1.14-.21,2.29-.3,3.45-.33-.33,.1-.63,.26-.94,.4-.81,.38-1.38,1.07-2.23,1.45-1.3,.57-2.63,1.08-3.94,1.64-2.76,1.19-5.09,3.08-7.66,4.59l-.25,.15m-499.77,4.18c-.35-.13-.7-.26-1.06-.35-2.16-.57-4.32-1.11-6.48-1.68-1.54-.41-3.03-1.05-4.31-1.95-1.52-1.06-3.12-1.7-4.9-2.06-2.05-.42-4.08-.88-6.16-1.14,1.12-.17,2.23-.36,3.35-.53,.36-.05,.71-.08,1.06-.08,1.02,0,2,.23,2.96,.73,1.91,.99,3.83,1.97,5.65,3.14,1.06,.69,2.18,1.05,3.46,1.1,2.52,.11,4.67,1.31,7.01,2.41-.22,.16-.41,.29-.58,.41m-15.96,.36c-.26-.08-.53-.16-.79-.25-2.15-.7-3.9-2.18-5.92-3.12-1.56-.72-3.18-1.16-4.88-1.29,.17-.14,.33-.28,.5-.43h.05c.47-.18,.93-.25,1.39-.25,.82,0,1.62,.22,2.38,.53,2.15,.87,4.35,1.65,6.36,2.86,1.08,.65,2.34,1.01,3.56,1.39,.31,.09,.64,.13,.95,.2-.64,.14-1.3,.2-1.96,.23-.55,.02-1.09,.06-1.63,.11m-3.91,.85c-.13-.13-.28-.24-.43-.26-1.7-.21-2.86-1.47-4.3-2.18-1.6-.79-3.27-1.26-5.27-1.37-.08-.02-.16-.03-.24-.03-.09,0-.18,.01-.28,.03,.21-.15,.44-.28,.68-.38,.12-.05,.24-.1,.35-.16h.03c.43-.06,.84-.08,1.26-.08,1.38,0,2.7,.3,4.06,.89,2.07,.9,3.92,2.23,6.04,2.99-.64,.14-1.28,.32-1.9,.55m17.13,.21c-.37,0-.75-.05-1.15-.13-1.48-.3-2.84-.86-4.11-1.66-.52-.32-1.04-.5-1.57-.5-.4,0-.8,.1-1.23,.31-.12-.06-.24-.11-.39-.14-2.31-.53-4.46-1.49-6.58-2.56-2.31-1.16-4.67-2.25-7.31-2.51-.14-.01-.28-.03-.41-.05l.14-.03c.34-.11,.67-.28,1.02-.34,.28-.04,.56-.06,.84-.06,.53,0,1.06,.07,1.6,.18,2.32,.5,4.7,.77,6.95,1.6,.43,.16,.88,.29,1.22,.57,2.03,1.63,4.4,2.4,6.89,3,2.02,.49,4.05,.99,6.06,1.53h.02c-.6,.58-1.27,.78-2.01,.78m-19.56,.97l-.04-.02c-2.38-1.26-4.61-2.81-7.4-3.17-.28-.04-.56-.05-.83-.05-.63,0-1.26,.08-1.88,.16,.22-.2,.43-.41,.64-.62,.09-.01,.19-.04,.28-.07,.61-.21,1.21-.3,1.81-.3,.92,0,1.82,.21,2.72,.48,1.7,.53,3.13,1.6,4.6,2.54,.37,.24,.76,.38,1.15,.5-.4,.21-.75,.4-1.06,.55m-2.02,.66c-.79,0-1.54-.43-3.08-1.24-1.02-.53-2.04-.87-3.11-.87-.62,0-1.26,.11-1.91,.36-.36,.14-.76,.21-1.18,.21-.46,0-.95-.08-1.48-.24,.48-.27,.92-.56,1.32-.86,.04,0,.09,0,.13,0,.06,0,.13,0,.19-.01,.66-.08,1.32-.18,1.98-.24,.26-.02,.52-.04,.78-.04,1.62,0,3.1,.49,4.55,1.37,.85,.51,1.76,.94,2.69,1.39-.32,.1-.6,.16-.87,.16m8.89,6.91c-.37,0-.68-.16-1.02-.55-1.4-1.59-3.02-2.92-4.76-4.13-.37-.26-.84-.4-1.08-.92,2.22-1.16,4.4-2.33,7.01-2.33,.11,0,.21,0,.32,0,.14,0,.29,0,.44,0,1.5,0,2.99-.29,4.35-.99,.23-.12,.43-.17,.63-.17,.33,0,.63,.14,.94,.33,1.29,.76,2.65,1.34,4.14,1.58,.28,.04,.61,.05,.83,.36-.67,.64-1.56,.76-2.39,.96-.77,.19-1.51,.45-1.95,1.13-1.6,2.5-4.12,3.59-6.75,4.56-.26,.1-.5,.15-.71,.15m67.07,.67c-.91-1.49-2.22-2.62-3.65-3.59-1.8-1.22-3.82-1.88-6.03-1.93-1.69-.04-3.39-.14-5.07-.3-1.65-.16-3.13-.73-4.53-1.74-1.55-1.12-3.29-2.05-5.07-2.79-3.64-1.52-6.98-3.44-9.77-6.26-.24-.25-.48-.45-.77-.54l.05-.05c.38-.32,.76-.48,1.18-.48,.26,0,.53,.06,.81,.18,1.34,.56,2.57,1.28,3.66,2.24,1.31,1.16,2.76,1.89,4.45,1.89,.34,0,.69-.03,1.05-.09,.23-.04,.45-.06,.67-.06,.96,0,1.84,.36,2.65,.96,1.53,1.13,3.09,2.21,4.6,3.37,1.18,.9,2.43,1.42,3.82,1.42,.4,0,.8-.04,1.22-.13,.29-.06,.58-.09,.87-.09,.84,0,1.63,.25,2.37,.74,.65,.42,1.31,.81,1.95,1.24,2.14,1.42,4.27,2.84,6.76,3.62,.82,.26,1.59,.68,2.45,1.06-1.18,.71-2.41,1.1-3.69,1.32m518.99,0c-1.28-.22-2.5-.61-3.69-1.32,.86-.38,1.63-.8,2.45-1.06,2.49-.79,4.62-2.2,6.76-3.62,.64-.43,1.3-.82,1.95-1.24,.74-.48,1.54-.74,2.37-.74,.28,0,.57,.03,.87,.09,.42,.08,.83,.13,1.22,.13,1.39,0,2.64-.51,3.82-1.42,1.51-1.16,3.07-2.24,4.6-3.37,.81-.6,1.69-.96,2.65-.96,.22,0,.44,.02,.67,.06,.36,.06,.71,.09,1.05,.09,1.69,0,3.14-.73,4.45-1.89,1.09-.96,2.32-1.68,3.66-2.24,.28-.12,.55-.18,.81-.18,.41,0,.8,.16,1.18,.48l.05,.05c-.29,.09-.53,.29-.77,.54-2.79,2.82-6.12,4.74-9.77,6.26-1.77,.74-3.51,1.67-5.07,2.79-1.4,1.01-2.88,1.58-4.53,1.74-1.68,.16-3.38,.26-5.07,.3-2.21,.05-4.23,.71-6.03,1.93-1.43,.96-2.74,2.09-3.65,3.59M2.44,62.73l-2.44-.54v-9.91l4.87,1.02,5.78,.61,3.35,1.52-1.83,.91-2.74,1.83-7,4.57m277.12,.1c-.43-.36-.75-.82-1.24-1.1-1.9-1.06-3.93-1.72-6.02-2.3-5.48-1.52-11.1-2.67-16.12-5.52-.9-.51-1.8-1.05-2.54-1.81-1.32-1.36-2.76-2.6-3.92-4.11-.69-.89-1.65-1.41-2.7-1.77,.25-.21,.5-.41,.75-.62,.41,.66,.98,1.1,1.49,1.56,1.7,1.54,3.65,2.73,5.56,3.99,.73,.48,1.54,.66,2.3,.97,1.93,.8,3.69,1.93,5.57,2.81,.14,.06,.29,.12,.39,.22,2.17,2.09,4.95,2.16,7.69,2.34,.77,.05,1.54,.07,2.31,.08,3.57,.05,6.39,1.63,8.71,4.25,.15,.17,.29,.34,.44,.52-.89,.14-1.78,.3-2.65,.49m526.6,0c-.87-.19-1.76-.35-2.65-.49,.14-.17,.29-.35,.44-.52,2.31-2.62,5.13-4.2,8.71-4.25,.77-.01,1.54-.03,2.31-.08,2.74-.18,5.53-.25,7.69-2.34,.1-.1,.26-.15,.39-.22,1.89-.88,3.64-2,5.57-2.81,.76-.32,1.57-.49,2.3-.97,1.91-1.26,3.86-2.45,5.56-3.99,.51-.47,1.08-.9,1.49-1.56,.25,.21,.5,.41,.75,.62-1.04,.36-2.01,.87-2.7,1.77-1.17,1.51-2.6,2.75-3.92,4.11-.74,.76-1.64,1.3-2.54,1.81-5.02,2.86-10.64,4-16.12,5.52-2.09,.58-4.12,1.25-6.02,2.3-.49,.27-.81,.74-1.24,1.1m-799.03,.1c-.82-.26-1.65-.46-2.53-.58-.31-.04-.63-.1-.94-.15,.53-.28,1.03-.6,1.53-.91,2.42-1.51,4.75-3.16,7.15-4.71,.28-.18,.6-.26,.92-.28,.17,.16,.33,.34,.48,.53,.78,.98,1.84,1.65,2.92,2.24,.54,.3,1.09,.58,1.64,.85-2.04,.57-4.12,.97-6.1,1.74-1.65,.64-3.38,.9-5.09,1.27m104.03,.35c-.98-.15-1.99-.41-3.03-.76,1.2-2,2.41-3.81,4.19-5.19,.83-.64,1.78-1.04,2.81-1.18,1.08-.15,2.16-.33,3.24-.33,.3,0,.6,.01,.9,.05,.33,.04,.66,.05,.98,.05,1.64,0,3.18-.45,4.67-1.21,1.78-.9,3.58-1.79,5.46-2.49,1.17-.44,2.38-.72,3.6-.72,.31,0,.62,.02,.93,.05,1.26,.15,2.51,.22,3.75,.22,2.39,0,4.77-.25,7.14-.65,.79-.13,1.56-.45,2.34-.45,.05,0,.09,0,.14,0,.14,.39-.07,.55-.27,.71-.77,.63-1.7,.96-2.62,1.26-1.03,.34-1.92,.83-2.73,1.5-.94-.04-1.88-.18-2.82-.21-1.7-.05-3.34-.43-4.94-.95-.49-.16-.98-.31-1.63-.33-.84,.09-1.73,.47-2.6,.85-.74,.32-1.44,.76-2.16,1.14-.94,.48-1.9,.86-2.93,1.15-3,.85-5.97,1.81-8.88,2.97-.95,.38-1.8,.94-2.57,1.63-.72,.65-1.35,1.39-2.19,1.91-.29,.18-.54,.49-.69,.8l-.1,.18m1.86,.15c-.22,0-.45,0-.68-.02,2.52-2.28,5.22-4.21,8.68-4.94,1.34-.28,2.7-.73,3.89-1.5,.16-.1,.37-.21,.56-.21h0s.06,0,.09,0c2.09,0,3.65-1.36,5.43-2.16,.57-.26,1.18-.4,1.69-.82,.18-.14,.38-.19,.58-.19,.25,0,.51,.07,.75,.15,2.27,.75,4.59,1.14,6.98,1.14,.19,0,.39,0,.58,0h.06c.08,0,.15,0,.23,0-.08,.09-.16,.17-.25,.26-1,1.11-2.22,1.8-3.61,1.8-.57,0-1.18-.12-1.81-.37-.57-.23-1.16-.41-1.73-.63-.84-.32-1.67-.47-2.5-.47-1.02,0-2.03,.23-3.04,.68-1.88,.83-3.77,1.62-5.66,2.42-1.19,.51-2.25,1.21-3.22,2.07-2.16,1.93-4.51,2.77-7.02,2.77m-101.36,1.37c-.06,0-.12,0-.17,0-.87-.45-1.74-.87-2.64-1.24,2.36-.49,4.7-1.04,6.97-1.97,1.1-.45,2.41-.56,3.6-.91,.14-.04,.31-.01,.45-.04,.88,.39,1.77,.75,2.67,1.07-1.91,.41-3.73,1.12-5.54,1.86-1.73,.71-3.48,1.22-5.34,1.22m261.86,.13c-.49-.94-1.43-1.42-2.35-1.68-3.64-1.03-6.92-2.92-10.47-4.16-1.88-.66-3.77-1.38-5.36-2.67-1.23-1-2.45-2.04-3.74-2.96-1.6-1.14-2.74-2.56-3.58-4.35-.43-.92-1.27-1.45-2.21-1.81l.26-.24,.2-.18c1.82,.52,2.9,1.88,4.02,3.31,2.14,2.7,4.76,4.76,8.07,6.03,3.38,1.3,6.84,2.28,10.32,3.25,2.45,.68,4.93,1.3,7.28,2.26,.84,.34,1.63,.82,2.33,1.42-1.66,.44-3.26,1.01-4.78,1.8m538.68,0c-1.52-.78-3.12-1.36-4.77-1.8,.7-.6,1.48-1.07,2.33-1.42,2.36-.96,4.84-1.57,7.29-2.26,3.48-.97,6.94-1.95,10.32-3.25,3.31-1.27,5.93-3.33,8.07-6.03,1.12-1.42,2.21-2.78,4.02-3.31l.2,.18,.26,.24c-.94,.36-1.78,.89-2.21,1.81-.83,1.79-1.98,3.21-3.58,4.35-1.29,.92-2.5,1.96-3.74,2.96-1.59,1.29-3.48,2.01-5.36,2.67-3.55,1.24-6.83,3.13-10.47,4.16-.93,.26-1.87,.75-2.35,1.68M16.89,67.39c-.28,0-.57,0-.85-.02-.05,0-.1,0-.16,0-.04,0-.08,0-.12,0-.34-.4-.77-.72-1.24-.97-.5-.26-1-.53-1.49-.79h.08c2.16-.35,4.25-.88,6.29-1.79,1.44-.64,2.94-1.36,4.63-1.36,.09,0,.17,0,.26,0,.09,0,.19,0,.29,0,.11,0,.23,0,.34-.01,2.1,.58,4.27,.94,6.52,1.04h.26c-1.76,.63-3.49,1.35-5.25,1.95-3.1,1.05-6.25,1.94-9.55,1.94m242.86,2.57c-1.37,0-2.67-.31-3.8-1.29-2.72-2.35-5.98-3.76-9.16-5.33-.91-.45-1.86-.69-2.86-.69-.19,0-.38,0-.57,.03-1.33,.12-2.66,.3-3.99,.37-1.46,.08-2.81,.49-4.15,1.06-2.31,.99-4.7,1.8-7.12,2.46-1.24,.34-2.52,.54-3.47,1.53-.14,.15-.29,.22-.45,.22s-.31-.07-.5-.2c-1.69-1.26-3.41-2.47-5.1-3.72-.52-.38-1.1-.74-1.39-1.41,.28-.12,.5-.24,.73-.32,2.77-.92,5.34-2.15,7.05-4.68,.24-.36,.61-.59,1.02-.64,2.06-.27,3.64-1.38,4.97-2.86,1.24-1.39,2.74-2.02,4.6-2.11,1.42-.07,2.9-.24,4.13-1.07,1.72-1.16,3.62-2.05,5.27-3.32,1.25,.33,2.01,1.28,2.5,2.33,.81,1.74,2.07,2.99,3.58,4.08,1.69,1.22,3.22,2.64,4.95,3.83,.72,.49,1.52,.78,2.23,1.06,2.05,.83,4.11,1.67,6.21,2.37l.14,.06c2.07,1.32,4.5,1.76,6.74,2.67,.52,.21,.97,.56,1.29,1.02-1.05,.62-2.05,1.35-3,2.22-.23,.21-.43,.43-.76,.48-2.58,.45-5.05,1.4-7.66,1.73-.49,.06-.97,.1-1.45,.1m566.22,0c-.48,0-.96-.04-1.45-.1-2.61-.33-5.08-1.29-7.66-1.73-.33-.06-.53-.27-.76-.48-.95-.87-1.95-1.6-3-2.22,.32-.46,.77-.81,1.29-1.02,2.23-.91,4.66-1.35,6.73-2.67l.14-.06c2.11-.7,4.16-1.54,6.21-2.37,.71-.28,1.51-.57,2.23-1.06,1.73-1.19,3.26-2.61,4.95-3.83,1.51-1.09,2.77-2.34,3.58-4.08,.49-1.05,1.25-2,2.5-2.33,.37,.29,.76,.55,1.15,.8v13.87s-.07,0-.11,0c-1,0-1.95,.23-2.86,.68-3.17,1.57-6.43,2.98-9.16,5.33-1.13,.97-2.43,1.29-3.8,1.29m-804.17,1.51c-.23,0-.46-.07-.69-.18-1.61-.84-3.33-1.51-4.57-2.88,.29,.02,.59,.04,.91,.07,1.6-.36,3.32-.31,4.97-.9,1.05-.37,2.22-.26,3.32-.61,1.59-.51,3.03-1.41,4.63-1.84,1.37-.36,2.63-1.04,3.98-1.45,.72,.04,1.43,.08,2.15,.1,1.23,.03,2.39,.27,3.46,.71-.41,.18-.83,.36-1.25,.52-2.23,.83-4.63,1.05-6.87,1.84-1.97,.7-3.85,1.54-5.55,2.77-.18,.13-.37,.26-.53,.41-1.12,.1-2.2,.42-3.21,1.18-.25,.19-.5,.27-.76,.27m9.84,.18l-.1-.13c-.58-.86-1.45-1.3-2.47-1.4-.48-.04-.95-.09-1.43-.12,1.92-1.18,4.08-1.8,6.17-2.62,2.4-.94,5.1-.65,7.33-2.08l.21-.12c.38,.23,.74,.49,1.1,.79,.35,.28,.69,.57,1.02,.87-1.24,.45-2.48,.89-3.74,1.27-2.82,.84-5.43,2.15-8.03,3.51l-.08,.04m2.71,1.61c-.23-.1-.48-.18-.72-.26-.37-.12-.71-.27-1.03-.46,.4-.2,.81-.4,1.18-.64,2.06-1.36,4.38-2.1,6.7-2.86,1.32-.43,2.63-.91,3.93-1.38,.24,.21,.48,.42,.73,.64,.57,.49,1.1,1.04,1.64,1.57-.82,.39-1.7,.63-2.51,1.04-1.79,.92-3.72,1.26-5.69,1.51-1.42,.18-2.83,.51-4.24,.84m3,.99c-.63,0-1.23-.06-1.79-.3,1.2-.15,2.36-.56,3.59-.64,2.41-.14,4.66-.89,6.84-1.9,.54-.25,1.12-.44,1.59-.79,.68,.62,1.42,1.2,2.3,1.63-4.06,.99-8.07,1.88-12.21,1.99-.1,0-.21,0-.31,0m647.35,2.83l-.17-.1c-.87-.49-1.85-.62-2.81-.8,2.21-.75,4.4-1.54,6.55-2.45,1.62-.69,3.32-1,5.04-1.33,5.84-1.13,11.23-3.27,15.56-7.54,.92-.91,1.92-1.69,3.02-2.36,1.26-.76,2.49-1.56,3.7-2.4-2.78,3.53-6.4,6.11-10.28,8.22-5.45,2.96-11.08,5.56-17.07,7.28-1.24,.35-2.42,.87-3.56,1.48m5.78,4.12c-.8-.41-1.62-.79-2.47-1.12-1.07-.42-2.01-1.06-2.51-2.17l-.04-.07c1.03-.52,2.12-.93,3.2-1.29,2.17-.72,4.29-1.58,6.48-2.27,2.14-.67,4.18-1.58,6.09-2.77,.64-.4,1.28-.8,2.02-.99,2.52-.62,4.41-2.39,6.55-3.67,2.64-1.58,4.78-3.86,6.83-6.17,.82-.93,1.73-1.78,2.81-2.36,1.47-.78,2.71-1.84,3.96-2.89,1.69-1.42,3.38-2.85,5.02-4.33,1.49-1.34,3.11-2.52,4.86-3.52,1.02-.59,1.99-1.27,2.95-1.96,1.93-1.39,4.12-2.22,6.51-3.16-.89,1.33-1.64,2.47-2.42,3.59-.17,.24-.43,.44-.68,.61-1.54,1.03-3.09,2.01-4.83,2.69-1.91,.74-3.77,1.61-5.57,2.6-3.36,1.84-5.92,4.73-9.07,6.84-.57,.38-1.18,.75-1.64,1.31-2.23,2.62-4.84,4.87-7.29,7.27-1,.98-2.15,1.79-3.2,2.71-1.41,1.24-3.13,2.01-4.68,3.03-2.94,1.94-5.83,3.97-8.86,5.77-1.33,.79-2.66,1.57-4.01,2.32m-656.69,1.63h-3.65l-7.31-.3-10.05-.3-2.44,.3-2.44-.3-3.65-1.52-3.65-1.52H0v-16.9l.91,.15,7.61,1.83,6.39,3.04,1.83,2.74,4.87,2.89,3.35-1.98h4.87l2.44,2.13,3.35,1.83h6.09l7.92-1.52,6.09-1.52,5.48-.61,3.96,1.52,7,2.13-.91,.61-4.26,.91-4.87,.3h-3.65l-3.96,.31-3.65,1.22-4.87,1.22-5.48,1.52-6.7,1.83m380.36,1.44h-.02c-2.32-.61-4.2-2.08-6.26-3.17-2.02-1.07-3.95-2.29-5.89-3.47-1.42-.86-2.93-1.58-4.52-2.03-5.99-1.72-11.62-4.32-17.07-7.28-3.88-2.11-7.5-4.68-10.28-8.22,1.21,.83,2.44,1.63,3.7,2.4,1.11,.67,2.1,1.45,3.02,2.36,4.33,4.27,9.73,6.41,15.56,7.54,1.72,.33,3.43,.64,5.04,1.33,3.02,1.29,6.14,2.33,9.26,3.36,6.99,2.29,5.1,1.15,11.12,6.22,.12,.1,.21,.22,.59,.61-1.49,.01-2.88,.18-4.24,.37m-58.79,.44c-.9,0-1.75-.26-2.57-.72-3.45-1.92-7.16-3.34-10.32-5.8-1.67-1.3-3.68-1.74-5.79-1.8-.11,0-.22,0-.32,0-2.04,0-3.95,.52-5.79,1.35-1.13,.52-2.27,.75-3.42,.75-.91,0-1.82-.15-2.75-.41-.69-.2-1.37-.43-2.07-.61-.57-.15-1.15-.31-1.74-.31-.18,0-.36,.01-.54,.05-.26,.05-.51,.07-.76,.07-.51,0-1.02-.08-1.53-.18-2.23-.42-4.37-1.12-6.5-1.89-1.49-.54-2.79-1.31-3.59-2.74-.42-.76-1.08-1.04-1.91-1.04-.05,0-.11,0-.17,0-.4,.02-.8,.02-1.19,.02-.13,0-.25,0-.38,0h-.37c-.64,0-1.28,0-1.91,.07-.25,.02-.49,.03-.73,.03-1.74,0-3.33-.57-4.91-1.26-1.41-.61-2.85-1.17-4.28-1.73-.93-.36-1.88-.57-2.85-.57-.56,0-1.12,.07-1.69,.22-.27,.07-.54,.1-.8,.1-.34,0-.68-.06-1.02-.17-.88-.3-1.79-.51-2.61-.92-1.33-.66-2.67-.97-4.04-.97-.93,0-1.88,.15-2.85,.43-.52,.15-1.06,.31-1.71,.31-.2,0-.42-.02-.65-.05,.83-.72,1.64-1.02,2.46-1.27,2.51-.76,5.02-1.51,7.63-1.8,.88-.1,1.7-.37,2.52-.68,2.2-.83,4.09-2.17,5.79-3.74,3.3-3.03,6.76-5.86,10.48-8.36,.73-.49,1.43-1.02,1.96-1.73,.55-.75,1.31-1.12,2.2-1.3,1.31-.27,2.62-.52,3.92-.82,5.36-1.21,10.7-2.46,16.07-3.65,2.35-.52,4.51-1.41,6.35-2.98,1.2-1.02,2.59-1.41,4.12-1.47,.4-.02,.8-.02,1.2-.03,.36,.7,1.1,.89,1.58,1.38,2.88,2.93,5.35,6.12,6.27,10.24,.43,1.93,1.23,3.62,2.52,5.14,1.19,1.4,2.22,2.94,3.48,4.28,1.51,1.61,3.14,3.07,4.92,4.4,3.59,2.68,6.67,5.89,9.54,9.33,2.59,3.1,5.05,6.32,7.85,9.25,.46,.48,.88,1.01,1.32,1.52-3.15-.29-6.29-.67-9.43-1.18-.84-.14-1.67-.2-2.5-.2-1.01,0-2.01,.1-3.01,.29-1.31,.25-2.65,.46-3.9,.88-.54,.18-1.07,.27-1.58,.27m374.97,0c-.51,0-1.04-.08-1.58-.27-1.26-.42-2.6-.63-3.91-.88-1-.2-2-.29-3.01-.29-.83,0-1.66,.07-2.5,.2-3.13,.51-6.28,.89-9.43,1.18,.44-.51,.86-1.04,1.32-1.52,2.8-2.92,5.26-6.14,7.85-9.25,2.88-3.45,5.95-6.66,9.54-9.33,1.78-1.33,3.41-2.78,4.92-4.4,1.26-1.35,2.28-2.89,3.47-4.28,1.29-1.52,2.09-3.21,2.52-5.14,.92-4.12,3.39-7.31,6.27-10.24,.48-.49,1.22-.69,1.58-1.38,.4,0,.8,.01,1.2,.03,1.53,.06,2.92,.45,4.12,1.47,1.84,1.56,4,2.45,6.35,2.98,5.36,1.19,10.71,2.44,16.07,3.65,1.3,.29,2.61,.55,3.92,.82,.88,.18,1.64,.55,2.2,1.3,.52,.71,1.23,1.24,1.96,1.73,3.72,2.5,7.18,5.33,10.48,8.36,1.71,1.56,3.59,2.91,5.79,3.74,.82,.31,1.64,.58,2.52,.68,2.62,.28,5.13,1.04,7.64,1.8,.83,.25,1.63,.55,2.46,1.27-.23,.04-.45,.05-.65,.05-.65,0-1.19-.16-1.71-.31-.96-.28-1.91-.43-2.85-.43-1.37,0-2.71,.31-4.04,.97-.82,.41-1.73,.62-2.61,.92-.34,.11-.68,.17-1.02,.17-.26,0-.53-.03-.8-.1-.57-.15-1.13-.22-1.69-.22-.96,0-1.92,.21-2.85,.57-1.43,.56-2.87,1.11-4.28,1.73-1.59,.69-3.17,1.26-4.91,1.26-.24,0-.49-.01-.74-.03-.64-.06-1.28-.07-1.93-.07h-.36c-.12,0-.25,0-.38,0-.4,0-.8,0-1.19-.02-.06,0-.11,0-.17,0-.83,0-1.49,.28-1.91,1.04-.8,1.44-2.1,2.21-3.59,2.74-2.13,.77-4.27,1.47-6.5,1.89-.51,.1-1.02,.18-1.53,.18-.25,0-.51-.02-.77-.07-.18-.03-.36-.05-.54-.05-.59,0-1.17,.16-1.74,.31-.69,.18-1.38,.41-2.07,.61-.92,.27-1.84,.41-2.75,.41-1.15,0-2.29-.23-3.42-.75-1.84-.84-3.75-1.35-5.79-1.35-.11,0-.22,0-.32,0-2.11,.06-4.12,.5-5.79,1.8-3.15,2.46-6.87,3.88-10.32,5.8-.82,.46-1.67,.72-2.57,.72m-27.23,.15l-.06-.02c-1.22-.41-2.5-.33-3.76-.39-2.03-.09-4.07-.16-5.83-1.44-.6-.44-1.23-.83-1.87-1.21,1.88-.99,3.74-2.01,5.5-3.21,2.86-1.94,5.71-3.91,8.67-5.67,2.4-1.42,4.61-3.06,6.52-5.06,4.43-4.65,9.19-8.93,14.21-12.93,1.31-1.04,2.69-2,4.21-2.7,2.82-1.3,5.75-2.35,8.59-4.26-.16,.53-.16,.85-.28,.91-1.2,.54-1.83,1.8-3.13,2.28-1.77,.66-3.3,1.81-4.68,3.11-3.33,3.13-6.42,6.48-9.43,9.92-1.52,1.73-3.16,3.36-4.88,4.9-3.52,3.15-6.87,6.45-9.86,10.1-1.38,1.68-2.64,3.43-3.69,5.35-.06,.11-.15,.22-.24,.33m-321.65,.2c-1.28-.07-2.55-.15-3.82-.25l-.17-.19c-4.1-4.07-7.54-8.71-11.33-13.05-1.94-2.22-4.06-4.29-6.32-6.23-1.93-1.66-4.15-2.96-5.88-4.88-1.82-2-3.47-4.14-5.2-6.21-.73-.88-1.09-2.07-1.56-3.45,1.1,.9,2.04,1.47,3.12,1.83,.87,.29,1.59,.9,2.29,1.5,3.37,2.87,6.37,6.11,9.27,9.45,3.17,3.66,6.76,6.9,10.3,10.18,2.87,2.66,5.33,5.66,7.75,8.7,.62,.78,.99,1.77,1.56,2.6m322.79,0c.57-.83,.93-1.82,1.56-2.6,2.42-3.04,4.88-6.04,7.75-8.7,3.54-3.28,7.13-6.52,10.3-10.18,2.89-3.34,5.89-6.58,9.27-9.45,.71-.6,1.42-1.21,2.29-1.5,1.08-.36,2.02-.93,3.12-1.83-.47,1.39-.83,2.57-1.56,3.45-1.73,2.07-3.38,4.21-5.2,6.21-1.73,1.91-3.95,3.22-5.88,4.88-2.26,1.94-4.38,4.01-6.32,6.23-3.79,4.33-7.23,8.98-11.33,13.05l-.17,.19c-1.27,.1-2.55,.18-3.82,.25m-300.93,.11c-4.23-1.72-8.19-3.97-12.1-6.29-3.03-1.8-5.92-3.83-8.86-5.77-1.55-1.02-3.27-1.79-4.68-3.03-1.05-.92-2.2-1.74-3.2-2.71-2.45-2.4-5.06-4.65-7.29-7.27-.47-.55-1.07-.92-1.64-1.31-3.15-2.11-5.71-5-9.07-6.84-1.81-.99-3.66-1.86-5.57-2.6-1.74-.68-3.3-1.65-4.83-2.69-.25-.17-.51-.37-.68-.61-.78-1.12-1.52-2.26-2.42-3.59,2.39,.94,4.58,1.77,6.51,3.16,.96,.69,1.93,1.37,2.95,1.96,1.75,1.01,3.37,2.18,4.86,3.52,1.64,1.48,3.33,2.91,5.02,4.33,1.26,1.06,2.49,2.11,3.96,2.89,1.08,.58,1.99,1.43,2.81,2.36,2.05,2.31,4.19,4.58,6.83,6.17,2.14,1.28,4.03,3.05,6.55,3.67,.74,.18,1.38,.59,2.02,.99,1.91,1.19,3.95,2.1,6.09,2.77,2.18,.68,4.3,1.55,6.48,2.27,2.21,.73,4.42,1.7,6.22,3.29,.42,.37,.9,.33,1.33,.61,1.81,1.16,3.68,2.23,5.66,3.1,.5,.22,1.01,.48,1.39,.92l.14,.14c-.47,.06-.95,.11-1.42,.15-2.35,.19-4.7,.32-7.05,.42m-10.11,.19c-.6,0-1.2,0-1.8,0-2.86-.01-5.72-.08-8.58-.22-.16-.2-.36-.4-.47-.6-1.05-1.91-2.31-3.67-3.69-5.35-2.99-3.65-6.35-6.95-9.86-10.1-1.71-1.53-3.36-3.17-4.88-4.9-3.01-3.44-6.11-6.79-9.43-9.92-1.38-1.3-2.91-2.45-4.68-3.11-1.3-.48-1.93-1.74-3.13-2.28-.12-.05-.12-.37-.29-.91,2.84,1.92,5.78,2.96,8.6,4.26,1.52,.7,2.9,1.66,4.21,2.7,5.02,4,9.79,8.27,14.21,12.93,1.91,2,4.12,3.63,6.52,5.06,2.97,1.76,5.82,3.73,8.67,5.67,2.92,1.98,6.1,3.49,9.19,5.17,.86,.47,1.68,1.04,2.56,1.47l.07,.03c-2.41,.07-4.82,.09-7.23,.09m93.19,.81c-4.45-2.26-9.1-3.98-13.89-5.35-5.02-1.43-10.06-2.79-15.09-4.18-2.71-.75-5.45-1.38-8.1-2.34-2.34-.85-4.49-1.96-6.42-3.55-2.02-1.67-4.39-2.74-6.73-3.86-1.71-.81-3.28-1.79-4.57-3.16-1.8-1.92-3.99-3.28-6.26-4.51-.94-.51-1.81-1.11-2.7-1.67-1.23-.78-2.5-1.08-3.82-1.08-.5,0-1.01,.04-1.53,.12-.22,.03-.42,.05-.62,.05-.51,0-.97-.14-1.47-.51-.67-.49-1.39-.78-2.15-.94,.12-.06,.24-.11,.36-.17,1.28-.64,2.55-.98,3.82-.98,1.47,0,2.92,.46,4.32,1.45,1.1,.78,2.22,1.46,3.55,1.79,.49,.12,.94,.4,1.41,.6,3.23,1.41,5.92,3.66,8.76,5.67,.35,.24,.66,.4,1.08,.51,1.66,.41,3.18,1,4.25,2.51,1.34,1.9,3.21,3.15,5.45,3.83,1.13,.35,2.23,.77,3.36,1.11,6.61,2.04,13.34,3.71,19.71,6.5,2.68,1.17,5.49,1.99,8.38,2.54,2.57,.49,5.16,.89,7.63,1.8,1.98,.73,3.98,1.34,6.3,1.4-.39,.6-.88,.64-1.29,.8-1.1,.42-2.21,.81-3.26,1.37-.16,.09-.32,.17-.48,.25m-2.78,1.29c-1.32-.95-2.75-1.72-4.28-2.28-2.78-1.02-5.69-1.48-8.6-1.96-3.21-.52-6.37-1.27-9.53-2.07-2.25-.57-4.55-.98-6.69-1.91-3.65-1.58-7.5-2.68-11-4.63-2.53-1.4-4.92-3.01-7.24-4.71-2.62-1.92-5.36-3.64-8.05-5.44-1.26-.85-2.54-1.67-3.78-2.55-1.37-.97-3.03-1.24-4.68-1.47-.05,0-.1,0-.16,0-.07,0-.15,0-.23,0-.08,0-.15,.01-.23,.01-.24,0-.47-.05-.65-.31-.5-.75-1.02-1.49-1.48-2.26-.17-.29,.12-.45,.39-.49,.39-.05,.78-.08,1.15-.08,1.3,0,2.54,.33,3.62,1.12,1.28,.93,2.62,1.74,3.99,2.5,1.59,.88,2.98,2,4.23,3.25,1.39,1.39,3.04,2.39,4.58,3.55,.34,.26,.75,.47,1.17,.57,2.46,.6,4.39,2.13,6.34,3.59,1.48,1.11,2.98,2.29,4.73,2.82,2.06,.62,4.03,1.46,6.14,1.97,4.18,1,8.36,2,12.45,3.35,2.61,.86,5.31,1.48,7.95,2.26,1.95,.58,3.97,1.05,5.79,1.92,1.84,.89,3.86,1.42,5.57,2.58-.5,.23-1.01,.46-1.53,.67m-32.38,1.4c-2.19-.31-4.35-.77-6.45-1.61-.09-.04-.19-.05-.3-.05s-.21,.01-.31,.03c-.12,.02-.25,.03-.37,.03-.44,0-.87-.11-1.3-.2-4.59-.87-9.14-1.93-13.85-2.07-2.2-.06-4.39-.48-6.59-.71-.64-.07-1.14-.33-1.61-.77-1.44-1.32-2.94-2.57-4.37-3.9-1.66-1.53-3.55-2.56-5.72-3.21-4.38-1.31-8.7-2.77-12.92-4.54-1.33-.55-2.72-.86-4.16-1.08-3.68-.56-7.15-1.78-10.42-3.57-2.59-1.41-4.71-3.38-6.73-5.44,.07-.17,.18-.2,.29-.2,.04,0,.07,0,.1,0,.41,.03,.82,.04,1.23,.04,2.63,0,5.2-.56,7.79-.96,2.24-.35,4.45-.8,6.37-2.12,.41-.28,.94-.41,1.42-.57,1.27-.41,2.57-.73,3.82-1.2,2.3-.86,4.64-1.3,7.01-1.3,1.29,0,2.59,.13,3.9,.4,.51,.11,1.01,.15,1.5,.15,.27,0,.53-.02,.79-.04l.23,.02c.27-.03,.53-.05,.79-.05,2.76,0,4.47,1.75,5.72,4.09,1.57,2.93,3.65,5.4,6.1,7.62,1.66,1.51,3.43,3.01,5.37,3.97,1.95,.96,3.78,2.14,5.78,3.04,4.03,1.81,7.57,4.42,10.64,7.62,2.09,2.18,4.15,4.39,6.22,6.58m7.86,.88c-.2-.02-.39-.04-.59-.07-1.88-.24-3.77-.39-5.65-.61-.75-.56-1.27-1.34-1.82-2.18,1.47,.45,3.01,.75,4.39,1.38,1.2,.55,2.48,.91,3.68,1.47m14.84,.1c-.48-.94-1.56-1.15-2.33-1.64-2.9-1.83-6.16-2.87-9.38-3.99-3.34-1.17-6.78-2.13-10-3.57-5.35-2.39-10.78-4.68-15.61-8.11-3.31-2.35-6.65-4.65-10.58-5.9-.54-.17-1.07-.48-1.61-.49-1.63-.03-2.59-1.03-3.51-2.17-.58-.71-1.19-1.41-1.64-2.2,.13-.24,.29-.3,.47-.3,.16,0,.33,.05,.5,.06,1.15,.07,2.26,.41,3.18,1.06,4.27,3.04,8.86,5.61,13.04,8.78,2.09,1.59,4.32,2.95,6.62,4.22,2.32,1.28,4.76,2.29,7.31,3.03,.77,.22,1.47,.63,2.19,.95,4.21,1.89,8.74,2.55,13.15,3.67,3.58,.91,7.31,1.12,10.87,2.14,2.08,.59,4.12,1.28,5.9,2.54-.94,.37-1.89,.71-2.84,1.05-1.07,.38-2.17,.62-3.31,.71-.81,.06-1.61,.12-2.42,.17m-5.91,.27c-.09-.19-.23-.36-.42-.54-1.62-1.47-3.52-2.46-5.57-3.18-3.01-1.06-6.13-1.71-9.21-2.51-1.61-.42-3.1-1.12-4.63-1.72-.14-.05-.27-.15-.41-.17-2-.25-3.2-1.76-4.58-2.96-2.11-1.84-4.55-3.16-6.97-4.5-2.47-1.37-4.99-2.64-7.46-4.01-1.57-.87-3.04-1.9-4.44-3.25,.15-.06,.28-.08,.39-.08,.24,0,.43,.09,.63,.15,3.92,1.26,7.22,3.64,10.59,5.9,2.12,1.42,4.32,2.7,6.55,3.95,1.92,1.08,4.05,1.69,5.9,2.88,1.43,.91,2.99,1.57,4.56,2.11,1.84,.63,3.7,1.24,5.56,1.83,2.55,.81,5.08,1.73,7.56,2.69,1.91,.74,3.89,1.5,5.59,2.77,.2,.15,.41,.32,.63,.46-1.42,.08-2.85,.14-4.27,.17"/><path class="cls-1" d="M841.89,128.48v-43.07h0v-1.62c-1.47,.06-2.91-.22-4.2-1.13-1.03-.72-2.2-.8-3.39-.78-.52,0-1.04,.02-1.57,.04,2.17-2.41,3.65-5.27,5.06-8.16,.77-1.58,1.2-3.32,1.89-4.95,.55-1.29,1.13-2.57,2.21-3.44v-2.69c-1.04-.02-2.02,.21-2.97,.68-3.17,1.57-6.43,2.98-9.16,5.33-1.52,1.31-3.36,1.42-5.25,1.19-2.61-.33-5.08-1.29-7.66-1.73-.33-.06-.53-.27-.76-.48-.95-.87-1.95-1.6-3-2.22,.32-.46,.77-.81,1.29-1.02,2.23-.91,4.66-1.35,6.73-2.67l.14-.07c2.11-.69,4.16-1.54,6.21-2.36,.71-.28,1.51-.57,2.23-1.06,1.73-1.19,3.26-2.61,4.95-3.83,1.51-1.09,2.77-2.34,3.58-4.08,.49-1.05,1.25-2,2.5-2.33,.37,.29,.76,.55,1.15,.8v-2.14c-1.17-.92-2.26-1.94-3.39-2.9-1.29-1.1-2.61-1.32-4.13-.65-1.37,.6-2.67,1.32-3.79,2.33-1.36,1.22-2.87,1.9-4.79,1.52-1.37-.27-2.65,.21-3.77,1.01-1.63,1.17-3.27,2.32-4.86,3.54-1,.77-2.03,1.17-3.21,1.13,.94-1.93,1.74-3.91,2.29-6,.88-3.36,2.19-6.52,4.5-9.22,1.3-1.52,2.68-2.97,3.89-4.56,2.44-3.23,5.17-6.21,7.84-9.24,2.4-2.72,5.33-4.78,8.42-6.59,.34-.2,.67-.41,.99-.61v-1.43c-1.27,.83-2.54,1.67-3.79,2.53-1.35,.92-2.8,1.73-3.92,2.92-.61,.65-1.22,.99-2.07,1.08-1.51,.17-3.02,.44-4.4,1.04-1.38,.61-2.74,1.27-4.11,1.92-1.65,.8-3.1,1.85-4.41,3.21-1.48,1.53-3,3.04-4.94,4.12-3.25,1.82-6.1,4.2-8.6,7-2.04,2.29-3.97,4.68-6.25,6.75-2.2,2-3.96,4.38-5.66,6.78-.69,.99-1.57,1.82-2.28,2.79-.79-.68-1.6-1.34-2.42-1.98,2.01-2.54,4.09-5.04,6.08-7.59,2.06-2.64,4.35-5.02,7.2-6.84,.98-.63,2.01-1.25,2.82-2.08,2.74-2.78,5.39-5.65,8.07-8.49,.31-.33,.57-.72,.81-1.11,1.22-1.91,2.64-3.62,4.34-5.12,1.39-1.23,2.92-2.01,4.82-1.96,1.96,.04,3.88-.42,5.82-.61,.7-.07,1.37-.31,1.98-.73,1.27-.87,2.45-1.88,3.44-3.04,1.88-2.2,4.49-3,7.04-3.92,.13-.05,.27-.09,.4-.13v-1.03c-.23,.07-.46,.15-.68,.22-3.06,.94-5.98,2.02-8.12,4.57-.53,.63-1.15,1.17-1.75,1.74-.81,.77-1.78,1.26-2.88,1.39-1.99,.25-3.96,.6-5.98,.6-1.02,0-1.99,.29-2.88,.79-2.53,1.39-4.39,3.45-5.88,5.88-.83,1.35-1.91,2.52-2.98,3.65-1.27,1.34-2.68,2.55-3.85,3.97-1.52,1.85-3.32,3.31-5.31,4.61-1.54,1.01-3.05,2.09-4.31,3.46-3.24,3.52-6.04,7.4-9.09,11.09-.91-.68-1.83-1.35-2.77-1.98-.29-.2-.64-.35-.82-.8,1.5-.86,2.35-2.32,3.32-3.7,.71-1.01,1.47-1.98,2.25-2.93,1.3-1.59,2.57-3.2,3.65-4.96,1.2-1.96,2.83-3.52,4.67-4.86,1.21-.88,2.37-1.81,3.37-2.92,.65-.73,1.44-1.14,2.43-1.13,1.95,.01,3.41-.9,4.61-2.39,1.42-1.76,2.92-3.45,4.39-5.17,1.49-1.74,3.24-3.13,5.33-4.11,1.19-.56,2.44-.93,3.73-.73,2.68,.42,4.73-.74,6.51-2.48,1.14-1.11,2.34-1.96,3.9-2.33,1.12-.26,2.1-.87,2.98-1.58,1.65-1.33,3.49-1.89,5.58-1.79,.2,0,.4,0,.6,0v-1.73c-.82,.06-1.64,.05-2.46,.08-1.49,.06-2.81,.53-4.03,1.38-.92,.63-1.79,1.4-2.86,1.73-2.16,.66-4.02,1.69-5.62,3.33-1.11,1.14-2.48,1.8-4.27,1.65-4.31-.36-7.53,1.86-10.36,4.81-.38,.4-.57,1.01-.99,1.34-1.42,1.11-2.31,2.68-3.52,3.96-1.11,1.19-2.13,2.46-4.07,2.33-1.17-.08-2.21,.46-2.98,1.45-1.15,1.48-2.84,2.36-4.26,3.53-1.27,1.05-2.46,2.11-3.42,3.43-.83,1.14-1.61,2.32-2.44,3.47-1.76,2.43-3.85,4.6-5.42,7.17-.41,.68-1.09,1.15-1.79,1.59-.45,.28-.66,.32-1-.08-.75-.89-1.72-1.34-2.87-1.59-3.59-.77-7.14-1.68-10.73-2.43-2.35-.49-4.64-1.19-7-1.61-3.21-.57-6.31-1.43-8.85-3.72-.93-.83-2.23-1.14-3.54-1.22-2.58-.17-5.15-.11-7.68,.43-4.43,.95-8.2,3.05-10.78,6.87-.84,1.24-1.73,2.42-2.89,3.33-2.32,1.82-4.7,3.57-7.09,5.31-.46,.34-.64,1.12-1.17,1.24-5.1,4.98-8.68,5.53-10.22,7.12-2.02,2.06-4.14,4.03-6.73,5.44-3.27,1.79-6.75,3.01-10.42,3.57-1.44,.22-2.83,.52-4.16,1.08-2.82,1.18-5.68,2.22-8.58,3.17-.93-.04-1.86-.03-2.8-.02-2.2,0-4.4-.03-6.6-.02-.53,0-3.1,.14-4.11,.24-1.23,.12-2.43,.17-3.68-.1-2.11-.45-4-1.33-5.81-2.44-.85-.52-1.68-1.11-2.22-1.96-.67-1.06-1.47-.66-2.39-1.49-.47-.43-.91-.88-1.31-1.38-.82-1.03-1.85-1.84-3.03-2.42-1.48-.73-2.8-1.7-3.9-2.91-1.28-1.41-2.77-2.5-4.44-3.36-1.11-.57-2.26-1.05-3.42-1.53-1.05-.43-1.91-.43-2.92-.12-1.64,.51-3.33,.35-4.93-.03-2.01-.48-4.01-1.07-5.94-1.85-1.67-.67-3.34-1.33-5.01-1.99-1.42-.56-2.89-.96-4.34-1.4-1.43-.43-2.88-.3-4.32-.05-.63,.11-1.3,.37-1.66,.93-.41,.64-1.02,.91-1.66,1.2-.71,.32-1.46,.58-2.05,1.12-1.16,1.07-2.48,1.89-3.88,2.6-.25,.13-.47,.3-.66,.51-.43,.48-.95,.84-1.53,1.09-1.42,.61-2.76,1.33-3.59,2.72-.07,.11-.22,.17-.34,.24-1.02,.69-2.17,.89-3.33,.61-.73-.18-1.48-.32-2.21-.52-.73-.2-1.44-.09-2.19,.35-1.62,.96-3.35,1.73-5.03,2.58-.15,.08-.35,.16-.42,.29-.33,.61-.93,.92-1.41,1.37-.87,.83-1.84,1.31-3.02,1.45-.39,.04-.8,.08-1.14,.26-.27,.14-.46,.09-.73,.07-1.38-.09-2.74-.35-4.11-.52-1.13-.14-2.08,.15-2.81,1.11-1.06,1.39-2.51,2.27-4.08,2.97-.84,.38-1.7,.72-2.54,1.08-.49,.21-.98,.42-1.38,.79-.85,.78-1.87,1.27-2.94,1.66-1.37,.49-2.76,.91-4.09,1.48-1.85,.79-3.75,1.27-5.77,1.31-.79,.01-2.87,.53-4.37,.93-.32-.08-.62-.16-.86-.21-.78-.16-2.97-.83-5.59-1.69-3.1-1.39-5.88-2.82-7.13-3.66-2.45-1.63-4.94-3.58-7.85-5.2-1.83-1-4.22-3.71-13.59-.9-2.39,.64-4.67,1.61-7.1,2.15-1.78,.4-3.42,.15-5.07-.57-2.51-1.08-5.04-2.11-7.72-2.72-2.14-.49-4.33-.7-6.41-.07-3.41,1.03-6.29,.12-9.02-1.85-1.4-1.01-2.85-1.94-4.21-2.99-.44-.34-.83-.76-1.07-1.41-.4-1.12-1.04-2.19-1.75-3.15-1.09-1.46-1.93-3.04-2.76-4.64-.34-.66-.77-1.27-1.35-1.64-.89-.55-1.61-1.26-2.15-2.09-1.83-2.83-4.59-4.29-7.62-5.38-1.78-.64-3.51-1.35-5.16-2.28-1.24-.7-1.97-1.72-2.29-2.99-.43-1.68-1.4-2.71-2.92-3.51-1.34-.7-2.68-1.47-4.04-2.1-1.37-.63-1.9-1.73-2.02-2.89-.23-2.17-1.36-3.69-2.82-5.11-2.06-2.01-4.55-2.86-7.38-2.82-1.2,.01-2.31,.42-3.36,.93-.88,.43-1.53,.41-2.31-.31-1.01-.93-2.22-1.63-3.32-2.47-1.17-.9-2.47-1.45-3.94-1.6-1.64-.16-2.82-.86-3.92-2.22-1.18-1.46-2.89-2.51-5.06-1.8-.66,.21-1.23,.5-1.65,1.03-1.38,1.72-2.76,3.43-4.32,5-.31,.32-.67,.74-.71,1.15-.22,2.14-2.02,2.88-3.42,3.97-1.08,.85-2.18,1.69-3.24,2.56-1.24,1.02-1.83,2.34-2.13,3.94-.75,4.03-2.21,7.79-4.69,11.1-.81,1.09-1.71,1.96-3.29,1.94-1.32-.01-2.61,.42-3.79,1.09-.99,.56-2.05,1.1-2.43,2.22-.67,1.99-2.25,3.09-3.78,4.27-.16,.12-.36,.2-.51,.32-.57,.44-.94,1.24-1.63,1.36-.75,.13-.9-.85-1.43-1.24-2.39-1.73-4.77-3.49-7.09-5.31-1.16-.91-2.05-2.08-2.89-3.33-2.59-3.82-6.36-5.92-10.78-6.87-2.52-.54-5.1-.59-7.68-.43-1.31,.08-2.61,.39-3.54,1.22-2.55,2.28-5.65,3.14-8.85,3.72-2.37,.42-4.66,1.13-7,1.61-3.59,.74-7.15,1.66-10.73,2.43-1.15,.25-2.12,.7-2.87,1.59-.34,.4-.54,.36-1,.08-.7-.44-1.38-.91-1.79-1.59-1.58-2.57-3.67-4.74-5.42-7.17-.83-1.15-1.6-2.33-2.44-3.47-.96-1.32-2.15-2.38-3.42-3.43-1.42-1.17-3.11-2.05-4.26-3.53-.77-1-1.82-1.53-2.98-1.45-1.94,.13-2.95-1.14-4.07-2.33-1.21-1.29-2.09-2.85-3.52-3.96-.42-.33-.61-.94-.99-1.34-2.83-2.94-6.05-5.16-10.36-4.81-1.79,.15-3.16-.51-4.27-1.65-1.6-1.64-3.47-2.67-5.62-3.33-1.07-.33-1.94-1.1-2.86-1.73-1.22-.84-2.55-1.32-4.03-1.38-1.13-.04-2.26-.01-3.39-.18-1.96-.29-3.51-1.31-4.7-2.79-.63-.78-1.35-1.49-1.89-2.37-1.13-1.81-3.76-2.19-5.47-.71-1.14,.98-2.07,2.15-2.66,3.51-.6,1.37-1.32,2.61-2.34,3.7-1.12,1.2-2.13,2.49-3.18,3.74-.47,.56-1.03,.96-1.76,1.14-1.24,.31-2.35,.93-3.44,1.56-1.41,.8-2.78,1.66-4.38,2.08-.33,.09-.69,.29-.92,.54-1.38,1.49-3.38,2.09-4.84,3.45-.41,.38-.7,.1-.92-.07-.52-.41-.98-.9-1.44-1.39-.57-.6-1.2-1.01-2.06-1.12-1.48-.17-2.57-1.25-3.91-1.77-1.84-.72-3.71-1.35-5.63-1.82-1-.24-1.98-.1-2.94,.46-1.32,.78-2.69,1.49-3.69,2.69-1.32,1.59-3.04,2.41-5.05,2.6-1.38,.14-2.37,.78-3.18,1.9-1.12,1.55-2.47,2.89-3.88,4.17-1.35,1.22-2.93,2.06-4.77,2.34-.51,.08-1.01,.19-1.52,.28-1.12,.18-2.04,.71-2.66,1.67-1.29,1.97-2.86,3.75-3.68,6.03-.38,1.04-1.16,1.93-1.79,2.86-.32,.48-.8,.8-1.37,.95-.4,.1-.8,.28-1.19,.27-3.4-.09-5.83,1.75-8,4.03-.76,.8-1.62,1.21-2.65,1.43-2.41,.51-4.58,1.52-6.35,3.26-.53,.52-1.07,.73-1.78,.68-1.28-.09-2.57-.15-3.85-.24-2.14-.14-4.2,.21-6.15,1.11-1.73,.79-3.45,1.58-5.16,2.41-1.28,.62-2.59,.92-4.02,.83-1.49-.09-2.97,0-4.46,.2-2.21,.3-3.94,1.39-5.4,3.01-1.14,1.27-2.14,2.64-2.89,4.17-.27,.54-.58,.76-1.18,.7-1.71-.17-3.12,.5-4.26,1.74-1.72,1.87-3.86,3.03-6.23,3.83-1.17,.39-2.33,.8-3.49,1.2-.73,.25-1.47,.5-2.08,.99-1.44,1.14-3.12,1.76-4.86,2.24-2.62,.71-5.24,1.41-7.86,2.15-.72,.2-1.42,.19-2.13,.05-3.38-.68-6.79-1.34-9.93-2.75-3.51-1.58-6.96-1.6-10.49-.41-.97,.32-1.8,.22-2.67-.17-1.51-.68-2.89-1.5-4.04-2.75-.54-.6-1.14-1.14-1.75-1.68,0-.15-.16-.27-.33-.35l-.13-.05c-.4-.35-.8-.7-1.19-1.06-2.29-2.12-4.99-3.18-8.11-3.23-2.83-.05-5.66-.16-8.45-.68-3.93-.73-7.58-2.21-11-4.26-.6-.36-1.14-.8-1.63-1.3-.03-.28-.17-.49-.48-.53-1.03-1.14-2.33-1.74-3.85-2.02-2.58-.47-5.21-.57-7.77-1.15-1.01-.22-2.01-.47-3.02-.68v1.84c1.19,.26,2.38,.5,3.58,.71-1.24,.26-2.39,.79-3.58,1.2v1.13c.14,0,.28-.03,.43-.08,1.8-.63,3.5-1.58,5.4-1.89,.83,.12,1.65,.24,2.48,.34l-.08,.04C5.62,56.04,2.87,56.94,0,57.54v.94c1.61-.32,3.24-.51,4.8-1.07,1.97-.71,3.76-1.87,5.77-2.49,.62,.13,1.2,.33,1.74,.64-.46,.14-.91,.33-1.35,.59-1.92,1.14-3.67,2.55-5.55,3.74-1.15,.73-2.32,1.43-3.6,1.88-.42-.11-.84-.24-1.25-.38-.19-.07-.37-.1-.56-.12v1.85H.06c.61,.07,1.21,.25,1.82,.38,1.05,.23,2.09,.57,3.15,.73,3.24,.49,5.89,2.32,8.72,3.75,.42,.21,.75,.55,1.01,.94,1.43,2.12,3.72,3.01,5.88,4.05,1.04,.5,2.1,.28,3.05-.41,1.71-1.25,3.64-.79,5.51-.64,.51,.04,.89,.49,1.18,.93,.61,.89,1.48,1.4,2.49,1.72,.34,.11,.72,.19,.99,.4,1.28,1,2.73,.97,4.25,.95,3.78-.04,7.42-.95,11.11-1.59,2.89-.51,5.67-1.39,8.52-2.03,1.28-.29,2.55-.27,3.8,.12,2.28,.71,4.46,1.7,6.91,2.27-.57,.6-1.19,.51-1.71,.6-2.47,.44-4.91,.75-7.47,.73-3.29-.02-6.68,.12-9.83,1.48-.8,.34-1.65,.57-2.5,.77-2.8,.67-5.55,1.45-8.28,2.39-3.64,1.25-7.45,1.58-11.27,1.18-4.87-.51-9.74-.64-14.63-.49-.41,.01-.85-.04-1.23,.08-2.04,.66-3.84-.02-5.6-.95-1.64-.86-3.29-1.69-5.13-2.05-.27-.05-.54-.09-.82-.13v45.36s0,0,0,0v4.82H841.89ZM18.31,59.91c-2.04,.57-4.12,.97-6.1,1.74-1.65,.64-3.38,.9-5.09,1.27-.82-.26-1.65-.46-2.53-.58-.31-.04-.63-.1-.94-.15,.52-.28,1.03-.59,1.53-.91,2.42-1.51,4.75-3.16,7.15-4.71,.28-.18,.6-.26,.92-.28,.17,.16,.33,.34,.48,.53,.78,.98,1.84,1.65,2.92,2.24,.54,.3,1.09,.58,1.64,.85h0Zm4.23,1.8c-1.91,.41-3.73,1.12-5.54,1.86-1.78,.73-3.59,1.25-5.52,1.22-.87-.45-1.74-.87-2.64-1.24,2.36-.49,4.7-1.04,6.97-1.97,1.1-.45,2.41-.56,3.6-.91,.14-.04,.31-.01,.45-.04,.88,.39,1.77,.75,2.67,1.07h0Zm9.15,1.8c-1.76,.61-3.49,1.34-5.25,1.93-3.36,1.14-6.79,2.09-10.4,1.92-.1,0-.19,0-.28,0-.34-.4-.77-.72-1.24-.97-.5-.26-1-.53-1.49-.79h.08c2.16-.35,4.25-.88,6.29-1.79,1.51-.67,3.1-1.43,4.89-1.35,.21,0,.42,.01,.63,0,2.1,.58,4.27,.94,6.52,1.04h.26Zm8.28,.97c-.41,.18-.83,.36-1.25,.52-2.23,.83-4.63,1.05-6.87,1.84-1.97,.7-3.85,1.54-5.55,2.77-.18,.13-.37,.26-.53,.41-1.12,.1-2.2,.42-3.21,1.18-.47,.35-.96,.34-1.45,.09-1.61-.84-3.33-1.51-4.57-2.88,.29,.02,.59,.04,.91,.07,1.6-.36,3.32-.31,4.97-.9,1.05-.37,2.22-.26,3.32-.61,1.59-.51,3.03-1.41,4.63-1.84,1.37-.36,2.63-1.04,3.98-1.46,.72,.04,1.43,.08,2.15,.1,1.23,.03,2.39,.27,3.46,.71h0Zm3.51,2.36c-1.24,.45-2.48,.89-3.74,1.27-2.82,.84-5.44,2.15-8.03,3.51l-.08,.04-.1-.13c-.58-.86-1.45-1.3-2.47-1.4-.48-.04-.95-.09-1.43-.12,1.92-1.18,4.08-1.8,6.17-2.62,2.4-.94,5.1-.65,7.33-2.08l.21-.12c.38,.23,.74,.49,1.1,.78,.35,.28,.69,.57,1.02,.87h0Zm3.3,3.02c-.82,.39-1.7,.63-2.51,1.04-1.79,.92-3.72,1.26-5.69,1.51-1.42,.18-2.83,.51-4.24,.84-.23-.1-.48-.18-.72-.26-.37-.12-.72-.27-1.03-.46,.4-.2,.81-.4,1.18-.64,2.06-1.36,4.38-2.1,6.7-2.86,1.32-.43,2.63-.91,3.93-1.38,.24,.21,.48,.43,.73,.64,.57,.49,1.1,1.04,1.64,1.57h0Zm3.09,2.38c-4.06,.99-8.07,1.88-12.21,1.99-.74,.02-1.45-.02-2.1-.3,1.2-.15,2.36-.56,3.59-.64,2.41-.14,4.66-.89,6.84-1.89,.54-.25,1.12-.44,1.59-.79,.68,.62,1.42,1.2,2.3,1.63h0Zm406.53-14.45c-1.77-.61-3.01-2.04-4.6-2.92-.34-.19-.59-.48-.98-.65-2.38-1.03-4.28-2.69-5.78-4.8-2.94-4.13-6.72-7.19-11.44-9.11-1.76-.72-3.53-1.46-5.09-2.63-1.01-.75-1.87-1.66-2.82-2.46-1.71-1.44-3.67-2.13-5.75-2.57-2.08-.44-4.17-.87-6.2-1.52-1.85-.6-3.55-1.51-5.08-2.69-.74-.57-1.29-1.3-1.65-2.28-.5-1.36-.68-2.82-1.34-4.18,.48,.32,.99,.6,1.45,.95,1.39,1.08,3,1.68,4.62,2.35,2.73,1.12,5.42,2.35,7.75,4.29,1.8,1.5,3.94,2.5,6.27,3.06,1.44,.34,2.64,1.27,3.86,2.05,.67,.43,1.45,.65,2.06,1.13,.96,.76,2.01,1.42,2.8,2.4,.67,.84,1.47,1.58,2.42,2.11,2.9,1.63,5.47,3.73,8.18,5.62,1.58,1.1,3.13,2.26,4.86,3.15,2.31,1.2,4.14,2.94,5.66,5.05,1.08,1.51,2.51,2.74,3.59,4.26-.82-.09-1.65-.09-2.48-.01,.06-.27-.1-.52-.32-.6h0Zm-.85,.75l-.14,.02c-2.13,.36-4.24,.83-6.25,1.62l-.11,.04c-4.18-2.92-8.37-5.82-12.49-8.84-1.19-.87-2.22-2.01-3.14-3.17-1.99-2.52-4.54-4.39-7.18-6.11-1.21-.79-2.72-1.12-4.08-1.7-2.73-1.15-5.24-2.71-7.73-4.31-1.43-.92-2.87-1.8-4.07-3.03-.99-1.02-1.92-2.06-2.34-3.75,1.4,.84,2.49,1.73,3.74,2.18,1.58,.57,3.18,1.15,4.86,1.46,1.75,.32,3.48,.75,5.2,1.21,1.08,.29,2.01,.93,2.87,1.64,.87,.72,1.7,1.48,2.54,2.24,1.75,1.57,3.87,2.65,6,3.38,4.1,1.42,7.1,4.09,9.78,7.28,1.58,1.88,3.02,3.89,5.1,5.3,.33,.22,.62,.4,1.01,.55,1.43,.55,2.61,1.54,3.83,2.44,.82,.6,1.62,1.26,2.6,1.54h0Zm-7.71,2.13c-.79,.27-1.59,.5-2.41,.67-2.03-1.07-3.81-2.54-5.75-3.75-2.08-1.3-4.03-2.82-6.08-4.17-1.39-.91-2.86-1.72-4.3-2.54-.65-.37-1.23-.8-1.75-1.34-1.67-1.72-3.32-3.46-5.22-4.93-1.76-1.37-3.62-2.56-5.86-3.02-1.48-.3-2.57-1.38-3.84-2.08-.4-.22-.58-.72-.61-1.16-.02-.37-.27-.74-.25-.97,.05-.53-.72-.96-.26-1.35,.4-.34,.71,.34,1.13,.45,1.74,.48,2.95,1.9,4.55,2.64,1.51,.7,2.82,1.71,4.48,2.21,2.8,.83,5.36,2.25,7.52,4.27,1.13,1.05,2.23,2.13,3.29,3.26,2,2.14,4.12,4.15,6.63,5.7,3.03,1.87,5.69,4.26,8.73,6.11h0Zm-4.15,.93c-.46,.04-.94,.07-1.41,.07-1.02,0-2.08,.09-3.06,.36-1.65,.46-3.03,0-4.35-.9-.55-.38-1.09-.77-1.6-1.2-1.18-.98-2.44-1.8-3.77-2.52-1.25-.97-2.34-2.12-3.54-3.15-1.63-1.4-3.38-2.62-5.03-3.99-.82-.68-1.53-1.46-2.17-2.35-.66-.92-1.47-1.69-2.67-2.08-1.28-.42-2.45-1.19-3.64-1.87-.76-.44-1.05-2.61-.48-3.19,.09-.09,.29-.15,.42-.12,.19,.04,.39,.13,.55,.25,1.56,1.25,3.51,1.61,5.3,2.34,1.29,.52,2.4,1.36,3.43,2.26,1.39,1.22,2.85,2.36,4.1,3.73,1,1.1,2.06,2.12,3.4,2.81,3.46,1.79,6.54,4.19,9.76,6.36,1.59,1.07,3.18,2.13,4.77,3.19h0Zm-30.32-15.95c.95,.39,1.75,1.09,2.79,1.34,.72,.18,1.24,.79,1.6,1.38,1.15,1.89,2.88,3.17,4.6,4.43,1.24,.91,2.4,1.92,3.54,2.94l-.11-.05c-1.26-.5-2.4-1.11-3.52-1.84-1.22-.79-2.47-1.28-3.74-1.48-2.59-1.85-4.01-4.72-6.15-6.98,.49-.32,.7,.13,.99,.25h0Zm27.24,20.91c1.34,1.9,3.21,3.15,5.45,3.83,1.13,.35,2.23,.76,3.36,1.11,6.61,2.04,13.34,3.71,19.71,6.5,2.68,1.17,5.49,1.99,8.38,2.54,2.57,.49,5.16,.89,7.63,1.8,1.98,.73,3.98,1.34,6.3,1.4-.39,.6-.88,.64-1.29,.8-1.1,.42-2.21,.81-3.26,1.37-.16,.09-.32,.17-.48,.25-4.45-2.25-9.1-3.98-13.89-5.34-5.02-1.43-10.06-2.79-15.09-4.18-2.71-.75-5.45-1.38-8.1-2.34-2.34-.85-4.49-1.96-6.42-3.55-2.02-1.67-4.39-2.74-6.73-3.86-1.7-.81-3.28-1.79-4.56-3.16-1.8-1.92-3.99-3.28-6.26-4.51-.94-.51-1.81-1.11-2.7-1.67-1.7-1.07-3.47-1.25-5.35-.96-.79,.12-1.4,.06-2.09-.46-.67-.49-1.39-.78-2.15-.94,.12-.05,.24-.11,.36-.17,2.76-1.38,5.53-1.36,8.13,.47,1.1,.78,2.22,1.46,3.55,1.79,.49,.12,.94,.4,1.41,.6,3.23,1.41,5.92,3.66,8.76,5.67,.35,.24,.66,.4,1.08,.51,1.66,.41,3.18,1,4.25,2.51h0Zm-93.92-17.68c-.12-.05-.12-.37-.29-.9,2.84,1.92,5.78,2.96,8.59,4.26,1.52,.7,2.91,1.66,4.21,2.7,5.02,4,9.79,8.27,14.21,12.93,1.91,2,4.12,3.63,6.52,5.06,2.97,1.76,5.82,3.73,8.67,5.67,2.92,1.98,6.1,3.49,9.19,5.17,.86,.47,1.68,1.04,2.56,1.47l.07,.03c-3.01,.08-6.02,.1-9.03,.09-2.86-.01-5.72-.08-8.58-.22-.16-.2-.36-.4-.47-.59-1.05-1.91-2.31-3.67-3.69-5.35-2.99-3.65-6.35-6.95-9.86-10.1-1.71-1.53-3.36-3.17-4.87-4.9-3.01-3.44-6.11-6.79-9.43-9.92-1.38-1.3-2.91-2.45-4.68-3.11-1.3-.48-1.93-1.74-3.13-2.28h0Zm3.6,3.74c.87,.29,1.59,.9,2.29,1.5,3.37,2.87,6.37,6.11,9.27,9.45,3.17,3.66,6.76,6.9,10.3,10.18,2.87,2.66,5.33,5.66,7.75,8.7,.62,.78,.99,1.77,1.56,2.6-1.28-.07-2.55-.15-3.82-.26l-.17-.19c-4.1-4.07-7.54-8.71-11.33-13.05-1.94-2.22-4.06-4.29-6.32-6.23-1.93-1.66-4.15-2.96-5.88-4.88-1.82-2-3.47-4.14-5.2-6.21-.73-.88-1.09-2.07-1.56-3.45,1.1,.9,2.04,1.47,3.12,1.83h0Zm57.07,34.1c1.28-.07,2.57-.09,3.84-.3,1.37-.23,2.75-.37,4.12-.57,1.43-.22,2.92-.37,4.3-.06,1.34,.31,2.69,.22,4.02,.44,1.42,.23,2.86,.35,4.29,.43,3.88,.22,7.73,.69,11.52,1.63-.11,.42-.46,.4-.74,.48-1.33,.4-2.66,.79-3.98,1.22-1.29,.42-2.46,1.06-3.38,2.08-1,1.11-2.24,1.77-3.69,2.09-.9,.2-1.81,.38-2.71,.58-1.14,.25-2.11,.77-2.8,1.76-.79,1.12-1.89,1.87-3.11,2.45-2.44,1.16-5.05,1.69-7.68,2.16-2.49,.44-4.79,.09-6.86-1.49-.91-.7-2.04-.94-3.19-1.02-4.36-.32-8.73-.23-13.1-.25-3.06-.02-6.03,.49-8.91,1.54-2.32,.84-4.69,1.51-7.05,2.2-4.15,1.2-8.22,2.64-11.85,5.06-2.59,1.74-5.41,2.66-8.53,2.75-1.43,.04-2.9,.1-4.21,.78-1.75,.9-3.53,.88-5.39,.39-3.22-.85-6.46-1.65-9.7-2.47-2.78-.7-5.36-1.83-7.56-3.67-4.06-3.4-8.92-4.76-13.96-5.66-3-.54-6.06-.09-9.08-.32-.56-.04-1.14,.06-1.68-.17-2.69-1.15-5.55-1.39-8.41-1.72-1.91-.22-3.9-.36-5.59-1.53-2.48-1.72-4.7-3.82-7.56-5.03,2.61-.93,5.21-.96,7.84-.66,2.05,.24,4.04,.75,6.02,1.27,4.16,1.1,8.36,1.8,12.65,1.08,3.55-.6,7.11-1.04,10.7-1.3,.92-.07,1.85-.36,2.61-.87,1.87-1.25,4-1.52,6.14-1.82,1.42-.2,2.85-.41,4.25-.73,3.13-.71,6.3-.97,9.49-.77,3.08,.2,6.15,.44,9.22,.74,2.64,.25,5.22,.23,7.75-.72,1.05-.4,2.16-.65,3.26-.89,2.41-.52,4.81-1.04,7.32-.64,2.64,.42,5.28,.83,7.94,1.08,11.13,1.04,22.28,1.06,33.43,.48h0Zm-113.9-30.93c-.76,.67-1.51,1.36-2.25,2.07-.17,.16-.33,.3-.51,.42-1.28-2.27-2.93-4.27-4.61-6.25-2.98-3.52-6.21-6.81-9.42-10.12-1.62-1.67-3.08-3.52-4.42-5.42-2.57-3.64-5.95-6.25-9.9-8.2-2.07-1.02-4.12-2.05-6.19-3.08-.18-.09-.42-.15-.51-.3-.53-.86-1.24-1.55-2.12-2.39,1.79,.21,3.27,.64,4.69,1.33,1.12,.54,2.22,1.13,3.38,1.61,1.97,.82,3.6,2.18,4.95,3.79,1.04,1.24,2.24,2.25,3.64,3.02,4.05,2.23,7.34,5.36,10.35,8.8,1.08,1.24,2.2,2.45,3.38,3.59,3.14,3.04,5.87,6.42,8.47,9.92,.32,.43,.69,.81,1.07,1.19h0Zm-1.52-3.45c-1.7-2.41-3.46-4.78-5.66-6.78-2.27-2.07-4.21-4.46-6.25-6.75-2.49-2.8-5.35-5.18-8.6-7-1.94-1.09-3.46-2.59-4.94-4.12-1.31-1.35-2.76-2.41-4.41-3.21-1.36-.66-2.73-1.32-4.11-1.92-1.38-.6-2.9-.87-4.4-1.04-.85-.1-1.46-.44-2.07-1.08-1.12-1.18-2.57-2-3.91-2.92-1.99-1.35-4-2.66-6.01-3.99l-.21-.21c-1.21-1.08-2.02-2.48-3.31-3.85,1.03,.03,1.73,.39,2.23,.74,1.21,.82,2.6,.99,3.9,1.46,2.55,.92,5.16,1.72,7.04,3.92,.99,1.16,2.16,2.17,3.44,3.04,.61,.42,1.28,.66,1.98,.73,1.94,.19,3.86,.65,5.82,.61,1.9-.04,3.42,.73,4.82,1.96,1.7,1.5,3.13,3.22,4.34,5.12,.25,.39,.5,.78,.81,1.11,2.67,2.84,5.33,5.71,8.07,8.49,.81,.82,1.84,1.45,2.83,2.08,2.85,1.82,5.13,4.2,7.2,6.84,2,2.56,4.07,5.05,6.08,7.59-.82,.64-1.63,1.3-2.42,1.98-.7-.97-1.58-1.81-2.27-2.79h0Zm-2.21,6.45c-.99,.35-2.04,.26-3.04-.07-.14-.04-.27-.09-.41-.14-.12-.15-.27-.27-.4-.41-.89-.97-1.79-1.92-2.89-2.68-1.95-1.34-3.49-3.13-5.17-4.77-2.67-2.61-5.12-5.44-8.06-7.77-.24-.19-.56-.41-.61-.66-.42-2.07-1.86-3.53-3.03-5.15-2.14-2.96-4.83-5.48-6.94-8.48-.31-.44-.97-.57-1.08-1.36,.52,.23,.98,.43,1.42,.64,4.21,1.99,8.06,4.47,11.08,8.09,1.11,1.33,2.09,2.77,3.2,4.09,3.21,3.81,6.76,7.32,10.07,11.04,2.13,2.4,4.32,4.77,5.86,7.61h0Zm-19.57-13.85c1.21,.73,2.17,1.65,3.04,2.66,1.98,2.31,4.23,4.34,6.36,6.5,.58,.58,1.27,1.02,1.93,1.5,.9,.65,1.76,1.34,2.56,2.12-1.67-.72-3.28-1.6-4.78-2.69-.95-.7-1.98-1.29-3-1.89-1.06-.62-2.23-.91-3.43-.67-1.03-1.85-1.7-3.83-2.16-5.88-.12-.52-.79-.83-.52-1.65h0Zm16.88,15.88c-1.18,.71-2.41,1.1-3.69,1.32-.91-1.49-2.22-2.62-3.65-3.59-1.8-1.22-3.82-1.88-6.03-1.93-1.69-.04-3.39-.14-5.07-.3-1.65-.16-3.13-.73-4.53-1.74-1.55-1.12-3.29-2.05-5.07-2.79-3.64-1.52-6.98-3.44-9.77-6.26-.24-.25-.48-.45-.77-.54l.05-.05c.62-.52,1.25-.61,1.99-.3,1.34,.56,2.57,1.28,3.66,2.24,1.57,1.39,3.35,2.16,5.51,1.79,1.23-.21,2.33,.17,3.32,.9,1.53,1.13,3.09,2.21,4.6,3.37,1.51,1.16,3.14,1.68,5.04,1.29,1.16-.24,2.24,0,3.24,.65,.65,.42,1.31,.81,1.95,1.24,2.14,1.42,4.27,2.84,6.76,3.62,.82,.26,1.59,.68,2.45,1.06h0Zm-4.84,1.5c-.89,.14-1.78,.3-2.65,.5-.43-.36-.75-.82-1.24-1.1-1.9-1.06-3.93-1.73-6.02-2.31-5.48-1.52-11.1-2.67-16.12-5.52-.9-.51-1.8-1.05-2.54-1.81-1.32-1.36-2.76-2.6-3.92-4.11-.69-.89-1.65-1.41-2.7-1.77,.25-.21,.5-.41,.75-.62,.41,.66,.98,1.1,1.49,1.56,1.7,1.54,3.65,2.73,5.56,3.99,.73,.48,1.54,.66,2.3,.97,1.93,.8,3.69,1.93,5.57,2.81,.14,.06,.29,.12,.39,.22,2.17,2.09,4.95,2.16,7.69,2.34,.77,.05,1.54,.07,2.31,.08,3.57,.05,6.39,1.63,8.71,4.25,.15,.17,.29,.34,.44,.52h0Zm-3.92,.8c-1.66,.44-3.26,1.01-4.78,1.8-.49-.93-1.43-1.42-2.35-1.68-3.64-1.03-6.92-2.92-10.47-4.16-1.88-.66-3.77-1.38-5.36-2.67-1.23-1-2.45-2.04-3.74-2.96-1.6-1.14-2.74-2.56-3.58-4.35-.43-.92-1.27-1.45-2.21-1.81l.26-.24,.2-.18c1.82,.52,2.9,1.88,4.02,3.31,2.14,2.7,4.76,4.76,8.07,6.03,3.38,1.3,6.85,2.28,10.32,3.25,2.45,.68,4.93,1.3,7.28,2.26,.84,.34,1.63,.82,2.33,1.42h0Zm-69.82-16.05c2.15,.87,4.35,1.65,6.36,2.86,1.08,.65,2.34,1.01,3.56,1.39,.31,.1,.63,.13,.95,.2-.64,.14-1.29,.2-1.96,.23-.55,.02-1.09,.06-1.63,.11-.26-.08-.53-.16-.79-.25-2.15-.7-3.9-2.18-5.92-3.12-1.56-.72-3.18-1.16-4.88-1.29,.17-.14,.33-.28,.5-.43h.05c1.3-.47,2.58-.19,3.76,.28h0Zm-2.71-1.38l.1-.1,.11,.06-.21,.04h0Zm-93.43,17.7c2.52-2.28,5.22-4.21,8.68-4.94,1.34-.28,2.7-.73,3.89-1.5,.17-.11,.38-.21,.57-.21,2.14,.04,3.72-1.34,5.51-2.16,.57-.26,1.18-.4,1.69-.82,.39-.31,.88-.19,1.33-.04,2.45,.81,4.97,1.2,7.56,1.13,.1,0,.19,0,.29,0-.08,.09-.16,.17-.25,.26-1.42,1.57-3.26,2.3-5.43,1.43-.57-.23-1.16-.41-1.74-.63-1.88-.71-3.71-.6-5.54,.21-1.88,.83-3.77,1.62-5.66,2.42-1.19,.51-2.25,1.21-3.22,2.07-2.36,2.1-4.93,2.91-7.7,2.75h0Zm51.51-20.69c.36-.69,.81-1.34,1.1-2.05,.69-1.74,1.84-3.24,2.41-5.05,.42-1.33,1.78-1.6,2.96-1.68,1.97-.13,3.78,.39,4.96,2.15,.44,.65,.99,1.18,1.61,1.63,1.33,.97,2.56,2.04,3.7,3.22,.14,.15,.28,.3,.44,.41-.47,.31-.94,.62-1.41,.93l-.1-.09c-1.68-1.26-3.39-2.48-5.36-3.27-2.26-.9-4.51-.91-6.41,.7-.93,.79-1.81,1.77-2.4,2.91-.41,.03-.82,.07-1.23,.13-.09,.01-.18,.03-.27,.05h0Zm14.76,.25c-.23,.16-.46,.33-.69,.49-2.1,1.54-2.23,1.4-4.61,.44-2.21-.89-4.45-1.4-6.77-1.41,.2-.17,.37-.38,.55-.58,.63-.71,1.23-1.41,2.06-1.97,1.3-.87,2.54-.77,3.87-.35,1.92,.6,3.53,1.73,5.07,2.97,.17,.14,.35,.27,.52,.4h0Zm303.88,44.94c-.94,.37-1.89,.71-2.84,1.05-1.07,.38-2.17,.62-3.31,.71-.81,.06-1.61,.12-2.42,.17-.48-.94-1.56-1.15-2.33-1.64-2.9-1.83-6.16-2.87-9.38-3.99-3.34-1.17-6.78-2.13-10-3.57-5.35-2.39-10.78-4.68-15.61-8.11-3.31-2.35-6.65-4.65-10.58-5.9-.54-.17-1.07-.48-1.61-.49-1.63-.03-2.59-1.03-3.51-2.17-.58-.72-1.18-1.41-1.64-2.2,.25-.46,.63-.26,.97-.24,1.15,.07,2.26,.41,3.18,1.06,4.27,3.04,8.86,5.61,13.04,8.78,2.09,1.59,4.32,2.95,6.62,4.22,2.32,1.28,4.76,2.29,7.31,3.03,.77,.22,1.47,.63,2.19,.95,4.21,1.89,8.74,2.55,13.15,3.67,3.58,.91,7.31,1.12,10.87,2.14,2.07,.59,4.12,1.28,5.9,2.54h0Zm-3.16-2.74c-2.78-1.02-5.69-1.48-8.6-1.96-3.21-.52-6.37-1.27-9.53-2.07-2.25-.57-4.55-.98-6.69-1.91-3.65-1.58-7.5-2.68-11-4.63-2.53-1.4-4.92-3.01-7.24-4.71-2.62-1.92-5.36-3.64-8.05-5.44-1.26-.85-2.54-1.67-3.78-2.55-1.37-.97-3.03-1.24-4.68-1.47-.42-.06-.94,.18-1.26-.3-.5-.75-1.02-1.49-1.48-2.26-.17-.29,.12-.45,.39-.49,1.72-.23,3.38,.02,4.78,1.04,1.28,.93,2.62,1.74,3.99,2.5,1.59,.88,2.98,2,4.23,3.25,1.39,1.39,3.04,2.39,4.58,3.55,.34,.26,.75,.47,1.17,.57,2.46,.6,4.39,2.13,6.34,3.59,1.48,1.11,2.98,2.29,4.73,2.82,2.06,.62,4.03,1.46,6.14,1.97,4.18,1,8.36,2,12.45,3.35,2.61,.86,5.31,1.48,7.95,2.26,1.95,.58,3.97,1.04,5.79,1.92,1.85,.89,3.86,1.42,5.57,2.58-.5,.23-1.01,.46-1.53,.67-1.32-.95-2.75-1.72-4.28-2.29h0Zm-32.16-2.23c1.14,.45,2.08,.9,3.07,1.19,3.36,.96,6.76,1.75,10.09,2.79,2.27,.71,4.54,1.51,6.31,3.2-1.64,0-3.28-.04-4.93-.15-.83-.73-1.89-1.06-2.88-1.44-2.48-.94-4.98-1.84-7.55-2.56-1.79-.5-2.67-1.21-4.1-3.04h0Zm8.23,5.33c1.2,.55,2.48,.91,3.68,1.47-.2-.02-.39-.04-.59-.07-1.88-.24-3.77-.39-5.65-.61-.75-.56-1.27-1.34-1.82-2.18,1.47,.45,3.01,.75,4.39,1.38h0Zm-12.22-9.24c-2.11-1.84-4.55-3.16-6.97-4.5-2.47-1.37-4.99-2.64-7.46-4.01-1.57-.87-3.04-1.9-4.44-3.25,.44-.18,.72-.03,1.03,.07,3.92,1.26,7.22,3.64,10.59,5.9,2.12,1.42,4.32,2.7,6.55,3.95,1.92,1.08,4.05,1.69,5.9,2.88,1.43,.91,2.99,1.57,4.56,2.11,1.84,.63,3.7,1.24,5.56,1.83,2.55,.81,5.08,1.73,7.56,2.69,1.91,.74,3.89,1.5,5.59,2.77,.2,.15,.41,.32,.63,.46-1.42,.08-2.85,.14-4.27,.17-.09-.19-.23-.36-.42-.54-1.62-1.47-3.52-2.46-5.57-3.18-3.01-1.06-6.13-1.71-9.21-2.51-1.61-.42-3.1-1.12-4.63-1.72-.14-.05-.27-.15-.41-.17-2-.25-3.2-1.75-4.58-2.96h0Zm-198.93-14.62c.63,.06,1.23,.24,1.82,.54,.47,.23,.93,.46,1.4,.69,.55,.6,1.1,1.2,1.65,1.79,1.71,1.81,2.69,3.95,3.55,6.29,1.21,3.28,3.25,6.05,6.23,8.12,.33,.23,.66,.42,1.01,.6-.68-.05-1.36-.11-2.05-.17-1.05-.1-2.1-.19-3.16-.26-1.53-.98-2.41-2.58-3.3-4.08-1.43-2.41-2.82-4.85-3.61-7.61-.48-1.68-1.24-3.34-2.38-4.75-.35-.43-.74-.82-1.17-1.15h0Zm1.76,4.39c.69,1.63,1.12,3.37,1.89,4.95,1.41,2.89,2.89,5.75,5.06,8.16-.52-.02-1.04-.04-1.57-.04-1.19-.01-2.36,.06-3.39,.78-1.67,1.17-3.57,1.31-5.47,1.01-4.23-.67-7.8-2.76-11.01-5.51-.59-.51-1.05-1.14-1.4-1.83-.77-1.54-1.87-2.82-3.04-4.06-.74-.78-1.48-1.55-2.07-2.57,.99-.23,1.62-.98,2.52-1.2,3.21-.76,6.28-1.92,9.32-3.17,.38-.15,.77-.3,1.17-.35,1.42-.17,2.84-.31,4.26-.45l.1,.05c2.05,.7,2.87,2.46,3.62,4.23h0Zm4.24-1.77c1.47,.78,2.91,1.64,4.23,2.69,2.09,1.93,3.48,4.41,5.04,6.76,.92,1.38,2.1,2.47,3.52,3.34,1.94,1.18,3.98,2.2,5.74,3.67-1.06-.27-2.14-.47-3.24-.59-.99-.11-1.99-.2-2.98-.27-.23-.12-.47-.24-.71-.35-3.08-1.4-5.25-3.72-6.96-6.6-.91-1.53-1.53-3.16-2.1-4.82-.28-.82-.62-1.57-1.17-2.22-.45-.54-.91-1.08-1.36-1.62h0Zm-35-6.1c-1.4-1.59-3.02-2.92-4.76-4.13-.37-.26-.84-.4-1.08-.92,2.31-1.21,4.57-2.43,7.33-2.33,1.64,.06,3.29-.21,4.78-.98,.62-.32,1.08-.13,1.57,.16,1.29,.76,2.65,1.34,4.14,1.58,.28,.04,.61,.05,.83,.36-.67,.65-1.56,.76-2.39,.96-.77,.19-1.51,.45-1.95,1.13-1.6,2.5-4.12,3.59-6.75,4.56-.73,.27-1.19,.21-1.73-.39h0Zm-18.65-8.14c.48-.27,.92-.56,1.32-.86,.1,.01,.21,0,.33,0,.66-.08,1.32-.18,1.98-.25,1.93-.18,3.65,.32,5.33,1.34,.85,.51,1.76,.94,2.69,1.39-1.24,.41-1.88,0-3.95-1.09-1.6-.84-3.23-1.2-5.03-.51-.75,.29-1.62,.28-2.67-.03h0Zm2.65-1.96c.22-.2,.43-.41,.64-.62,.09-.01,.19-.04,.28-.07,1.54-.54,3.05-.28,4.53,.18,1.7,.53,3.12,1.6,4.6,2.54,.37,.24,.76,.38,1.15,.5-.4,.21-.75,.4-1.06,.55l-.04-.02c-2.38-1.26-4.61-2.81-7.4-3.17-.93-.12-1.82,0-2.71,.11h0Zm2.05-1.91c.21-.15,.44-.28,.68-.38,.12-.05,.24-.1,.35-.16h.03c1.85-.23,3.54,.03,5.32,.81,2.07,.9,3.92,2.23,6.04,2.99-.64,.14-1.28,.32-1.9,.55-.13-.13-.28-.24-.43-.26-1.7-.21-2.86-1.47-4.3-2.18-1.6-.79-3.27-1.26-5.27-1.37-.16-.05-.34-.04-.52,0h0Zm4.92-3.22l.14-.03c.34-.11,.67-.28,1.02-.34,.82-.12,1.62-.05,2.44,.12,2.32,.5,4.7,.77,6.95,1.6,.43,.16,.88,.3,1.22,.57,2.03,1.63,4.4,2.4,6.89,3,2.02,.49,4.05,.99,6.06,1.53h.02c-.9,.86-1.96,.9-3.16,.65-1.48-.3-2.84-.86-4.11-1.66-.91-.57-1.8-.69-2.8-.2-.12-.06-.24-.11-.39-.14-2.31-.53-4.46-1.49-6.58-2.56-2.31-1.16-4.67-2.25-7.31-2.51-.14-.01-.28-.03-.41-.05h0Zm2.57-1.36c1.12-.17,2.23-.36,3.35-.53,1.41-.21,2.74-.02,4.02,.65,1.91,.99,3.83,1.97,5.65,3.14,1.06,.69,2.18,1.05,3.46,1.1,2.52,.11,4.67,1.31,7.01,2.41-.22,.16-.41,.29-.58,.41-.35-.14-.7-.26-1.06-.35-2.16-.57-4.32-1.11-6.48-1.68-1.54-.41-3.03-1.05-4.31-1.95-1.52-1.06-3.12-1.7-4.9-2.06-2.05-.41-4.08-.88-6.16-1.14h0Zm26.76,8.04c1.42-.07,2.9-.24,4.13-1.07,1.72-1.16,3.62-2.05,5.27-3.32,1.25,.33,2.01,1.28,2.5,2.33,.81,1.74,2.07,2.99,3.58,4.08,1.69,1.22,3.22,2.64,4.95,3.83,.72,.49,1.52,.78,2.23,1.06,2.05,.83,4.11,1.67,6.21,2.36l.14,.07c2.07,1.32,4.5,1.76,6.74,2.67,.52,.21,.97,.56,1.29,1.02-1.05,.62-2.05,1.35-3,2.22-.23,.21-.43,.43-.76,.48-2.58,.45-5.05,1.4-7.66,1.73-1.89,.24-3.73,.13-5.25-1.19-2.72-2.35-5.98-3.76-9.16-5.33-1.08-.54-2.23-.78-3.43-.67-1.33,.12-2.66,.3-3.99,.37-1.46,.08-2.81,.49-4.15,1.06-2.31,.99-4.69,1.8-7.12,2.46-1.24,.34-2.52,.54-3.47,1.53-.28,.29-.57,.3-.94,.02-1.69-1.26-3.41-2.47-5.1-3.72-.52-.38-1.1-.74-1.39-1.41,.28-.12,.5-.24,.73-.32,2.77-.92,5.34-2.15,7.05-4.68,.24-.36,.61-.59,1.02-.64,2.06-.27,3.64-1.38,4.97-2.86,1.24-1.39,2.74-2.02,4.6-2.11h0Zm41.94,15.75c1.38-.33,2.74-.19,4.06,.44,.97,.46,2.02,.74,3.03,1.12,1,.38,2.05,.47,3.03,.2,1.39-.39,2.65-.08,3.9,.41,1.63,.63,3.22,1.34,4.84,1.98,1.24,.48,2.49,1.05,3.85,1.01,1.64-.05,3.29,.12,4.93-.12,.58-.09,1,.06,1.3,.57,.98,1.64,2.56,2.48,4.26,3.12,2.12,.79,4.28,1.46,6.49,1.91,.7,.14,1.44,.26,2.14,.18,1.27-.14,2.44,.13,3.62,.53,2.99,1,5.92,.96,8.85-.33,3.83-1.69,7.48-1.38,10.87,1.25,1.71,1.33,3.58,2.4,5.61,3.18,1.3,.5,2.5,1.15,3.84,1.97-.75,.36-1.37,.29-1.97,.25-2.77-.2-5.54-.41-8.3-.64-3.96-.33-7.92-.54-11.83,.27-2.72,.56-5.46,.99-8.2,1.41-1.08,.17-2.12,.45-3.03,1.05-1.56,1.02-3.3,1.38-5.12,1.44-2.37,.08-4.7,.43-7.03,.86-3.01,.56-6.02,.63-9.05,.17-2.65-.41-5.2-1.23-7.81-1.77-3.39-.69-6.79-1.15-10.23-.26-.64,.17-1.31,.25-1.97,.34-1.62,.21-2.06,.07-2.6-1.2-.66-1.54-1.85-2.42-3.31-3.04l-.04-.02c-2.01-1.66-3.97-3.4-6.32-4.58-2.38-1.2-4.25-2.8-5.61-5.17-.66-1.15-1.44-2.22-2.28-3.26,.87,.25,1.8,.32,2.76,.26,1.38-.09,2.76-.26,4.1-.64,4.35-1.23,8.84-1.86,13.23-2.91h0Zm136.62,16.12c-2.32-.6-4.2-2.07-6.26-3.16-2.02-1.07-3.95-2.29-5.89-3.47-1.42-.87-2.93-1.58-4.52-2.03-5.99-1.72-11.62-4.32-17.07-7.28-3.88-2.11-7.5-4.69-10.28-8.22,1.21,.83,2.44,1.63,3.7,2.4,1.11,.67,2.1,1.45,3.02,2.36,4.33,4.27,9.73,6.41,15.56,7.54,1.72,.33,3.43,.64,5.04,1.33,3.02,1.29,6.14,2.33,9.26,3.36,6.99,2.29,5.1,1.15,11.12,6.22,.12,.1,.21,.22,.59,.61-1.49,.01-2.88,.18-4.24,.37h-.02Zm-37.99-22.51c.09-.23,.26-.21,.4-.2,3.06,.22,6.03-.45,9.02-.92,2.24-.35,4.45-.8,6.37-2.12,.41-.28,.94-.41,1.42-.57,1.27-.41,2.57-.73,3.82-1.2,3.56-1.32,7.19-1.66,10.91-.9,.79,.16,1.55,.19,2.3,.11l.23,.02c3.22-.36,5.14,1.48,6.51,4.04,1.57,2.93,3.65,5.4,6.1,7.62,1.66,1.51,3.43,3.01,5.37,3.97,1.95,.96,3.78,2.14,5.78,3.04,4.03,1.81,7.57,4.42,10.64,7.61,2.09,2.18,4.15,4.39,6.22,6.58-2.19-.31-4.35-.77-6.45-1.61-.18-.07-.41-.05-.61-.02-.58,.09-1.12-.06-1.67-.17-4.59-.87-9.14-1.93-13.85-2.07-2.2-.06-4.39-.48-6.59-.71-.64-.07-1.14-.33-1.61-.77-1.44-1.32-2.94-2.58-4.37-3.9-1.66-1.53-3.55-2.56-5.72-3.21-4.38-1.31-8.7-2.77-12.92-4.54-1.33-.55-2.72-.86-4.16-1.08-3.68-.56-7.15-1.78-10.42-3.57-2.59-1.41-4.71-3.38-6.73-5.44h0Zm-230.34-10.64c.83-.14,1.64-.48,2.48-.45,.14,.39-.07,.55-.27,.71-.77,.63-1.7,.96-2.62,1.26-1.03,.34-1.92,.83-2.73,1.5-.94-.04-1.88-.18-2.82-.21-1.7-.05-3.34-.43-4.94-.95-.49-.16-.98-.31-1.63-.33-.84,.09-1.73,.47-2.6,.85-.74,.32-1.44,.76-2.16,1.14-.94,.48-1.9,.86-2.93,1.15-3,.85-5.97,1.81-8.88,2.97-.95,.38-1.8,.94-2.57,1.63-.72,.65-1.35,1.39-2.19,1.91-.29,.18-.54,.49-.69,.8l-.1,.18c-.98-.15-1.99-.41-3.03-.76,1.2-2,2.41-3.81,4.19-5.19,.83-.64,1.78-1.04,2.81-1.18,1.37-.19,2.75-.44,4.14-.29,2.01,.22,3.86-.25,5.65-1.15,1.79-.9,3.58-1.79,5.46-2.49,1.46-.55,2.98-.85,4.53-.66,3.66,.44,7.28,.18,10.89-.44h0Zm29.82-20.9c1.93,1.63,3.4,3.64,4.71,5.78,.85,1.38,1.83,2.67,3.01,3.79-.49,.35-1,.68-1.5,1.01-.81-1.01-1.73-1.89-2.71-2.68-1.27-1.02-2.49-2.07-3.55-3.31-.71-.83-1.53-1.39-2.62-1.59-1.62-.3-3.21-.54-4.79,.23-.88,.43-1.47,1.1-1.88,1.94-1.22,2.49-2.4,5-3.59,7.5l-.06,.16c-.56,.23-1.08,.55-1.56,.98-.98,.89-2.12,1.41-3.45,1.5-.83,.06-1.63,.27-2.37,.63-1.12,.54-2.29,.88-3.53,1.03-.92,.12-1.8,.4-2.59,.92-1.74,1.14-3.73,1.31-5.73,1.42,1.28-.85,2.64-1.5,4.15-1.79,1.02-.19,1.98-.51,2.75-1.27,.61-.62,1.26-1.2,1.89-1.81,1.42-1.36,3.05-2.16,5.09-2.21,2.06-.05,3.67-.93,4.86-2.75,1.57-2.4,2.53-5.14,4.35-7.42,.84-1.04,1.67-1.72,2.99-1.86,1.65-.18,3.16-.71,4.53-1.55,.54,.43,1.08,.87,1.6,1.32h0Zm1.83-4.23c1.43,.81,2.06,2.21,2.55,3.69,.46,1.39,1.19,2.57,2.31,3.51,1.3,1.09,2.41,2.37,3.59,3.58,.18,.18,.32,.42,.52,.6-.69,.64-1.42,1.23-2.17,1.78-1.29-1.28-2.43-2.67-3.35-4.24-1.5-2.56-3.48-4.69-5.82-6.5l-.16-.12c.27-.2,.54-.42,.8-.65,.6-.53,1.18-1.08,1.74-1.65h0Zm2.86-2.98c1.15,.57,2.1,1.43,3.12,2.18,1.43,1.06,2.52,2.28,2.91,4.14,.27,1.29,1.04,2.41,2.29,3.11,.8,.45,1.58,.94,2.36,1.42-1.41,.8-2.76,1.69-3.9,2.86-.11-.26-.31-.5-.52-.72-.96-.97-1.74-2.11-2.85-2.94-1.67-1.24-2.5-3.03-3.16-4.93-.44-1.27-1.13-2.32-2.35-2.93,.53-.58,1.04-1.19,1.5-1.83,.13-.18,.26-.34,.4-.48l.2,.12h0Zm3.36-1.41c1.2,1.1,2.24,2.35,3.61,3.21,2.22,1.39,4.39,2.89,7.05,3.39,1.22,.23,2.24,.9,3.18,1.69-1.21,.88-2.42,1.76-3.75,2.48-.51,.27-1.03,.54-1.54,.82-.68-.33-1.35-.65-2-1.02-1.47-.84-2.68-1.94-3.04-3.67-.27-1.3-.96-2.26-1.89-3.14-1.16-1.1-2.49-1.95-3.8-2.83-.16-.11-.33-.21-.51-.29,.38-.2,.79-.32,1.27-.37,.5-.05,.97-.14,1.43-.27h0Zm3.61-2.07c1.25,.62,2.44,1.35,3.57,2.15,1.97,1.39,4.19,2.32,6.26,3.52,1.06,.62,2.14,1.21,2.77,2.33l-.09,.18c-.25,.52-.6,.96-1.07,1.3-.12,.08-.24,.17-.36,.26-.97-.87-2.09-1.53-3.33-1.84-3.84-.93-6.87-3.16-9.72-5.73-.18-.16-.36-.33-.54-.48,.92-.4,1.75-.96,2.5-1.68h0Zm2.36-1.42c2.08,.57,3.82,1.9,5.84,2.64,1.06,.39,2.15,.81,3.2,1.22,1.14,.44,2.13,1.22,3.37,1.47,.36,.07,.75,.31,1.03,.67-1.03,.66-1.92,1.46-2.6,2.44-.42-.67-.96-1.25-1.73-1.64-1.61-.8-3.2-1.65-4.77-2.55-1.8-1.04-3.56-2.15-5.36-3.21-.21-.13-.45-.21-.68-.3,.31-.34,.65-.65,1-.93,.23,.06,.47,.12,.7,.19h0Zm15.84,4.11c-.5,.65-1.06,1.05-1.63,1.41-.34-.33-.67-.66-1.11-.93-2.18-1.32-4.63-1.97-6.93-3-1.07-.48-2.14-.95-3.16-1.5-.87-.46-1.78-.76-2.71-1.02,.26-.17,.51-.34,.78-.51,.91-.57,1.81-.7,2.78-.38,1.8,.59,3.64,1.09,5.34,1.94,1.19,.59,2.34,1.29,3.71,1.44,.23,.02,.49,.17,.67,.34,.77,.72,1.51,1.47,2.25,2.2h0Zm29.93-15.56c.51,.82,1.08,1.6,1.52,2.45,1.82,3.46,4.54,5.96,7.89,7.91,3.09,1.81,6.03,3.86,8.43,6.59,2.67,3.03,5.39,6.01,7.84,9.24,1.2,1.59,2.59,3.04,3.89,4.56,2.31,2.7,3.62,5.85,4.5,9.22,.55,2.09,1.35,4.07,2.29,6-1.17,.05-2.21-.36-3.21-1.13-1.59-1.22-3.23-2.37-4.86-3.54-1.13-.81-2.4-1.28-3.77-1.01-1.92,.38-3.42-.3-4.78-1.52-1.12-1.01-2.42-1.73-3.79-2.33-1.52-.66-2.84-.44-4.13,.65-2.26,1.92-4.37,4.06-7.2,5.2-.23,.09-.43,.28-.64,.43-1.77,1.29-3.62,1.59-5.61,.5-.76-.42-1.55-.8-2.35-1.15-2.07-.91-4.15-1.8-6.47-1.82-.86,0-1.57-.42-2.27-.86-2-1.26-4.08-2.39-6.22-3.39-1.14-.54-2.32-.76-3.59-.64-1.54,.15-3.05,.43-4.58,.63-1.67,.22-3,.98-4.13,2.18-.63,.67-1.26,1.37-2.13,1.76-1.29,.58-2.35,1.46-3.31,2.48-.85,.91-1.88,1.58-2.82,2.37-1.3,1.1-2.56,1.13-4.09,.56-4.81-1.79-9.49-3.86-14.2-6.44,2.63-1.41,4.65-3.35,7.11-4.64,.82-.43,1.6-.95,2.22-1.65,1.67-1.87,3.72-3.23,5.9-4.41,2.31-1.24,4.54-2.61,6.61-4.22,.78-.61,1.48-1.27,1.91-2.18,.61-1.3,1.55-2.32,2.81-2.97,1.42-.73,2.32-2.18,3.87-2.71,.13-.04,.29-.21,.3-.33,.07-.96,.9-1.18,1.52-1.58,1.12-.73,2.35-1.28,3.28-2.27,.2-.21,.5-.38,.79-.46,1.7-.49,3.18-1.43,4.69-2.3,.89-.51,1.8-.97,2.82-1.21,1.14-.27,2.02-.97,2.75-1.88,.84-1.04,1.66-2.1,2.57-3.07,1.16-1.26,2.17-2.59,2.79-4.21,.46-1.22,1.28-2.23,2.24-3.1,.31-.28,.6-.47,.88-.57,.01,.1,.04,.21,.09,.28,1.11,1.4,1.73,3.07,2.65,4.57h0Zm65.73,43.03c-.18,.45-.52,.6-.82,.8-.94,.64-1.86,1.3-2.77,1.98-3.05-3.68-5.84-7.57-9.09-11.09-1.26-1.37-2.77-2.45-4.31-3.46-1.99-1.3-3.8-2.76-5.32-4.61-1.17-1.42-2.59-2.64-3.85-3.97-1.07-1.13-2.15-2.3-2.98-3.65-1.49-2.43-3.35-4.49-5.88-5.88-.9-.49-1.86-.79-2.88-.79-2.01,0-3.99-.36-5.98-.6-1.1-.14-2.07-.62-2.88-1.39-.59-.57-1.22-1.11-1.75-1.74-2.14-2.55-5.06-3.63-8.12-4.57-2.51-.77-4.98-1.69-7.05-3.43-.99-.84-1.68-1.88-2.12-3.05-.34-.91-1.13-1.51-1.58-2.34,.23,.11,.47,.29,.71,.53,.62,.62,1.24,1.24,1.68,2,.97,1.68,2.47,2.72,4.21,3.47,1.29,.56,2.67,.77,4.07,.71,2.09-.1,3.94,.46,5.58,1.79,.88,.71,1.86,1.31,2.98,1.58,1.55,.37,2.76,1.21,3.9,2.33,1.77,1.74,3.83,2.9,6.51,2.48,1.29-.2,2.54,.17,3.73,.73,2.08,.98,3.84,2.37,5.33,4.11,1.47,1.72,2.97,3.42,4.39,5.17,1.2,1.49,2.66,2.4,4.61,2.39,.99,0,1.78,.41,2.43,1.13,1,1.11,2.16,2.04,3.37,2.92,1.84,1.34,3.48,2.9,4.67,4.86,1.08,1.76,2.35,3.37,3.65,4.96,.78,.95,1.54,1.93,2.25,2.93,.97,1.37,1.82,2.84,3.32,3.7h0Zm38.76-9.2c2.88,2.93,5.35,6.12,6.27,10.24,.43,1.93,1.23,3.62,2.52,5.14,1.19,1.4,2.22,2.94,3.48,4.28,1.51,1.61,3.14,3.07,4.92,4.39,3.59,2.68,6.67,5.89,9.54,9.33,2.59,3.1,5.05,6.32,7.85,9.25,.46,.48,.88,1.01,1.32,1.52-3.15-.29-6.29-.67-9.43-1.18-1.86-.3-3.68-.27-5.51,.09-1.31,.26-2.65,.46-3.9,.88-1.5,.5-2.86,.26-4.15-.45-3.45-1.92-7.16-3.34-10.32-5.8-1.67-1.3-3.68-1.74-5.79-1.8-2.16-.06-4.18,.47-6.11,1.35-2.02,.92-4.07,.94-6.17,.33-.69-.2-1.37-.43-2.07-.61-.74-.19-1.5-.4-2.28-.26-.78,.14-1.53,.03-2.29-.11-2.23-.42-4.37-1.12-6.5-1.89-1.49-.54-2.79-1.31-3.59-2.75-.45-.81-1.17-1.07-2.08-1.03-1.28,.05-2.58-.03-3.85,.09-2.03,.19-3.84-.44-5.65-1.23-1.41-.62-2.85-1.17-4.28-1.73-1.47-.57-2.99-.76-4.54-.35-.62,.16-1.22,.13-1.82-.07-.88-.3-1.79-.51-2.61-.92-2.24-1.11-4.51-1.23-6.89-.55-.69,.2-1.4,.41-2.36,.26,.83-.72,1.64-1.02,2.46-1.27,2.51-.76,5.02-1.51,7.63-1.8,.88-.1,1.7-.37,2.52-.68,2.2-.83,4.09-2.17,5.79-3.74,3.3-3.03,6.76-5.86,10.48-8.36,.73-.49,1.43-1.02,1.96-1.73,.55-.75,1.31-1.12,2.2-1.3,1.31-.27,2.62-.52,3.92-.82,5.36-1.21,10.7-2.46,16.07-3.65,2.35-.52,4.51-1.41,6.35-2.98,1.2-1.02,2.59-1.41,4.12-1.47,.4-.02,.8-.02,1.2-.03,.36,.7,1.1,.89,1.58,1.38h0Zm14.32,6.85l-.25-.15c-2.57-1.5-4.9-3.4-7.66-4.59-1.31-.56-2.64-1.07-3.94-1.64-.84-.37-1.42-1.06-2.23-1.45-.31-.15-.62-.31-.95-.4,1.16,.03,2.31,.12,3.45,.33,4.48,.81,8.22,2.84,10.75,6.76,.26,.4,.53,.77,.82,1.13h0Zm10.46,8.57c-.67-.54-1.3-1.1-1.96-1.65,.54,.44,1.08,.89,1.61,1.36,.12,.1,.23,.2,.35,.3h0Zm4.4,4.76c2.05,2.31,4.19,4.58,6.83,6.17,2.14,1.28,4.03,3.05,6.55,3.67,.74,.18,1.38,.59,2.02,.99,1.91,1.19,3.95,2.1,6.09,2.77,2.18,.68,4.3,1.55,6.48,2.27,2.21,.73,4.42,1.7,6.22,3.29,.42,.37,.9,.33,1.33,.61,1.81,1.17,3.68,2.23,5.66,3.1,.5,.22,1.01,.48,1.39,.92l.14,.14c-.47,.06-.95,.11-1.42,.15-2.35,.19-4.7,.32-7.05,.42-4.23-1.72-8.19-3.97-12.1-6.29-3.03-1.8-5.92-3.83-8.86-5.77-1.55-1.02-3.27-1.79-4.68-3.03-1.05-.92-2.2-1.74-3.2-2.71-2.45-2.4-5.06-4.65-7.29-7.27-.47-.55-1.07-.92-1.64-1.3-3.15-2.12-5.71-5-9.07-6.84-1.81-.99-3.66-1.86-5.57-2.6-1.74-.68-3.3-1.65-4.83-2.68-.25-.17-.51-.37-.68-.61-.78-1.12-1.52-2.26-2.42-3.59,2.39,.94,4.58,1.77,6.51,3.16,.96,.69,1.93,1.37,2.95,1.96,1.75,1.01,3.37,2.18,4.86,3.52,1.64,1.48,3.33,2.91,5.02,4.33,1.26,1.06,2.49,2.11,3.96,2.9,1.08,.58,1.99,1.43,2.81,2.36h0Zm37.4-32.64c.94,2.62,1.86,5.22,3.36,7.61,1.02,1.62,1.5,3.42,1.02,5.41-.46,1.92-.12,3.7,1.14,5.35,1.54,2.03,2.92,4.18,4.83,5.87-1.31,.06-2.62,.41-3.93,1.06-1.67,.83-3.29,1.06-5.06,.74-3.45-.63-6.85-.46-10.18,.71-1.21,.42-2.42,.87-3.66,1.18-1.41,.36-2.75,.8-3.97,1.61-.74,.49-1.58,.75-2.44,.9-3.89,.7-7.76,1.56-11.76,1.3-.61-.04-1.26-.1-1.78,.31-.38,.3-.67,.1-.96-.11-1.91-1.31-3.84-2.58-5.67-4.13,1.04-1.21,2.32-2.06,3.58-2.94,.95-.67,1.76-1.43,2.14-2.55,.48-1.38,1.5-2.16,2.8-2.67,.92-.36,1.86-.59,2.84-.62,1.55-.04,2.71-.74,3.68-1.93,2.95-3.64,4.58-7.88,5.53-12.39,.27-1.28,.72-2.32,1.71-3.15,1.49-1.26,2.98-2.53,4.64-3.57,1.05-.66,1.8-1.49,2.06-2.74,.11-.55,.35-1.08,.76-1.5,1.46-1.52,2.83-3.11,4.14-4.77,.29-.37,.59-.61,.9-.72,0,.15,.05,.32,.14,.5,.27,.54,.5,1.11,.75,1.66,1.4,3.09,2.26,6.38,3.4,9.57h0Zm25.26,1.29c-.97-.9-1.85-1.9-2.96-2.64-1.26-.84-2.72-1.18-4.15-1.6-.82-.24-1.66-.43-2.44-.81,4.01-1.11,8.27,1.08,9.54,5.05h0Zm31.02,30.06c-.86-.4-1.71-.67-2.57-.83v-.12c-.01-.36-.1-.66-.36-.97-1.62-1.9-3.22-3.82-4.79-5.75-1.26-1.55-2.89-2.63-4.58-3.58-2.57-1.44-4.92-3.21-7.27-4.95-1.9-1.4-3.9-2.65-5.88-3.93-.7-.45-1.36-.94-1.81-1.58-1.02-1.45-2.51-2.27-3.93-3.17-2.57-1.62-5.31-2.94-8.21-3.86-1.29-.41-2.39-1.22-3.39-2.03-2.44-1.99-5.24-3.24-8.12-4.35-2.61-1.01-4.88-2.53-6.77-4.55-.83-.89-1.34-2.11-1.66-3.29l-.03-.09c.17,.05,.34,.12,.53,.2,.92,.4,1.65,1.07,2.21,1.87,.8,1.14,1.88,1.75,3.22,1.85,1.87,.14,3.45,.89,4.89,2.04,.76,.61,1.61,1.12,2.32,1.78,1.24,1.16,2.51,1.33,3.98,.82,.17,.08,.36,.14,.51,.18,1.56,.51,3.14,.95,4.73,1.36,1.64,.42,2.86,1.47,4.08,2.55,.73,.64,1.34,1.41,2.2,1.9l.14,.08c.64,1.95,1.89,3.27,3.78,4.18,1.2,.58,2.37,1.22,3.56,1.83,.73,.37,1.25,.93,1.4,1.74,.49,2.59,2.23,4.04,4.48,5.1,1.58,.75,3.23,1.31,4.85,1.95,2.53,1.01,4.79,2.36,6.28,4.75,.47,.75,1.12,1.34,1.83,1.85,.85,.61,1.49,1.39,1.9,2.37,.48,1.14,1.11,2.2,1.86,3.18,.28,.37,.65,.74,.64,1.46h0Zm75.99,21.49c-1.25,.49-4.12,1.67-4.86,1.95-2.72,1.01-6.33,3.16-14.35,.26-1.55-.48-3.11-.52-4.72-.37-2.99,.28-5.88,.95-8.65,2.07-1.16,.46-2.28,.48-3.45,.06-1.98-.72-3.98-1.38-5.95-2.09-1.46-.53-2.94-.99-4.51-.84-1.79,.18-3.47-.18-5.14-.75-2.33-.8-4.68-1.55-7.13-1.92-3.93-.6-7.7-1.75-11.35-3.3-3.64-1.54-7.39-2.75-11.19-3.86-3.79-1.11-7.6-2.16-11.32-3.5-2.53-.91-3.97-2.88-5.58-4.8,.46-.39,.9-.3,1.29-.3,2.81-.06,5.5-.63,8.09-1.69,1.57-.65,3.24-.96,4.89-1.35,3.59-.86,6.82-.16,9.7,2.15,.56,.45,1.16,.85,1.72,1.3,1.42,1.11,2.92,2.1,4.4,3.11,2.91,1.99,6,2.76,9.49,1.8,2.54-.7,5.09-.42,7.59,.37,1.91,.6,3.78,1.32,5.6,2.15,2.67,1.22,5.33,1.3,8.08,.33,1.93-.68,3.9-1.27,5.88-1.82,1.76-.49,3.53-.86,5.3-1.06,1.78-.18,2.31-.18,3.95,.36,3.11,1.04,8.34,5.58,10.49,6.84,2.42,1.41,5.98,3.23,9.46,4.19l.03,.04c.38,.09,1.38,.43,2.23,.68h0Zm165.97,3.42c.35-.63,.66-1.28,1.1-1.83,2.42-3.04,4.88-6.04,7.75-8.7,3.54-3.28,7.13-6.52,10.3-10.18,2.89-3.34,5.89-6.58,9.27-9.45,.71-.6,1.42-1.21,2.29-1.5,1.08-.36,2.02-.93,3.12-1.83-.47,1.39-.83,2.57-1.56,3.45-1.73,2.07-3.38,4.21-5.2,6.21-1.73,1.91-3.95,3.22-5.88,4.88-2.26,1.94-4.38,4.01-6.32,6.23-3.66,4.18-7,8.65-10.91,12.61-1.32,.12-2.64,.26-3.95,.11h0Zm-1.1-.2c-.19-.05-.38-.09-.56-.16-1.22-.41-2.5-.33-3.76-.39-2.03-.09-4.07-.16-5.83-1.44-.35-.26-.71-.49-1.07-.73,1.6-.86,3.19-1.76,4.7-2.79,2.86-1.94,5.71-3.91,8.67-5.67,2.4-1.42,4.61-3.06,6.52-5.06,4.43-4.65,9.19-8.93,14.21-12.93,1.31-1.04,2.69-2,4.21-2.7,2.82-1.3,5.75-2.34,8.59-4.26-.16,.53-.16,.85-.28,.9-1.2,.54-1.83,1.8-3.13,2.28-1.77,.66-3.3,1.81-4.68,3.11-3.33,3.13-6.42,6.48-9.43,9.92-1.52,1.73-3.16,3.36-4.88,4.9-3.52,3.15-6.87,6.45-9.86,10.1-1.27,1.55-2.43,3.16-3.43,4.9h0Zm12-24c-2.78,3.53-6.4,6.11-10.28,8.22-5.45,2.96-11.08,5.56-17.07,7.28-1.01,.29-1.97,.69-2.91,1.15-.21-.29-.49-.5-.82-.68-.37-.21-.77-.34-1.17-.45,1.65-.58,3.3-1.2,4.91-1.89,1.62-.69,3.32-1,5.04-1.33,5.84-1.13,11.23-3.27,15.56-7.54,.92-.91,1.92-1.69,3.02-2.36,1.26-.76,2.49-1.56,3.7-2.4h0Zm17.68-12.52c1.02-.59,1.99-1.27,2.95-1.96,1.93-1.39,4.12-2.21,6.51-3.16-.89,1.33-1.64,2.47-2.42,3.59-.17,.24-.43,.44-.68,.61-1.54,1.03-3.09,2.01-4.83,2.69-1.91,.74-3.77,1.61-5.57,2.6-3.36,1.84-5.92,4.73-9.07,6.84-.57,.38-1.18,.75-1.64,1.3-2.23,2.62-4.84,4.87-7.29,7.27-1,.98-2.15,1.79-3.2,2.71-1.41,1.24-3.13,2.01-4.68,3.03-2.94,1.94-5.83,3.97-8.86,5.77-1.06,.63-2.12,1.25-3.19,1.86-1.05-.6-2.15-1.12-3.29-1.57-.84-.33-1.59-.81-2.13-1.53,.9-.42,1.84-.78,2.77-1.09,2.17-.72,4.29-1.58,6.48-2.27,2.14-.67,4.18-1.57,6.09-2.77,.64-.4,1.28-.8,2.02-.99,2.52-.62,4.41-2.39,6.55-3.67,2.64-1.58,4.78-3.86,6.83-6.17,.82-.93,1.73-1.78,2.81-2.36,1.47-.78,2.71-1.84,3.96-2.9,1.69-1.42,3.38-2.85,5.02-4.33,1.49-1.34,3.11-2.52,4.86-3.52h0Zm13.23-8.45c-.33,.1-.63,.26-.94,.4-.81,.38-1.38,1.08-2.23,1.45-1.3,.57-2.63,1.08-3.94,1.64-2.76,1.18-5.09,3.09-7.66,4.59l-.25,.15c.29-.36,.56-.74,.82-1.13,2.53-3.92,6.26-5.95,10.74-6.76,1.14-.21,2.29-.3,3.45-.33h0Zm47.17,20.32c1.71,1.56,3.59,2.9,5.79,3.74,.82,.31,1.64,.58,2.52,.68,2.62,.28,5.13,1.04,7.64,1.8,.83,.25,1.63,.55,2.46,1.27-.96,.15-1.67-.06-2.36-.26-2.37-.69-4.65-.56-6.89,.55-.82,.41-1.73,.63-2.61,.92-.6,.2-1.2,.23-1.82,.07-1.55-.4-3.06-.22-4.53,.35-1.43,.56-2.87,1.11-4.28,1.73-1.81,.79-3.62,1.42-5.65,1.23-1.28-.12-2.57-.03-3.85-.09-.91-.04-1.62,.23-2.08,1.03-.8,1.44-2.1,2.21-3.59,2.75-2.13,.77-4.27,1.47-6.5,1.89-.76,.14-1.52,.25-2.29,.11-.78-.15-1.54,.07-2.28,.26-.69,.18-1.38,.41-2.07,.61-2.09,.61-4.14,.59-6.17-.33-1.94-.88-3.95-1.41-6.11-1.35-2.11,.06-4.12,.5-5.79,1.8-3.15,2.46-6.87,3.88-10.32,5.8-1.29,.72-2.65,.96-4.15,.45-1.26-.42-2.59-.62-3.9-.88-1.83-.36-3.65-.39-5.51-.09-2,.32-4.01,.59-6.02,.82-.97-.14-1.95-.21-2.94-.2,.28-.33,.55-.65,.85-.96,2.81-2.92,5.26-6.14,7.85-9.25,2.88-3.45,5.95-6.66,9.54-9.33,1.78-1.33,3.41-2.78,4.92-4.39,1.26-1.35,2.28-2.89,3.47-4.28,1.29-1.52,2.09-3.21,2.52-5.14,.92-4.12,3.39-7.31,6.27-10.24,.48-.49,1.22-.69,1.58-1.38,.4,0,.8,0,1.2,.03,1.53,.06,2.92,.45,4.12,1.47,1.84,1.56,4,2.45,6.35,2.98,5.36,1.19,10.71,2.44,16.07,3.65,1.3,.3,2.61,.55,3.92,.82,.88,.18,1.64,.55,2.2,1.3,.52,.71,1.23,1.24,1.96,1.73,3.72,2.5,7.18,5.33,10.48,8.36h0Zm35.85-34.23c-2.06,1.03-4.12,2.06-6.19,3.08-3.95,1.95-7.33,4.56-9.9,8.2-1.34,1.9-2.81,3.75-4.42,5.42-3.21,3.32-6.44,6.6-9.42,10.12-1.67,1.98-3.32,3.98-4.61,6.25-.17-.12-.34-.26-.51-.42-.73-.71-1.48-1.4-2.25-2.07,.38-.38,.75-.77,1.07-1.19,2.6-3.5,5.33-6.87,8.47-9.92,1.18-1.14,2.29-2.35,3.38-3.59,3.01-3.44,6.3-6.57,10.35-8.8,1.39-.77,2.59-1.78,3.64-3.02,1.35-1.62,2.98-2.98,4.95-3.79,1.16-.48,2.25-1.07,3.38-1.61,1.42-.69,2.9-1.12,4.69-1.33-.88,.83-1.59,1.53-2.12,2.39-.09,.15-.33,.21-.51,.3h0Zm-13.59,17.75c-2.94,2.32-5.4,5.16-8.06,7.77-1.68,1.64-3.22,3.43-5.17,4.77-1.1,.76-2,1.71-2.89,2.68-.13,.14-.28,.26-.4,.41-.13,.05-.27,.09-.41,.14-1,.34-2.05,.42-3.04,.07,1.53-2.84,3.73-5.22,5.86-7.61,3.31-3.72,6.86-7.23,10.07-11.04,1.11-1.32,2.09-2.76,3.2-4.09,3.01-3.61,6.87-6.1,11.08-8.09,.45-.21,.9-.41,1.43-.64-.11,.79-.77,.91-1.08,1.35-2.11,2.99-4.8,5.51-6.94,8.48-1.16,1.61-2.61,3.08-3.03,5.15-.05,.25-.38,.47-.61,.66h0Zm-3.09,9.51c-1.2-.24-2.37,.05-3.43,.67-1.02,.59-2.05,1.19-3,1.89-1.49,1.09-3.1,1.97-4.78,2.69,.79-.77,1.66-1.46,2.56-2.12,.66-.48,1.36-.92,1.93-1.5,2.13-2.15,4.38-4.19,6.36-6.5,.86-1.01,1.83-1.93,3.04-2.66,.27,.81-.41,1.12-.52,1.65-.47,2.06-1.14,4.04-2.16,5.88h0Zm24.39-7.47c-.29,.09-.53,.29-.77,.54-2.79,2.82-6.13,4.74-9.77,6.26-1.77,.74-3.51,1.67-5.07,2.79-1.4,1.01-2.88,1.58-4.53,1.74-1.69,.17-3.38,.26-5.07,.3-2.21,.05-4.23,.72-6.03,1.93-1.43,.97-2.74,2.09-3.65,3.59-1.28-.22-2.5-.61-3.69-1.32,.86-.38,1.63-.8,2.45-1.06,2.49-.78,4.62-2.2,6.76-3.62,.64-.43,1.3-.82,1.95-1.24,1-.65,2.08-.88,3.24-.65,1.9,.39,3.53-.13,5.04-1.29,1.51-1.16,3.07-2.24,4.6-3.37,1-.74,2.09-1.11,3.32-.9,2.16,.37,3.93-.4,5.51-1.79,1.09-.96,2.32-1.68,3.66-2.24,.74-.31,1.38-.22,1.99,.3l.05,.05h0Zm1.47,1.21c-1.04,.36-2.01,.87-2.7,1.77-1.17,1.51-2.6,2.75-3.92,4.11-.74,.76-1.64,1.3-2.54,1.81-5.02,2.86-10.64,4-16.12,5.52-2.09,.58-4.12,1.25-6.02,2.31-.49,.27-.81,.73-1.24,1.1-.87-.19-1.76-.36-2.65-.5,.14-.17,.29-.35,.44-.52,2.31-2.62,5.13-4.2,8.71-4.25,.77-.01,1.54-.03,2.31-.08,2.74-.18,5.53-.25,7.69-2.34,.1-.1,.26-.15,.39-.22,1.89-.88,3.64-2,5.57-2.8,.76-.32,1.57-.49,2.3-.97,1.91-1.26,3.86-2.45,5.56-3.99,.51-.46,1.08-.9,1.49-1.56,.25,.21,.5,.41,.75,.62h0Zm-26.51,18.71c-1.52-.78-3.12-1.36-4.77-1.8,.7-.6,1.48-1.07,2.33-1.42,2.36-.96,4.84-1.57,7.29-2.26,3.48-.97,6.94-1.95,10.32-3.25,3.31-1.27,5.93-3.33,8.07-6.03,1.12-1.42,2.21-2.78,4.02-3.31l.2,.18,.26,.24c-.94,.36-1.78,.89-2.21,1.81-.83,1.79-1.98,3.21-3.58,4.35-1.29,.92-2.5,1.96-3.74,2.96-1.59,1.29-3.48,2.01-5.36,2.67-3.55,1.24-6.83,3.13-10.47,4.16-.93,.26-1.87,.75-2.35,1.68h0Zm16.1,6.49c-.84,1.04-1.62,2.12-2.28,3.26-1.35,2.36-3.22,3.96-5.6,5.17-2.34,1.18-4.31,2.92-6.31,4.58l-.04,.02c-1.46,.62-2.65,1.49-3.31,3.04-.55,1.27-.98,1.41-2.6,1.2-.66-.08-1.33-.17-1.97-.34-3.44-.89-6.85-.43-10.24,.26-2.61,.53-5.16,1.36-7.81,1.77-3.03,.47-6.05,.39-9.05-.17-2.33-.43-4.66-.78-7.03-.86-1.82-.06-3.56-.42-5.13-1.44-.91-.6-1.95-.88-3.03-1.05-2.74-.42-5.48-.85-8.2-1.41-3.91-.81-7.88-.6-11.83-.27-2.77,.23-5.53,.44-8.3,.64-.6,.04-1.22,.11-1.97-.25,1.33-.82,2.54-1.48,3.84-1.97,2.03-.78,3.9-1.86,5.61-3.18,3.39-2.64,7.04-2.94,10.87-1.25,2.94,1.3,5.86,1.34,8.85,.33,1.18-.4,2.35-.66,3.62-.53,.7,.08,1.44-.04,2.14-.18,2.22-.45,4.38-1.12,6.49-1.91,1.71-.64,3.29-1.48,4.26-3.12,.3-.51,.72-.66,1.3-.57,1.64,.24,3.29,.07,4.93,.12,1.36,.04,2.61-.53,3.85-1.01,1.62-.64,3.22-1.35,4.84-1.98,1.25-.49,2.51-.79,3.9-.41,.99,.27,2.04,.18,3.03-.2,1.01-.38,2.06-.66,3.03-1.12,1.32-.63,2.68-.77,4.06-.44,4.39,1.05,8.88,1.68,13.23,2.91,1.34,.38,2.72,.55,4.11,.64,.95,.06,1.88-.01,2.76-.26h0Zm7.15-4.39c-.46,.54-.91,1.08-1.36,1.61-.56,.66-.89,1.41-1.17,2.22-.57,1.65-1.18,3.28-2.1,4.82-1.72,2.88-3.88,5.19-6.96,6.6-.24,.11-.47,.23-.71,.35-1,.08-1.99,.16-2.98,.27-1.09,.12-2.17,.31-3.24,.59,1.75-1.46,3.8-2.49,5.74-3.67,1.42-.87,2.59-1.96,3.52-3.34,1.56-2.35,2.96-4.83,5.04-6.76,1.32-1.05,2.75-1.91,4.23-2.69h0Zm-4.45,14.97c-1.05,.07-2.11,.16-3.16,.26-.68,.06-1.36,.12-2.05,.17,.34-.18,.68-.37,1.01-.6,2.97-2.07,5.02-4.84,6.23-8.12,.86-2.34,1.84-4.48,3.55-6.29,.56-.59,1.11-1.19,1.65-1.79,.47-.23,.94-.46,1.4-.69,.59-.29,1.19-.48,1.82-.54-.43,.33-.81,.72-1.16,1.15-1.15,1.41-1.9,3.07-2.38,4.75-.78,2.76-2.18,5.2-3.6,7.61-.89,1.5-1.77,3.1-3.3,4.08h0Z"/></svg>